<?xml version="1.0" encoding="utf-8"?>
<!-- Generator: Adobe Illustrator 26.3.1, SVG Export Plug-In . SVG Version: 6.00 Build 0)  -->
<svg version="1.1" id="STROKE_BORDERS" xmlns="http://www.w3.org/2000/svg" xmlns:xlink="http://www.w3.org/1999/xlink" x="0px"
	 y="0px" viewBox="0 0 595.3 595.3" style="enable-background:new 0 0 595.3 595.3;" xml:space="preserve">
<style type="text/css">
	.st0{fill:#E5E5E5;}
	.st1{fill:#18202A;}
	.st2{fill:#FF6531;}
</style>
<rect class="st1" width="595.3" height="595.3"/>
<path class="st0" d="M411.7,524.4H183.5c-23.1,0-41.8-18.7-41.8-41.8V112.7c0-23.1,18.7-41.8,41.8-41.8h228.2
	c23.1,0,41.8,18.7,41.8,41.8v369.9C453.5,505.7,434.8,524.4,411.7,524.4z"/>
<g>
	<path class="st1" d="M312.5,491.1H189.9c-8.2,0-14.9-6.7-14.9-14.9v-29.8c0-8.2,6.7-14.9,14.9-14.9h122.6c8.2,0,14.9,6.7,14.9,14.9
		v29.8C327.4,484.4,320.7,491.1,312.5,491.1z"/>
	<path class="st2" d="M405.4,491.1h-29.8c-8.2,0-14.9-6.7-14.9-14.9v-29.8c0-8.2,6.7-14.9,14.9-14.9h29.8c8.2,0,14.9,6.7,14.9,14.9
		v29.8C420.2,484.4,413.6,491.1,405.4,491.1z"/>
</g>
<g>
	<path class="st1" d="M312.5,398.3h-29.8c-8.2,0-14.9-6.7-14.9-14.9v-29.8c0-8.2,6.7-14.9,14.9-14.9h29.8c8.2,0,14.9,6.7,14.9,14.9
		v29.8C327.4,391.6,320.7,398.3,312.5,398.3z"/>
	<path class="st1" d="M219.4,398.3h-29.8c-8.2,0-14.9-6.7-14.9-14.9v-29.8c0-8.2,6.7-14.9,14.9-14.9h29.8c8.2,0,14.9,6.7,14.9,14.9
		v29.8C234.2,391.6,227.6,398.3,219.4,398.3z"/>
	<path class="st1" d="M405.4,398.3h-29.8c-8.2,0-14.9-6.7-14.9-14.9v-29.8c0-8.2,6.7-14.9,14.9-14.9h29.8c8.2,0,14.9,6.7,14.9,14.9
		v29.8C420.2,391.6,413.6,398.3,405.4,398.3z"/>
</g>
<path class="st1" d="M405.4,212.6H189.6c-8.2,0-14.9-6.7-14.9-14.9v-78.7c0-8.2,6.7-14.9,14.9-14.9h215.8c8.2,0,14.9,6.7,14.9,14.9
	v78.7C420.2,205.9,413.6,212.6,405.4,212.6z"/>
<g>
	<path class="st1" d="M312.5,305.4h-29.8c-8.2,0-14.9-6.7-14.9-14.9v-29.8c0-8.2,6.7-14.9,14.9-14.9h29.8c8.2,0,14.9,6.7,14.9,14.9
		v29.8C327.4,298.8,320.7,305.4,312.5,305.4z"/>
	<path class="st1" d="M219.4,305.4h-29.8c-8.2,0-14.9-6.7-14.9-14.9v-29.8c0-8.2,6.7-14.9,14.9-14.9h29.8c8.2,0,14.9,6.7,14.9,14.9
		v29.8C234.2,298.8,227.6,305.4,219.4,305.4z"/>
	<path class="st1" d="M405.4,305.4h-29.8c-8.2,0-14.9-6.7-14.9-14.9v-29.8c0-8.2,6.7-14.9,14.9-14.9h29.8c8.2,0,14.9,6.7,14.9,14.9
		v29.8C420.2,298.8,413.6,305.4,405.4,305.4z"/>
</g>
</svg>
