<svg width="625" height="635" viewBox="0 0 625 635" fill="none" xmlns="http://www.w3.org/2000/svg">
<g clip-path="url(#clip0_15_484)">
<rect width="625" height="635" fill="#18202A"/>
<g filter="url(#filter0_d_15_484)">
<rect x="1" y="1" width="623" height="28" fill="#2B2B2B"/>
</g>
<circle cx="606" cy="15" r="10" fill="#1F9EDE"/>
<path d="M602 11L610 19M602 19L610 11" stroke="white"/>
<path d="M278.459 14.3281H276.592C276.558 14.0866 276.489 13.8722 276.384 13.6847C276.278 13.4943 276.143 13.3324 275.979 13.1989C275.814 13.0653 275.624 12.9631 275.408 12.892C275.195 12.821 274.963 12.7855 274.713 12.7855C274.261 12.7855 273.868 12.8977 273.533 13.1222C273.197 13.3437 272.938 13.6676 272.753 14.0938C272.568 14.517 272.476 15.0312 272.476 15.6364C272.476 16.2585 272.568 16.7812 272.753 17.2045C272.94 17.6278 273.202 17.9474 273.537 18.1634C273.872 18.3793 274.26 18.4872 274.7 18.4872C274.947 18.4872 275.176 18.4545 275.386 18.3892C275.599 18.3239 275.788 18.2287 275.953 18.1037C276.118 17.9759 276.254 17.821 276.362 17.6392C276.473 17.4574 276.55 17.25 276.592 17.017L278.459 17.0256C278.411 17.4261 278.29 17.8125 278.097 18.1847C277.906 18.554 277.649 18.8849 277.325 19.1776C277.004 19.4673 276.621 19.6974 276.175 19.8679C275.732 20.0355 275.23 20.1193 274.67 20.1193C273.892 20.1193 273.196 19.9432 272.582 19.5909C271.972 19.2386 271.489 18.7287 271.134 18.0611C270.781 17.3935 270.605 16.5852 270.605 15.6364C270.605 14.6847 270.784 13.875 271.142 13.2074C271.5 12.5398 271.986 12.0312 272.599 11.6818C273.213 11.3295 273.903 11.1534 274.67 11.1534C275.176 11.1534 275.645 11.2244 276.077 11.3665C276.511 11.5085 276.896 11.7159 277.232 11.9886C277.567 12.2585 277.839 12.5895 278.05 12.9815C278.263 13.3736 278.399 13.8224 278.459 14.3281ZM281.614 20.1236C281.197 20.1236 280.825 20.0511 280.498 19.9062C280.171 19.7585 279.913 19.5412 279.722 19.2543C279.535 18.9645 279.441 18.6037 279.441 18.1719C279.441 17.8082 279.508 17.5028 279.641 17.2557C279.775 17.0085 279.957 16.8097 280.187 16.6591C280.417 16.5085 280.678 16.3949 280.971 16.3182C281.266 16.2415 281.576 16.1875 281.9 16.1562C282.281 16.1165 282.587 16.0795 282.82 16.0455C283.053 16.0085 283.222 15.9545 283.327 15.8835C283.433 15.8125 283.485 15.7074 283.485 15.5682V15.5426C283.485 15.2727 283.4 15.0639 283.229 14.9162C283.062 14.7685 282.823 14.6946 282.513 14.6946C282.187 14.6946 281.927 14.767 281.734 14.9119C281.54 15.054 281.413 15.233 281.35 15.4489L279.671 15.3125C279.756 14.9148 279.924 14.571 280.174 14.2812C280.424 13.9886 280.746 13.7642 281.141 13.608C281.539 13.4489 281.999 13.3693 282.522 13.3693C282.886 13.3693 283.234 13.4119 283.566 13.4972C283.901 13.5824 284.198 13.7145 284.457 13.8935C284.718 14.0724 284.924 14.3026 285.075 14.5838C285.225 14.8622 285.3 15.196 285.3 15.5852V20H283.579V19.0923H283.528C283.423 19.2969 283.282 19.4773 283.106 19.6335C282.93 19.7869 282.718 19.9077 282.471 19.9957C282.224 20.081 281.938 20.1236 281.614 20.1236ZM282.134 18.8707C282.401 18.8707 282.637 18.8182 282.842 18.7131C283.046 18.6051 283.207 18.4602 283.323 18.2784C283.44 18.0966 283.498 17.8906 283.498 17.6605V16.9659C283.441 17.0028 283.363 17.0369 283.263 17.0682C283.167 17.0966 283.058 17.1236 282.935 17.1491C282.813 17.1719 282.691 17.1932 282.569 17.2131C282.447 17.2301 282.336 17.2457 282.237 17.2599C282.023 17.2912 281.837 17.3409 281.678 17.4091C281.519 17.4773 281.396 17.5696 281.308 17.6861C281.219 17.7997 281.175 17.9418 281.175 18.1122C281.175 18.3594 281.265 18.5483 281.444 18.679C281.626 18.8068 281.856 18.8707 282.134 18.8707ZM288.524 11.2727V20H286.709V11.2727H288.524ZM292.936 20.1278C292.265 20.1278 291.689 19.9858 291.206 19.7017C290.725 19.4148 290.356 19.017 290.098 18.5085C289.842 18 289.714 17.4148 289.714 16.7528C289.714 16.0824 289.843 15.4943 290.102 14.9886C290.363 14.4801 290.734 14.0838 291.214 13.7997C291.694 13.5128 292.265 13.3693 292.927 13.3693C293.498 13.3693 293.998 13.473 294.427 13.6804C294.856 13.8878 295.196 14.179 295.446 14.554C295.696 14.929 295.833 15.3693 295.859 15.875H294.146C294.098 15.5483 293.97 15.2855 293.762 15.0866C293.558 14.8849 293.289 14.7841 292.957 14.7841C292.676 14.7841 292.43 14.8608 292.22 15.0142C292.012 15.1648 291.85 15.3849 291.734 15.6747C291.618 15.9645 291.559 16.3153 291.559 16.7273C291.559 17.1449 291.616 17.5 291.73 17.7926C291.846 18.0852 292.01 18.3082 292.22 18.4616C292.43 18.6151 292.676 18.6918 292.957 18.6918C293.164 18.6918 293.35 18.6491 293.515 18.5639C293.683 18.4787 293.821 18.3551 293.929 18.1932C294.039 18.0284 294.112 17.831 294.146 17.6009H295.859C295.831 18.1009 295.694 18.5412 295.45 18.9219C295.208 19.2997 294.875 19.5952 294.449 19.8082C294.022 20.0213 293.518 20.1278 292.936 20.1278ZM301.219 17.2131V13.4545H303.034V20H301.291V18.8111H301.223C301.075 19.1946 300.83 19.5028 300.486 19.7358C300.145 19.9687 299.729 20.0852 299.237 20.0852C298.8 20.0852 298.415 19.9858 298.082 19.7869C297.75 19.5881 297.49 19.3054 297.303 18.9389C297.118 18.5724 297.024 18.1335 297.021 17.6222V13.4545H298.837V17.2983C298.839 17.6847 298.943 17.9901 299.148 18.2145C299.352 18.4389 299.626 18.5511 299.97 18.5511C300.189 18.5511 300.393 18.5014 300.584 18.402C300.774 18.2997 300.928 18.1491 301.044 17.9503C301.163 17.7514 301.222 17.5057 301.219 17.2131ZM306.301 11.2727V20H304.486V11.2727H306.301ZM309.622 20.1236C309.205 20.1236 308.832 20.0511 308.506 19.9062C308.179 19.7585 307.92 19.5412 307.73 19.2543C307.543 18.9645 307.449 18.6037 307.449 18.1719C307.449 17.8082 307.516 17.5028 307.649 17.2557C307.783 17.0085 307.964 16.8097 308.195 16.6591C308.425 16.5085 308.686 16.3949 308.979 16.3182C309.274 16.2415 309.584 16.1875 309.908 16.1562C310.288 16.1165 310.595 16.0795 310.828 16.0455C311.061 16.0085 311.23 15.9545 311.335 15.8835C311.44 15.8125 311.493 15.7074 311.493 15.5682V15.5426C311.493 15.2727 311.408 15.0639 311.237 14.9162C311.07 14.7685 310.831 14.6946 310.521 14.6946C310.195 14.6946 309.935 14.767 309.741 14.9119C309.548 15.054 309.42 15.233 309.358 15.4489L307.679 15.3125C307.764 14.9148 307.932 14.571 308.182 14.2812C308.432 13.9886 308.754 13.7642 309.149 13.608C309.547 13.4489 310.007 13.3693 310.53 13.3693C310.893 13.3693 311.241 13.4119 311.574 13.4972C311.909 13.5824 312.206 13.7145 312.464 13.8935C312.726 14.0724 312.932 14.3026 313.082 14.5838C313.233 14.8622 313.308 15.196 313.308 15.5852V20H311.587V19.0923H311.536C311.43 19.2969 311.29 19.4773 311.114 19.6335C310.938 19.7869 310.726 19.9077 310.479 19.9957C310.232 20.081 309.946 20.1236 309.622 20.1236ZM310.142 18.8707C310.409 18.8707 310.645 18.8182 310.849 18.7131C311.054 18.6051 311.214 18.4602 311.331 18.2784C311.447 18.0966 311.506 17.8906 311.506 17.6605V16.9659C311.449 17.0028 311.371 17.0369 311.271 17.0682C311.175 17.0966 311.065 17.1236 310.943 17.1491C310.821 17.1719 310.699 17.1932 310.577 17.2131C310.455 17.2301 310.344 17.2457 310.244 17.2599C310.031 17.2912 309.845 17.3409 309.686 17.4091C309.527 17.4773 309.403 17.5696 309.315 17.6861C309.227 17.7997 309.183 17.9418 309.183 18.1122C309.183 18.3594 309.273 18.5483 309.452 18.679C309.634 18.8068 309.864 18.8707 310.142 18.8707ZM318.198 13.4545V14.8182H314.256V13.4545H318.198ZM315.151 11.8864H316.967V17.9886C316.967 18.1562 316.992 18.2869 317.043 18.3807C317.094 18.4716 317.165 18.5355 317.256 18.5724C317.35 18.6094 317.458 18.6278 317.58 18.6278C317.665 18.6278 317.751 18.6207 317.836 18.6065C317.921 18.5895 317.987 18.5767 318.032 18.5682L318.317 19.919C318.227 19.9474 318.099 19.9801 317.934 20.017C317.769 20.0568 317.569 20.081 317.333 20.0895C316.896 20.1065 316.512 20.0483 316.183 19.9148C315.856 19.7812 315.602 19.5739 315.42 19.2926C315.238 19.0114 315.148 18.6562 315.151 18.2273V11.8864ZM322.268 20.1278C321.606 20.1278 321.033 19.9872 320.55 19.706C320.07 19.4219 319.7 19.027 319.438 18.5213C319.177 18.0128 319.046 17.4233 319.046 16.7528C319.046 16.0767 319.177 15.4858 319.438 14.9801C319.7 14.4716 320.07 14.0767 320.55 13.7955C321.033 13.5114 321.606 13.3693 322.268 13.3693C322.93 13.3693 323.501 13.5114 323.981 13.7955C324.464 14.0767 324.836 14.4716 325.097 14.9801C325.359 15.4858 325.489 16.0767 325.489 16.7528C325.489 17.4233 325.359 18.0128 325.097 18.5213C324.836 19.027 324.464 19.4219 323.981 19.706C323.501 19.9872 322.93 20.1278 322.268 20.1278ZM322.276 18.7216C322.577 18.7216 322.829 18.6364 323.031 18.4659C323.232 18.2926 323.384 18.0568 323.487 17.7585C323.592 17.4602 323.644 17.1207 323.644 16.7401C323.644 16.3594 323.592 16.0199 323.487 15.7216C323.384 15.4233 323.232 15.1875 323.031 15.0142C322.829 14.8409 322.577 14.7543 322.276 14.7543C321.972 14.7543 321.717 14.8409 321.509 15.0142C321.305 15.1875 321.15 15.4233 321.045 15.7216C320.942 16.0199 320.891 16.3594 320.891 16.7401C320.891 17.1207 320.942 17.4602 321.045 17.7585C321.15 18.0568 321.305 18.2926 321.509 18.4659C321.717 18.6364 321.972 18.7216 322.276 18.7216ZM326.67 20V13.4545H328.43V14.5966H328.498C328.617 14.1903 328.817 13.8835 329.099 13.6761C329.38 13.4659 329.704 13.3608 330.07 13.3608C330.161 13.3608 330.259 13.3665 330.364 13.3778C330.469 13.3892 330.562 13.4048 330.641 13.4247V15.0355C330.556 15.0099 330.438 14.9872 330.288 14.9673C330.137 14.9474 329.999 14.9375 329.874 14.9375C329.607 14.9375 329.369 14.9957 329.158 15.1122C328.951 15.2259 328.786 15.3849 328.664 15.5895C328.545 15.794 328.485 16.0298 328.485 16.2969V20H326.67ZM335.459 15.696V17.1364H331.479V15.696H335.459ZM337.006 22.4545V13.4545H338.795V14.554H338.876C338.956 14.3778 339.071 14.1989 339.222 14.017C339.375 13.8324 339.574 13.679 339.818 13.5568C340.065 13.4318 340.372 13.3693 340.739 13.3693C341.216 13.3693 341.656 13.4943 342.06 13.7443C342.463 13.9915 342.786 14.3651 343.027 14.8651C343.268 15.3622 343.389 15.9858 343.389 16.7358C343.389 17.4659 343.271 18.0824 343.036 18.5852C342.803 19.0852 342.484 19.4645 342.081 19.723C341.68 19.9787 341.232 20.1065 340.734 20.1065C340.382 20.1065 340.082 20.0483 339.835 19.9318C339.591 19.8153 339.391 19.669 339.234 19.4929C339.078 19.3139 338.959 19.1335 338.876 18.9517H338.821V22.4545H337.006ZM338.783 16.7273C338.783 17.1165 338.837 17.456 338.945 17.7457C339.053 18.0355 339.209 18.2614 339.413 18.4233C339.618 18.5824 339.866 18.6619 340.159 18.6619C340.455 18.6619 340.705 18.581 340.909 18.419C341.114 18.2543 341.268 18.027 341.374 17.7372C341.482 17.4446 341.536 17.108 341.536 16.7273C341.536 16.3494 341.483 16.017 341.378 15.7301C341.273 15.4432 341.118 15.2187 340.913 15.0568C340.709 14.8949 340.457 14.8139 340.159 14.8139C339.864 14.8139 339.614 14.892 339.409 15.0483C339.207 15.2045 339.053 15.4261 338.945 15.7131C338.837 16 338.783 16.3381 338.783 16.7273ZM344.599 20V13.4545H346.359V14.5966H346.428C346.547 14.1903 346.747 13.8835 347.028 13.6761C347.31 13.4659 347.634 13.3608 348 13.3608C348.091 13.3608 348.189 13.3665 348.294 13.3778C348.399 13.3892 348.491 13.4048 348.571 13.4247V15.0355C348.486 15.0099 348.368 14.9872 348.217 14.9673C348.067 14.9474 347.929 14.9375 347.804 14.9375C347.537 14.9375 347.298 14.9957 347.088 15.1122C346.881 15.2259 346.716 15.3849 346.594 15.5895C346.474 15.794 346.415 16.0298 346.415 16.2969V20H344.599ZM352.162 20.1278C351.5 20.1278 350.928 19.9872 350.445 19.706C349.965 19.4219 349.594 19.027 349.333 18.5213C349.071 18.0128 348.941 17.4233 348.941 16.7528C348.941 16.0767 349.071 15.4858 349.333 14.9801C349.594 14.4716 349.965 14.0767 350.445 13.7955C350.928 13.5114 351.5 13.3693 352.162 13.3693C352.824 13.3693 353.395 13.5114 353.875 13.7955C354.358 14.0767 354.73 14.4716 354.992 14.9801C355.253 15.4858 355.384 16.0767 355.384 16.7528C355.384 17.4233 355.253 18.0128 354.992 18.5213C354.73 19.027 354.358 19.4219 353.875 19.706C353.395 19.9872 352.824 20.1278 352.162 20.1278ZM352.171 18.7216C352.472 18.7216 352.723 18.6364 352.925 18.4659C353.127 18.2926 353.279 18.0568 353.381 17.7585C353.486 17.4602 353.539 17.1207 353.539 16.7401C353.539 16.3594 353.486 16.0199 353.381 15.7216C353.279 15.4233 353.127 15.1875 352.925 15.0142C352.723 14.8409 352.472 14.7543 352.171 14.7543C351.867 14.7543 351.611 14.8409 351.404 15.0142C351.199 15.1875 351.044 15.4233 350.939 15.7216C350.837 16.0199 350.786 16.3594 350.786 16.7401C350.786 17.1207 350.837 17.4602 350.939 17.7585C351.044 18.0568 351.199 18.2926 351.404 18.4659C351.611 18.6364 351.867 18.7216 352.171 18.7216Z" fill="white"/>
<g style="mix-blend-mode:overlay">
<path d="M27.75 63H15.25C11.8104 63 9 60.1896 9 56.75V44.25C9 40.8104 11.8104 38 15.25 38H27.75C31.1896 38 34 40.8104 34 44.25V56.75C33.9581 60.1896 31.1896 63 27.75 63Z" fill="#E5E5E5"/>
</g>
<path d="M351.75 63H339.25C335.81 63 333 60.1896 333 56.75V44.25C333 40.8104 335.81 38 339.25 38H351.75C355.19 38 358 40.8104 358 44.25V56.75C357.958 60.1896 355.19 63 351.75 63Z" fill="#2B394B"/>
<path d="M286.75 63H274.25C270.81 63 268 60.1896 268 56.75V44.25C268 40.8104 270.81 38 274.25 38H286.75C290.19 38 293 40.8104 293 44.25V56.75C292.958 60.1896 290.19 63 286.75 63Z" fill="#2B394B"/>
<path d="M335.5 63H290.5C278.117 63 268 60.1896 268 56.75V44.25C268 40.8104 278.117 38 290.5 38H335.5C347.883 38 358 40.8104 358 44.25V56.75C357.849 60.1896 347.883 63 335.5 63Z" fill="#2B394B"/>
<path d="M301.827 48.4545L299.538 55H297.493L295.205 48.4545H297.122L298.482 53.1378H298.55L299.905 48.4545H301.827ZM305.528 55.1278C304.854 55.1278 304.275 54.9915 303.789 54.7188C303.306 54.4432 302.934 54.054 302.673 53.5511C302.411 53.0455 302.281 52.4474 302.281 51.7571C302.281 51.0838 302.411 50.4929 302.673 49.9844C302.934 49.4759 303.302 49.0795 303.776 48.7955C304.254 48.5114 304.813 48.3693 305.455 48.3693C305.887 48.3693 306.289 48.4389 306.661 48.5781C307.036 48.7145 307.363 48.9205 307.641 49.196C307.923 49.4716 308.141 49.8182 308.298 50.2358C308.454 50.6506 308.532 51.1364 308.532 51.6932V52.1918H303.005V51.0668H306.823C306.823 50.8054 306.766 50.5739 306.653 50.3722C306.539 50.1705 306.381 50.0128 306.18 49.8991C305.981 49.7827 305.749 49.7244 305.485 49.7244C305.21 49.7244 304.965 49.7884 304.752 49.9162C304.542 50.0412 304.377 50.2102 304.258 50.4233C304.138 50.6335 304.077 50.8679 304.075 51.1264V52.196C304.075 52.5199 304.134 52.7997 304.254 53.0355C304.376 53.2713 304.548 53.4531 304.769 53.581C304.991 53.7088 305.254 53.7727 305.558 53.7727C305.759 53.7727 305.944 53.7443 306.112 53.6875C306.279 53.6307 306.423 53.5455 306.542 53.4318C306.661 53.3182 306.752 53.179 306.815 53.0142L308.494 53.125C308.408 53.5284 308.234 53.8807 307.969 54.1818C307.708 54.4801 307.37 54.7131 306.955 54.8807C306.543 55.0455 306.067 55.1278 305.528 55.1278ZM304.556 45.7358L305.413 46.7756L306.269 45.7358H307.816V45.7955L306.086 47.6705H304.735L303.009 45.7955V45.7358H304.556ZM312.129 55.1065C311.631 55.1065 311.181 54.9787 310.778 54.723C310.377 54.4645 310.059 54.0852 309.823 53.5852C309.59 53.0824 309.474 52.4659 309.474 51.7358C309.474 50.9858 309.594 50.3622 309.836 49.8651C310.077 49.3651 310.398 48.9915 310.799 48.7443C311.202 48.4943 311.644 48.3693 312.124 48.3693C312.491 48.3693 312.796 48.4318 313.04 48.5568C313.288 48.679 313.487 48.8324 313.637 49.017C313.79 49.1989 313.907 49.3778 313.987 49.554H314.042V46.2727H315.853V55H314.063V53.9517H313.987C313.901 54.1335 313.781 54.3139 313.624 54.4929C313.471 54.669 313.271 54.8153 313.023 54.9318C312.779 55.0483 312.481 55.1065 312.129 55.1065ZM312.704 53.6619C312.996 53.6619 313.244 53.5824 313.445 53.4233C313.65 53.2614 313.806 53.0355 313.914 52.7457C314.025 52.456 314.08 52.1165 314.08 51.7273C314.08 51.3381 314.026 51 313.918 50.7131C313.81 50.4261 313.654 50.2045 313.45 50.0483C313.245 49.892 312.996 49.8139 312.704 49.8139C312.406 49.8139 312.154 49.8949 311.95 50.0568C311.745 50.2187 311.59 50.4432 311.485 50.7301C311.38 51.017 311.327 51.3494 311.327 51.7273C311.327 52.108 311.38 52.4446 311.485 52.7372C311.593 53.027 311.748 53.2543 311.95 53.419C312.154 53.581 312.406 53.6619 312.704 53.6619ZM320.328 55.1278C319.655 55.1278 319.076 54.9915 318.59 54.7188C318.107 54.4432 317.735 54.054 317.473 53.5511C317.212 53.0455 317.081 52.4474 317.081 51.7571C317.081 51.0838 317.212 50.4929 317.473 49.9844C317.735 49.4759 318.103 49.0795 318.577 48.7955C319.054 48.5114 319.614 48.3693 320.256 48.3693C320.688 48.3693 321.09 48.4389 321.462 48.5781C321.837 48.7145 322.164 48.9205 322.442 49.196C322.723 49.4716 322.942 49.8182 323.098 50.2358C323.255 50.6506 323.333 51.1364 323.333 51.6932V52.1918H317.806V51.0668H321.624C321.624 50.8054 321.567 50.5739 321.453 50.3722C321.34 50.1705 321.182 50.0128 320.98 49.8991C320.782 49.7827 320.55 49.7244 320.286 49.7244C320.01 49.7244 319.766 49.7884 319.553 49.9162C319.343 50.0412 319.178 50.2102 319.059 50.4233C318.939 50.6335 318.878 50.8679 318.875 51.1264V52.196C318.875 52.5199 318.935 52.7997 319.054 53.0355C319.176 53.2713 319.348 53.4531 319.57 53.581C319.792 53.7088 320.054 53.7727 320.358 53.7727C320.56 53.7727 320.745 53.7443 320.912 53.6875C321.08 53.6307 321.223 53.5455 321.343 53.4318C321.462 53.3182 321.553 53.179 321.615 53.0142L323.294 53.125C323.209 53.5284 323.034 53.8807 322.77 54.1818C322.509 54.4801 322.171 54.7131 321.756 54.8807C321.344 55.0455 320.868 55.1278 320.328 55.1278ZM327.475 55.1278C326.804 55.1278 326.228 54.9858 325.745 54.7017C325.265 54.4148 324.895 54.017 324.637 53.5085C324.381 53 324.253 52.4148 324.253 51.7528C324.253 51.0824 324.382 50.4943 324.641 49.9886C324.902 49.4801 325.273 49.0838 325.753 48.7997C326.233 48.5128 326.804 48.3693 327.466 48.3693C328.037 48.3693 328.537 48.473 328.966 48.6804C329.395 48.8878 329.735 49.179 329.985 49.554C330.235 49.929 330.373 50.3693 330.398 50.875H328.685C328.637 50.5483 328.509 50.2855 328.301 50.0866C328.097 49.8849 327.828 49.7841 327.496 49.7841C327.215 49.7841 326.969 49.8608 326.759 50.0142C326.551 50.1648 326.39 50.3849 326.273 50.6747C326.157 50.9645 326.098 51.3153 326.098 51.7273C326.098 52.1449 326.155 52.5 326.269 52.7926C326.385 53.0852 326.549 53.3082 326.759 53.4616C326.969 53.6151 327.215 53.6918 327.496 53.6918C327.703 53.6918 327.89 53.6491 328.054 53.5639C328.222 53.4787 328.36 53.3551 328.468 53.1932C328.578 53.0284 328.651 52.831 328.685 52.6009H330.398C330.37 53.1009 330.233 53.5412 329.989 53.9219C329.748 54.2997 329.414 54.5952 328.988 54.8082C328.561 55.0213 328.057 55.1278 327.475 55.1278ZM333.205 53.1165L333.21 50.9389H333.474L335.57 48.4545H337.654L334.837 51.7443H334.407L333.205 53.1165ZM331.56 55V46.2727H333.376V55H331.56ZM335.651 55L333.725 52.1491L334.935 50.8665L337.778 55H335.651ZM339.771 57.4545C339.541 57.4545 339.325 57.4361 339.123 57.3991C338.924 57.3651 338.76 57.321 338.629 57.267L339.038 55.9119C339.251 55.9773 339.443 56.0128 339.613 56.0185C339.787 56.0241 339.936 55.9844 340.061 55.8991C340.189 55.8139 340.292 55.669 340.372 55.4645L340.478 55.1875L338.13 48.4545H340.039L341.395 53.2614H341.463L342.831 48.4545H344.752L342.208 55.7074C342.086 56.0597 341.92 56.3665 341.71 56.6278C341.502 56.892 341.24 57.0952 340.922 57.2372C340.603 57.3821 340.22 57.4545 339.771 57.4545ZM340.777 47.6108L341.68 45.6719H343.359L342.059 47.6108H340.777Z" fill="black"/>
<path d="M284 50.3158L278 54V47L284 50.3158Z" fill="black"/>
<path d="M278.75 52.5263L278.818 51.7895M279.875 50.3158V51.7895L282.125 50.3158L279.125 48.4737L278.818 51.7895M279.875 50.3158V52.5263M279.875 50.3158L280.25 49.9474L281.375 50.3158L278.75 48.1053L278.818 51.7895M278 54L284 50.3158L278 47V54Z" stroke="black" stroke-width="2"/>
<path d="M20.25 51.4901V51.4091C20.2557 50.8807 20.3082 50.4602 20.4077 50.1477C20.5099 49.8352 20.6548 49.5824 20.8423 49.3892C21.0298 49.196 21.2557 49.0199 21.5199 48.8608C21.6903 48.7528 21.8438 48.6321 21.9801 48.4986C22.1165 48.3651 22.2244 48.2116 22.304 48.0384C22.3835 47.8651 22.4233 47.6733 22.4233 47.4631C22.4233 47.2102 22.3636 46.9915 22.2443 46.8068C22.125 46.6222 21.9659 46.4801 21.767 46.3807C21.571 46.2784 21.3523 46.2273 21.1108 46.2273C20.892 46.2273 20.6832 46.2727 20.4844 46.3636C20.2855 46.4545 20.1207 46.5966 19.9901 46.7898C19.8594 46.9801 19.7841 47.2259 19.7642 47.527H18.4688C18.4886 47.0156 18.6179 46.5838 18.8565 46.2315C19.0952 45.8764 19.4105 45.608 19.8026 45.4261C20.1974 45.2443 20.6335 45.1534 21.1108 45.1534C21.6335 45.1534 22.0909 45.2514 22.483 45.4474C22.875 45.6406 23.179 45.9119 23.3949 46.2614C23.6136 46.608 23.723 47.0128 23.723 47.4759C23.723 47.794 23.6733 48.081 23.5739 48.3366C23.4744 48.5895 23.3324 48.8153 23.1477 49.0142C22.9659 49.2131 22.7472 49.3892 22.4915 49.5426C22.25 49.6932 22.054 49.8494 21.9034 50.0114C21.7557 50.1733 21.6477 50.3651 21.5795 50.5866C21.5114 50.8082 21.4744 51.0824 21.4688 51.4091V51.4901H20.25ZM20.8935 54.081C20.6605 54.081 20.4602 53.9986 20.2926 53.8338C20.125 53.6662 20.0412 53.4645 20.0412 53.2287C20.0412 52.9957 20.125 52.7969 20.2926 52.6321C20.4602 52.4645 20.6605 52.3807 20.8935 52.3807C21.1236 52.3807 21.3224 52.4645 21.4901 52.6321C21.6605 52.7969 21.7457 52.9957 21.7457 53.2287C21.7457 53.3849 21.706 53.5284 21.6264 53.6591C21.5497 53.7869 21.4474 53.8892 21.3196 53.9659C21.1918 54.0426 21.0497 54.081 20.8935 54.081Z" fill="black"/>
<g style="mix-blend-mode:color-dodge">
<path d="M566.5 604H531.5C521.869 604 514 596.131 514 586.5V551.5C514 541.869 521.869 534 531.5 534H566.5C576.131 534 584 541.869 584 551.5V586.5C583.883 596.131 576.131 604 566.5 604Z" fill="#18202A"/>
</g>
<path d="M562.749 595.326H535.915C533.199 595.326 531 593.127 531 590.411V546.915C531 544.199 533.199 542 535.915 542H562.749C565.465 542 567.664 544.199 567.664 546.915V590.411C567.664 593.127 565.465 595.326 562.749 595.326Z" fill="#E5E5E5"/>
<path d="M551.084 591.41H536.668C535.703 591.41 534.916 590.623 534.916 589.658V586.154C534.916 585.19 535.703 584.402 536.668 584.402H551.084C552.048 584.402 552.836 585.19 552.836 586.154V589.658C552.836 590.623 552.048 591.41 551.084 591.41Z" fill="#18202A"/>
<path d="M562.008 591.41H558.504C557.54 591.41 556.752 590.623 556.752 589.658V586.154C556.752 585.19 557.54 584.402 558.504 584.402H562.008C562.972 584.402 563.76 585.19 563.76 586.154V589.658C563.748 590.623 562.972 591.41 562.008 591.41Z" fill="#FF6531"/>
<path d="M551.084 580.498H547.58C546.616 580.498 545.828 579.71 545.828 578.746V575.242C545.828 574.278 546.616 573.49 547.58 573.49H551.084C552.048 573.49 552.836 574.278 552.836 575.242V578.746C552.836 579.71 552.048 580.498 551.084 580.498Z" fill="#18202A"/>
<path d="M540.137 580.498H536.632C535.668 580.498 534.88 579.71 534.88 578.746V575.242C534.88 574.278 535.668 573.49 536.632 573.49H540.137C541.101 573.49 541.889 574.278 541.889 575.242V578.746C541.877 579.71 541.101 580.498 540.137 580.498Z" fill="#18202A"/>
<path d="M562.008 580.498H558.504C557.54 580.498 556.752 579.71 556.752 578.746V575.242C556.752 574.278 557.54 573.49 558.504 573.49H562.008C562.972 573.49 563.76 574.278 563.76 575.242V578.746C563.748 579.71 562.972 580.498 562.008 580.498Z" fill="#18202A"/>
<path d="M562.008 558.662H536.632C535.668 558.662 534.88 557.874 534.88 556.91V547.656C534.88 546.692 535.668 545.904 536.632 545.904H562.008C562.972 545.904 563.76 546.692 563.76 547.656V556.91C563.748 557.874 562.972 558.662 562.008 558.662Z" fill="#18202A"/>
<path d="M551.084 569.574H547.58C546.616 569.574 545.828 568.786 545.828 567.822V564.318C545.828 563.354 546.616 562.566 547.58 562.566H551.084C552.048 562.566 552.836 563.354 552.836 564.318V567.822C552.836 568.798 552.048 569.574 551.084 569.574Z" fill="#18202A"/>
<path d="M540.137 569.574H536.632C535.668 569.574 534.88 568.786 534.88 567.822V564.318C534.88 563.354 535.668 562.566 536.632 562.566H540.137C541.101 562.566 541.889 563.354 541.889 564.318V567.822C541.877 568.798 541.101 569.574 540.137 569.574Z" fill="#18202A"/>
<path d="M562.008 569.574H558.504C557.54 569.574 556.752 568.786 556.752 567.822V564.318C556.752 563.354 557.54 562.566 558.504 562.566H562.008C562.972 562.566 563.76 563.354 563.76 564.318V567.822C563.748 568.798 562.972 569.574 562.008 569.574Z" fill="#18202A"/>
<g clip-path="url(#clip1_15_484)">
<path d="M313 87V604" stroke="#485A71" stroke-width="4"/>
<path d="M368 88V605" stroke="#2B394B"/>
<path d="M42.5 347H583.5" stroke="#485A71" stroke-width="4"/>
<path d="M423 88V605" stroke="#2B394B"/>
<path d="M478 88V605" stroke="#2B394B"/>
<path d="M533 88L534 529" stroke="#2B394B"/>
<path d="M93 87V604" stroke="#2B394B"/>
<path d="M148 87V604" stroke="#2B394B"/>
<path d="M203 87V604" stroke="#2B394B"/>
<path d="M258 87V604" stroke="#2B394B"/>
<path d="M43 292L584 292" stroke="#2B394B"/>
<path d="M43 237L584 237" stroke="#2B394B"/>
<path d="M43 182L584 182" stroke="#2B394B"/>
<path d="M43 127L584 127" stroke="#2B394B"/>
<path d="M43 557H509" stroke="#2B394B"/>
<path d="M43 502L584 502" stroke="#2B394B"/>
<path d="M43 447L584 447" stroke="#2B394B"/>
<path d="M43 392L584 392" stroke="#2B394B"/>
<path d="M325.306 104.068C325.019 104.068 324.749 104.045 324.497 103.999C324.248 103.956 324.042 103.901 323.879 103.834L324.39 102.14C324.657 102.222 324.896 102.266 325.109 102.273C325.326 102.28 325.512 102.23 325.669 102.124C325.828 102.017 325.958 101.836 326.058 101.581L326.191 101.234L323.256 92.8182H325.642L327.336 98.8267H327.421L329.131 92.8182H331.533L328.353 101.884C328.201 102.325 327.993 102.708 327.73 103.035C327.471 103.365 327.142 103.619 326.745 103.797C326.347 103.978 325.868 104.068 325.306 104.068Z" fill="#E5E5E5"/>
<path d="M572.802 356.818L574.304 359.679L575.843 356.818H578.171L575.801 360.909L578.235 365H575.918L574.304 362.172L572.717 365H570.373L572.802 360.909L570.458 356.818H572.802Z" fill="#E5E5E5"/>
<path d="M48 601C62.8333 520.333 116.6 361.8 203 395C289.4 428.2 366.667 332.5 394.5 280.5C422.333 228.5 482.6 135.7 583 136.5" stroke="#FF6531" stroke-width="2"/>
<path d="M484.305 196.818V198.523H479.256V196.818H484.305ZM480.412 205V196.227C480.412 195.634 480.527 195.142 480.758 194.751C480.992 194.361 481.312 194.068 481.717 193.873C482.121 193.677 482.581 193.58 483.096 193.58C483.444 193.58 483.762 193.606 484.05 193.659C484.341 193.713 484.558 193.761 484.7 193.803L484.295 195.508C484.206 195.479 484.096 195.453 483.964 195.428C483.837 195.403 483.705 195.391 483.57 195.391C483.237 195.391 483.004 195.469 482.873 195.625C482.741 195.778 482.675 195.993 482.675 196.27V205H480.412ZM486.192 200.627C486.192 199.306 486.368 198.089 486.72 196.978C487.075 195.866 487.616 194.837 488.344 193.888H490.512C490.235 194.24 489.978 194.67 489.74 195.178C489.502 195.682 489.294 196.236 489.117 196.839C488.939 197.443 488.801 198.068 488.701 198.714C488.602 199.357 488.552 199.995 488.552 200.627C488.552 201.468 488.637 202.319 488.808 203.178C488.982 204.034 489.216 204.83 489.511 205.565C489.809 206.3 490.143 206.902 490.512 207.37H488.344C487.616 206.422 487.075 205.392 486.72 204.281C486.368 203.169 486.192 201.951 486.192 200.627ZM493.726 196.818L495.228 199.679L496.767 196.818H499.095L496.725 200.909L499.159 205H496.842L495.228 202.172L493.64 205H491.297L493.726 200.909L491.382 196.818H493.726ZM504.267 200.627C504.267 201.951 504.09 203.169 503.735 204.281C503.383 205.392 502.843 206.422 502.115 207.37H499.947C500.224 207.019 500.482 206.589 500.72 206.081C500.958 205.574 501.165 205.02 501.343 204.419C501.52 203.816 501.659 203.191 501.758 202.544C501.858 201.898 501.907 201.259 501.907 200.627C501.907 199.785 501.82 198.936 501.646 198.081C501.476 197.221 501.242 196.426 500.943 195.694C500.649 194.959 500.317 194.357 499.947 193.888H502.115C502.843 194.837 503.383 195.866 503.735 196.978C504.09 198.089 504.267 199.306 504.267 200.627ZM507.092 199.812V197.921H514.448V199.812H507.092ZM507.092 203.349V201.458H514.448V203.349H507.092ZM520.504 205.16C519.663 205.16 518.938 204.989 518.331 204.648C517.727 204.304 517.262 203.817 516.935 203.189C516.609 202.557 516.445 201.809 516.445 200.946C516.445 200.105 516.609 199.366 516.935 198.73C517.262 198.095 517.722 197.599 518.315 197.244C518.912 196.889 519.611 196.712 520.414 196.712C520.954 196.712 521.456 196.799 521.921 196.973C522.39 197.143 522.798 197.401 523.146 197.745C523.498 198.089 523.771 198.523 523.967 199.045C524.162 199.563 524.26 200.17 524.26 200.866V201.49H517.351V200.083H522.124C522.124 199.757 522.053 199.467 521.911 199.215C521.769 198.963 521.571 198.766 521.319 198.624C521.071 198.478 520.781 198.406 520.451 198.406C520.107 198.406 519.801 198.485 519.535 198.645C519.272 198.801 519.066 199.013 518.917 199.279C518.768 199.542 518.691 199.835 518.688 200.158V201.495C518.688 201.9 518.763 202.25 518.912 202.544C519.064 202.839 519.279 203.066 519.556 203.226C519.833 203.386 520.162 203.466 520.542 203.466C520.794 203.466 521.025 203.43 521.234 203.359C521.444 203.288 521.623 203.182 521.772 203.04C521.921 202.898 522.035 202.724 522.113 202.518L524.212 202.656C524.105 203.161 523.887 203.601 523.557 203.977C523.23 204.35 522.807 204.641 522.289 204.851C521.774 205.057 521.179 205.16 520.504 205.16ZM527.49 196.818L528.992 199.679L530.532 196.818H532.86L530.489 200.909L532.924 205H530.606L528.992 202.172L527.405 205H525.061L527.49 200.909L525.147 196.818H527.49ZM536.496 205.154C535.974 205.154 535.509 205.064 535.101 204.883C534.692 204.698 534.369 204.426 534.131 204.068C533.897 203.706 533.78 203.255 533.78 202.715C533.78 202.26 533.863 201.879 534.03 201.57C534.197 201.261 534.424 201.012 534.712 200.824C535 200.636 535.326 200.494 535.692 200.398C536.061 200.302 536.449 200.234 536.853 200.195C537.329 200.146 537.713 200.099 538.004 200.057C538.295 200.011 538.506 199.943 538.638 199.854C538.769 199.766 538.835 199.634 538.835 199.46V199.428C538.835 199.091 538.728 198.83 538.515 198.645C538.306 198.461 538.007 198.368 537.62 198.368C537.212 198.368 536.887 198.459 536.646 198.64C536.404 198.817 536.244 199.041 536.166 199.311L534.067 199.141C534.174 198.643 534.384 198.214 534.696 197.852C535.009 197.486 535.412 197.205 535.905 197.01C536.402 196.811 536.978 196.712 537.631 196.712C538.086 196.712 538.521 196.765 538.936 196.871C539.355 196.978 539.726 197.143 540.049 197.367C540.376 197.591 540.634 197.878 540.822 198.23C541.01 198.578 541.104 198.995 541.104 199.482V205H538.952V203.865H538.888C538.757 204.121 538.581 204.347 538.361 204.542C538.141 204.734 537.876 204.885 537.567 204.995C537.258 205.101 536.901 205.154 536.496 205.154ZM537.146 203.588C537.48 203.588 537.775 203.523 538.031 203.391C538.286 203.256 538.487 203.075 538.632 202.848C538.778 202.621 538.851 202.363 538.851 202.076V201.207C538.78 201.254 538.682 201.296 538.558 201.335C538.437 201.371 538.3 201.404 538.148 201.436C537.995 201.465 537.842 201.491 537.69 201.516C537.537 201.538 537.398 201.557 537.274 201.575C537.008 201.614 536.775 201.676 536.576 201.761C536.377 201.847 536.223 201.962 536.113 202.108C536.003 202.25 535.948 202.427 535.948 202.64C535.948 202.949 536.06 203.185 536.283 203.349C536.511 203.509 536.798 203.588 537.146 203.588ZM542.865 205V196.818H545.027V198.262H545.123C545.294 197.782 545.578 197.404 545.975 197.127C546.373 196.85 546.849 196.712 547.403 196.712C547.964 196.712 548.442 196.852 548.836 197.132C549.23 197.409 549.493 197.786 549.624 198.262H549.709C549.876 197.793 550.178 197.418 550.615 197.138C551.055 196.854 551.575 196.712 552.176 196.712C552.939 196.712 553.559 196.955 554.035 197.441C554.514 197.924 554.754 198.61 554.754 199.498V205H552.49V199.945C552.49 199.49 552.369 199.15 552.128 198.922C551.886 198.695 551.584 198.581 551.222 198.581C550.81 198.581 550.489 198.713 550.258 198.975C550.027 199.235 549.912 199.577 549.912 200.004V205H547.712V199.897C547.712 199.496 547.596 199.176 547.366 198.938C547.138 198.7 546.838 198.581 546.465 198.581C546.213 198.581 545.986 198.645 545.784 198.773C545.585 198.897 545.427 199.073 545.309 199.3C545.192 199.524 545.134 199.787 545.134 200.089V205H542.865ZM556.546 208.068V196.818H558.783V198.192H558.885C558.984 197.972 559.128 197.749 559.316 197.521C559.508 197.29 559.756 197.099 560.062 196.946C560.371 196.79 560.754 196.712 561.212 196.712C561.809 196.712 562.359 196.868 562.864 197.18C563.368 197.489 563.771 197.956 564.073 198.581C564.375 199.203 564.526 199.982 564.526 200.92C564.526 201.832 564.378 202.603 564.083 203.232C563.792 203.857 563.395 204.331 562.89 204.654C562.39 204.973 561.828 205.133 561.207 205.133C560.767 205.133 560.392 205.06 560.083 204.915C559.778 204.769 559.527 204.586 559.332 204.366C559.137 204.142 558.988 203.917 558.885 203.69H558.815V208.068H556.546ZM558.767 200.909C558.767 201.396 558.835 201.82 558.97 202.182C559.105 202.544 559.3 202.827 559.556 203.029C559.811 203.228 560.122 203.327 560.488 203.327C560.857 203.327 561.17 203.226 561.425 203.024C561.681 202.818 561.875 202.534 562.006 202.172C562.141 201.806 562.208 201.385 562.208 200.909C562.208 200.437 562.143 200.021 562.011 199.663C561.88 199.304 561.686 199.023 561.431 198.821C561.175 198.619 560.861 198.517 560.488 198.517C560.119 198.517 559.806 198.615 559.55 198.81C559.298 199.006 559.105 199.283 558.97 199.641C558.835 200 558.767 200.423 558.767 200.909ZM568.308 194.091V205H566.038V194.091H568.308ZM573.854 205.16C573.012 205.16 572.288 204.989 571.681 204.648C571.077 204.304 570.612 203.817 570.285 203.189C569.958 202.557 569.795 201.809 569.795 200.946C569.795 200.105 569.958 199.366 570.285 198.73C570.612 198.095 571.072 197.599 571.665 197.244C572.261 196.889 572.961 196.712 573.763 196.712C574.303 196.712 574.806 196.799 575.271 196.973C575.74 197.143 576.148 197.401 576.496 197.745C576.848 198.089 577.121 198.523 577.316 199.045C577.512 199.563 577.609 200.17 577.609 200.866V201.49H570.701V200.083H575.473C575.473 199.757 575.402 199.467 575.26 199.215C575.118 198.963 574.921 198.766 574.669 198.624C574.42 198.478 574.131 198.406 573.801 198.406C573.456 198.406 573.151 198.485 572.884 198.645C572.622 198.801 572.416 199.013 572.267 199.279C572.117 199.542 572.041 199.835 572.038 200.158V201.495C572.038 201.9 572.112 202.25 572.261 202.544C572.414 202.839 572.629 203.066 572.906 203.226C573.183 203.386 573.511 203.466 573.891 203.466C574.143 203.466 574.374 203.43 574.584 203.359C574.793 203.288 574.973 203.182 575.122 203.04C575.271 202.898 575.384 202.724 575.463 202.518L577.561 202.656C577.455 203.161 577.236 203.601 576.906 203.977C576.579 204.35 576.157 204.641 575.638 204.851C575.123 205.057 574.529 205.16 573.854 205.16Z" fill="#E5E5E5"/>
<path d="M316.165 376.5C316.165 378.709 314.374 380.5 312.165 380.5C309.956 380.5 308.165 378.709 308.165 376.5C308.165 374.291 309.956 372.5 312.165 372.5C314.374 372.5 316.165 374.291 316.165 376.5Z" fill="#E5E5E5"/>
<path d="M316.165 376.5C316.165 378.709 314.374 380.5 312.165 380.5C309.956 380.5 308.165 378.709 308.165 376.5C308.165 374.291 309.956 372.5 312.165 372.5C314.374 372.5 316.165 374.291 316.165 376.5Z" fill="#E5E5E5"/>
<path d="M316.165 376.5C316.165 378.709 314.374 380.5 312.165 380.5C309.956 380.5 308.165 378.709 308.165 376.5C308.165 374.291 309.956 372.5 312.165 372.5C314.374 372.5 316.165 374.291 316.165 376.5Z" fill="#E5E5E5"/>
<circle cx="345" cy="347" r="4" fill="#E5E5E5"/>
<circle cx="345" cy="347" r="4" fill="#E5E5E5"/>
<circle cx="345" cy="347" r="4" fill="#E5E5E5"/>
</g>
</g>
<rect x="0.5" y="0.5" width="624" height="634" stroke="#18202A"/>
<defs>
<filter id="filter0_d_15_484" x="-3" y="1" width="631" height="36" filterUnits="userSpaceOnUse" color-interpolation-filters="sRGB">
<feFlood flood-opacity="0" result="BackgroundImageFix"/>
<feColorMatrix in="SourceAlpha" type="matrix" values="0 0 0 0 0 0 0 0 0 0 0 0 0 0 0 0 0 0 127 0" result="hardAlpha"/>
<feOffset dy="4"/>
<feGaussianBlur stdDeviation="2"/>
<feComposite in2="hardAlpha" operator="out"/>
<feColorMatrix type="matrix" values="0 0 0 0 0 0 0 0 0 0 0 0 0 0 0 0 0 0 0.25 0"/>
<feBlend mode="normal" in2="BackgroundImageFix" result="effect1_dropShadow_15_484"/>
<feBlend mode="normal" in="SourceGraphic" in2="effect1_dropShadow_15_484" result="shape"/>
</filter>
<clipPath id="clip0_15_484">
<rect width="625" height="635" fill="white"/>
</clipPath>
<clipPath id="clip1_15_484">
<rect width="542" height="517" fill="white" transform="translate(42 87)"/>
</clipPath>
</defs>
</svg>
