<svg width="472" height="635" viewBox="0 0 472 635" fill="none" xmlns="http://www.w3.org/2000/svg">
<g clip-path="url(#clip0_11_357)">
<rect width="472" height="635" fill="#18202A"/>
<g filter="url(#filter0_d_11_357)">
<rect x="1" y="1" width="470" height="28" fill="#2B2B2B"/>
</g>
<circle cx="453" cy="15" r="10" fill="#1F9EDE"/>
<path d="M449 11L457 19M449 19L457 11" stroke="white"/>
<path d="M330.139 608H295.794C286.343 608 278.622 600.131 278.622 590.5V555.5C278.622 545.869 286.343 538 295.794 538H330.139C339.59 538 347.312 545.869 347.312 555.5V590.5C347.197 600.131 339.59 608 330.139 608Z" fill="#FF6531"/>
<g style="mix-blend-mode:color-dodge">
<path d="M177.058 608H142.713C133.262 608 125.541 600.131 125.541 590.5V555.5C125.541 545.869 133.262 538 142.713 538H177.058C186.509 538 194.231 545.869 194.231 555.5V590.5C194.116 600.131 186.509 608 177.058 608Z" fill="#18202A"/>
</g>
<path d="M161.933 581.148C161.506 581.148 161.138 580.997 160.831 580.695C160.524 580.388 160.37 580.018 160.37 579.586C160.37 579.159 160.524 578.794 160.831 578.492C161.138 578.185 161.506 578.031 161.933 578.031C162.36 578.031 162.727 578.185 163.034 578.492C163.342 578.794 163.495 579.159 163.495 579.586C163.495 579.872 163.422 580.135 163.276 580.375C163.136 580.609 162.948 580.797 162.714 580.937C162.48 581.078 162.219 581.148 161.933 581.148Z" fill="white"/>
<g style="mix-blend-mode:color-dodge">
<path d="M100.518 608H66.1726C56.7219 608 49 600.131 49 590.5V555.5C49 545.869 56.7219 538 66.1726 538H100.518C109.968 538 117.69 545.869 117.69 555.5V590.5C117.575 600.131 109.968 608 100.518 608Z" fill="#18202A"/>
</g>
<path d="M83.9326 582.266C82.6983 582.26 81.6436 581.935 80.7686 581.289C79.8936 580.643 79.2243 579.703 78.7608 578.469C78.2972 577.234 78.0655 575.747 78.0655 574.008C78.0655 572.273 78.2972 570.792 78.7608 569.562C79.2295 568.333 79.9014 567.396 80.7764 566.75C81.6566 566.104 82.7087 565.781 83.9326 565.781C85.1566 565.781 86.2061 566.107 87.0811 566.758C87.9561 567.404 88.6254 568.341 89.0889 569.57C89.5576 570.794 89.792 572.273 89.792 574.008C89.792 575.753 89.5603 577.242 89.0967 578.477C88.6332 579.706 87.9639 580.646 87.0889 581.297C86.2139 581.943 85.1618 582.266 83.9326 582.266ZM83.9326 580.18C85.016 580.18 85.8623 579.651 86.4717 578.594C87.0863 577.536 87.3936 576.008 87.3936 574.008C87.3936 572.68 87.253 571.557 86.9717 570.641C86.6957 569.719 86.2972 569.021 85.7764 568.547C85.2608 568.068 84.6462 567.828 83.9326 567.828C82.8545 567.828 82.0082 568.359 81.3936 569.422C80.779 570.484 80.4691 572.013 80.4639 574.008C80.4639 575.341 80.6019 576.469 80.878 577.391C81.1592 578.307 81.5576 579.003 82.0733 579.477C82.5889 579.945 83.2087 580.18 83.9326 580.18Z" fill="white"/>
<path d="M406.68 530H372.335C362.884 530 355.162 522.131 355.162 512.5V477.5C355.162 467.869 362.884 460 372.335 460H406.68C416.13 460 423.852 467.869 423.852 477.5V512.5C423.737 522.131 416.13 530 406.68 530Z" fill="#E5E5E5"/>
<path d="M330.139 530H295.794C286.343 530 278.622 522.131 278.622 512.5V477.5C278.622 467.869 286.343 460 295.794 460H330.139C339.59 460 347.312 467.869 347.312 477.5V512.5C347.197 522.131 339.59 530 330.139 530Z" fill="#E5E5E5"/>
<path d="M312.273 500.984V490.422H314.375V500.984H312.273ZM308.047 496.75V494.648H318.609V496.75H308.047Z" fill="#222222"/>
<g style="mix-blend-mode:color-dodge">
<path d="M253.599 530H219.254C209.803 530 202.081 522.131 202.081 512.5V477.5C202.081 467.869 209.803 460 219.254 460H253.599C263.049 460 270.771 467.869 270.771 477.5V512.5C270.656 522.131 263.049 530 253.599 530Z" fill="#18202A"/>
</g>
<g style="mix-blend-mode:color-dodge">
<path d="M253.599 608H219.254C209.803 608 202.081 600.131 202.081 590.5V555.5C202.081 545.869 209.803 538 219.254 538H253.599C263.049 538 270.771 545.869 270.771 555.5V590.5C270.656 600.131 263.049 608 253.599 608Z" fill="#18202A"/>
</g>
<path d="M239.933 504.219C238.86 504.219 237.901 504.034 237.058 503.664C236.219 503.294 235.555 502.781 235.065 502.125C234.581 501.464 234.321 500.698 234.284 499.828H236.737C236.769 500.302 236.927 500.714 237.214 501.062C237.506 501.406 237.886 501.672 238.355 501.859C238.823 502.047 239.344 502.141 239.917 502.141C240.547 502.141 241.105 502.031 241.589 501.812C242.078 501.594 242.461 501.289 242.737 500.898C243.013 500.503 243.151 500.047 243.151 499.531C243.151 498.995 243.013 498.523 242.737 498.117C242.467 497.706 242.068 497.383 241.542 497.148C241.021 496.914 240.391 496.797 239.651 496.797H238.3V494.828H239.651C240.245 494.828 240.766 494.721 241.214 494.508C241.667 494.294 242.021 493.997 242.276 493.617C242.532 493.232 242.659 492.781 242.659 492.266C242.659 491.771 242.547 491.341 242.323 490.977C242.105 490.607 241.792 490.318 241.386 490.109C240.985 489.901 240.511 489.797 239.964 489.797C239.443 489.797 238.956 489.893 238.503 490.086C238.055 490.273 237.69 490.544 237.409 490.898C237.128 491.247 236.977 491.667 236.956 492.156H234.62C234.646 491.292 234.901 490.531 235.386 489.875C235.875 489.219 236.521 488.706 237.323 488.336C238.125 487.966 239.016 487.781 239.995 487.781C241.021 487.781 241.907 487.982 242.651 488.383C243.401 488.779 243.98 489.307 244.386 489.969C244.797 490.63 245 491.354 244.995 492.141C245 493.036 244.75 493.797 244.245 494.422C243.745 495.047 243.078 495.466 242.245 495.68V495.805C243.308 495.966 244.131 496.388 244.714 497.07C245.302 497.753 245.594 498.599 245.589 499.609C245.594 500.49 245.349 501.279 244.855 501.977C244.365 502.674 243.696 503.224 242.847 503.625C241.998 504.021 241.026 504.219 239.933 504.219Z" fill="white"/>
<g style="mix-blend-mode:color-dodge">
<path d="M177.058 530H142.713C133.262 530 125.541 522.131 125.541 512.5V477.5C125.541 467.869 133.262 460 142.713 460H177.058C186.509 460 194.231 467.869 194.231 477.5V512.5C194.116 522.131 186.509 530 177.058 530Z" fill="#18202A"/>
</g>
<path d="M157.362 504V502.25L162.776 496.641C163.355 496.031 163.831 495.497 164.206 495.039C164.586 494.576 164.87 494.135 165.058 493.719C165.245 493.302 165.339 492.859 165.339 492.391C165.339 491.859 165.214 491.401 164.964 491.016C164.714 490.625 164.373 490.326 163.94 490.117C163.508 489.904 163.021 489.797 162.48 489.797C161.907 489.797 161.407 489.914 160.98 490.148C160.552 490.383 160.224 490.714 159.995 491.141C159.766 491.568 159.651 492.068 159.651 492.641H157.347C157.347 491.667 157.571 490.815 158.019 490.086C158.467 489.357 159.081 488.792 159.862 488.391C160.644 487.984 161.532 487.781 162.526 487.781C163.532 487.781 164.417 487.982 165.183 488.383C165.953 488.779 166.555 489.32 166.987 490.008C167.42 490.69 167.636 491.461 167.636 492.32C167.636 492.914 167.524 493.495 167.3 494.062C167.081 494.63 166.698 495.263 166.151 495.961C165.605 496.654 164.844 497.495 163.87 498.484L160.69 501.812V501.93H167.894V504H157.362Z" fill="white"/>
<g style="mix-blend-mode:color-dodge">
<path d="M100.518 530H66.1726C56.7219 530 49 522.131 49 512.5V477.5C49 467.869 56.7219 460 66.1726 460H100.518C109.968 460 117.69 467.869 117.69 477.5V512.5C117.575 522.131 109.968 530 100.518 530Z" fill="#18202A"/>
</g>
<path d="M86.4326 488V504H84.0108V490.422H83.917L80.0889 492.922V490.609L84.0811 488H86.4326Z" fill="white"/>
<g style="mix-blend-mode:overlay">
<path d="M27.2308 63H14.9647C11.5894 63 8.8316 60.1896 8.8316 56.75V44.25C8.8316 40.8104 11.5894 38 14.9647 38H27.2308C30.606 38 33.3638 40.8104 33.3638 44.25V56.75C33.3227 60.1896 30.606 63 27.2308 63Z" fill="#E5E5E5"/>
</g>
<path d="M268.628 63H256.362C252.986 63 250.229 60.1896 250.229 56.75V44.25C250.229 40.8104 252.986 38 256.362 38H268.628C272.003 38 274.761 40.8104 274.761 44.25V56.75C274.72 60.1896 272.003 63 268.628 63Z" fill="#2B394B"/>
<path d="M204.844 63H192.578C189.203 63 186.445 60.1896 186.445 56.75V44.25C186.445 40.8104 189.203 38 192.578 38H204.844C208.219 38 210.977 40.8104 210.977 44.25V56.75C210.936 60.1896 208.219 63 204.844 63Z" fill="#2B394B"/>
<path d="M252.682 63H208.524C196.373 63 186.445 60.1896 186.445 56.75V44.25C186.445 40.8104 196.373 38 208.524 38H252.682C264.833 38 274.761 40.8104 274.761 44.25V56.75C274.613 60.1896 264.833 63 252.682 63Z" fill="#2B394B"/>
<path d="M268.183 90H255.917C252.542 90 249.784 87.1896 249.784 83.75V71.25C249.784 67.8104 252.542 65 255.917 65H268.183C271.558 65 274.316 67.8104 274.316 71.25V83.75C274.275 87.1896 271.558 90 268.183 90Z" fill="#2B394B"/>
<path d="M228.399 90H216.133C212.758 90 210 87.1896 210 83.75V71.25C210 67.8104 212.758 65 216.133 65H228.399C231.774 65 234.532 67.8104 234.532 71.25V83.75C234.491 87.1896 231.774 90 228.399 90Z" fill="#2B394B"/>
<path d="M258 90H226C217.195 90 210 87.1896 210 83.75V71.25C210 67.8104 217.195 65 226 65H258C266.805 65 274 67.8104 274 71.25V83.75C273.893 87.1896 266.805 90 258 90Z" fill="#2B394B"/>
<path d="M268.183 117H255.917C252.542 117 249.784 114.19 249.784 110.75V98.25C249.784 94.8104 252.542 92 255.917 92H268.183C271.558 92 274.316 94.8104 274.316 98.25V110.75C274.275 114.19 271.558 117 268.183 117Z" fill="#2B394B"/>
<path d="M228.399 117H216.133C212.758 117 210 114.19 210 110.75V98.25C210 94.8104 212.758 92 216.133 92H228.399C231.774 92 234.532 94.8104 234.532 98.25V110.75C234.491 114.19 231.774 117 228.399 117Z" fill="#2B394B"/>
<path d="M258 117H226C217.195 117 210 114.19 210 110.75V98.25C210 94.8104 217.195 92 226 92H258C266.805 92 274 94.8104 274 98.25V110.75C273.893 114.19 266.805 117 258 117Z" fill="#2B394B"/>
<path d="M330.139 296H295.794C286.343 296 278.622 288.131 278.622 278.5V243.5C278.622 233.869 286.343 226 295.794 226H330.139C339.59 226 347.312 233.869 347.312 243.5V278.5C347.197 288.131 339.59 296 330.139 296Z" fill="#E5E5E5"/>
<path d="M406.68 452H372.335C362.884 452 355.162 444.131 355.162 434.5V399.5C355.162 389.869 362.884 382 372.335 382H406.68C416.13 382 423.852 389.869 423.852 399.5V434.5C423.737 444.131 416.13 452 406.68 452Z" fill="#E5E5E5"/>
<path d="M330.139 452H295.794C286.343 452 278.622 444.131 278.622 434.5V399.5C278.622 389.869 286.343 382 295.794 382H330.139C339.59 382 347.312 389.869 347.312 399.5V434.5C347.197 444.131 339.59 452 330.139 452Z" fill="#E5E5E5"/>
<g style="mix-blend-mode:color-dodge">
<path d="M253.599 452H219.254C209.803 452 202.081 444.131 202.081 434.5V399.5C202.081 389.869 209.803 382 219.254 382H253.599C263.049 382 270.771 389.869 270.771 399.5V434.5C270.656 444.131 263.049 452 253.599 452Z" fill="#18202A"/>
</g>
<path d="M239.125 426.219C238.411 426.208 237.708 426.078 237.016 425.828C236.328 425.578 235.703 425.161 235.141 424.578C234.578 423.995 234.128 423.211 233.789 422.227C233.456 421.242 233.289 420.013 233.289 418.539C233.289 417.143 233.427 415.904 233.703 414.82C233.984 413.737 234.388 412.823 234.914 412.078C235.44 411.328 236.076 410.758 236.82 410.367C237.565 409.977 238.401 409.781 239.328 409.781C240.281 409.781 241.128 409.969 241.867 410.344C242.607 410.719 243.206 411.237 243.664 411.898C244.128 412.56 244.422 413.312 244.547 414.156H242.164C242.003 413.49 241.682 412.945 241.203 412.523C240.724 412.102 240.099 411.891 239.328 411.891C238.156 411.891 237.242 412.401 236.586 413.422C235.935 414.443 235.607 415.862 235.602 417.68H235.719C235.995 417.227 236.333 416.841 236.734 416.523C237.141 416.201 237.594 415.953 238.094 415.781C238.599 415.604 239.13 415.516 239.688 415.516C240.615 415.516 241.453 415.742 242.203 416.195C242.958 416.643 243.56 417.263 244.008 418.055C244.456 418.846 244.68 419.753 244.68 420.773C244.68 421.794 244.448 422.719 243.984 423.547C243.526 424.375 242.88 425.031 242.047 425.516C241.214 425.995 240.24 426.229 239.125 426.219ZM239.117 424.187C239.732 424.187 240.281 424.036 240.766 423.734C241.25 423.432 241.633 423.026 241.914 422.516C242.195 422.005 242.336 421.435 242.336 420.805C242.336 420.19 242.198 419.63 241.922 419.125C241.651 418.62 241.276 418.219 240.797 417.922C240.323 417.625 239.781 417.477 239.172 417.477C238.708 417.477 238.279 417.565 237.883 417.742C237.492 417.919 237.148 418.164 236.852 418.477C236.555 418.789 236.32 419.148 236.148 419.555C235.982 419.956 235.898 420.38 235.898 420.828C235.898 421.427 236.036 421.982 236.313 422.492C236.594 423.003 236.977 423.414 237.461 423.727C237.951 424.034 238.503 424.187 239.117 424.187Z" fill="white"/>
<g style="mix-blend-mode:color-dodge">
<path d="M177.058 452H142.713C133.262 452 125.541 444.131 125.541 434.5V399.5C125.541 389.869 133.262 382 142.713 382H177.058C186.509 382 194.231 389.869 194.231 399.5V434.5C194.116 444.131 186.509 452 177.058 452Z" fill="#18202A"/>
</g>
<path d="M159.82 426.219C158.841 426.219 157.961 426.031 157.18 425.656C156.404 425.276 155.784 424.755 155.32 424.094C154.857 423.432 154.609 422.677 154.578 421.828H156.922C156.979 422.516 157.284 423.081 157.836 423.523C158.388 423.966 159.049 424.187 159.82 424.187C160.435 424.187 160.979 424.047 161.453 423.766C161.932 423.479 162.307 423.086 162.578 422.586C162.854 422.086 162.992 421.516 162.992 420.875C162.992 420.224 162.852 419.643 162.57 419.133C162.289 418.622 161.901 418.221 161.406 417.93C160.917 417.638 160.354 417.49 159.719 417.484C159.234 417.484 158.747 417.568 158.258 417.734C157.768 417.901 157.372 418.12 157.07 418.391L154.859 418.062L155.758 410H164.555V412.07H157.766L157.258 416.547H157.352C157.664 416.245 158.078 415.992 158.594 415.789C159.115 415.586 159.672 415.484 160.266 415.484C161.24 415.484 162.107 415.716 162.867 416.18C163.633 416.643 164.234 417.276 164.672 418.078C165.115 418.875 165.333 419.792 165.328 420.828C165.333 421.865 165.099 422.789 164.625 423.602C164.156 424.414 163.505 425.055 162.672 425.523C161.844 425.987 160.893 426.219 159.82 426.219Z" fill="white"/>
<g style="mix-blend-mode:color-dodge">
<path d="M100.518 452H66.1726C56.7219 452 49 444.131 49 434.5V399.5C49 389.869 56.7219 382 66.1726 382H100.518C109.968 382 117.69 389.869 117.69 399.5V434.5C117.575 444.131 109.968 452 100.518 452Z" fill="#18202A"/>
</g>
<path d="M76.2031 422.875V420.922L83.1172 410H84.6563V412.875H83.6797L78.7344 420.703V420.828H88.2109V422.875H76.2031ZM83.7891 426V422.281L83.8047 421.391V410H86.0938V426H83.7891Z" fill="white"/>
<path d="M406.68 296H372.335C362.884 296 355.162 288.131 355.162 278.5V243.5C355.162 233.869 362.884 226 372.335 226H406.68C416.13 226 423.852 233.869 423.852 243.5V278.5C423.737 288.131 416.13 296 406.68 296Z" fill="#E5E5E5"/>
<path d="M385.414 255L388.063 259.672L390.734 255H393.289L389.547 261L393.32 267H390.766L388.063 262.516L385.367 267H382.805L386.539 261L382.852 255H385.414ZM398.633 251L398.43 262.398H396.266L396.063 251H398.633ZM397.352 267.148C396.919 267.148 396.549 266.997 396.242 266.695C395.935 266.388 395.784 266.018 395.789 265.586C395.784 265.159 395.935 264.794 396.242 264.492C396.549 264.185 396.919 264.031 397.352 264.031C397.773 264.031 398.138 264.185 398.445 264.492C398.753 264.794 398.909 265.159 398.914 265.586C398.909 265.872 398.833 266.135 398.688 266.375C398.547 266.609 398.359 266.797 398.125 266.937C397.891 267.078 397.633 267.148 397.352 267.148Z" fill="#222222"/>
<path d="M406.68 374H372.335C362.884 374 355.162 366.131 355.162 356.5V321.5C355.162 311.869 362.884 304 372.335 304H406.68C416.13 304 423.852 311.869 423.852 321.5V356.5C423.737 366.131 416.13 374 406.68 374Z" fill="#E5E5E5"/>
<path d="M385.414 335L388.063 339.672L390.734 335H393.289L389.547 341L393.32 347H390.766L388.063 342.516L385.367 347H382.805L386.539 341L382.852 335H385.414Z" fill="#222222"/>
<path d="M396.953 330.437V334H395.785V328H396.906V328.977H396.98C397.118 328.659 397.335 328.404 397.629 328.211C397.926 328.018 398.299 327.922 398.75 327.922C399.159 327.922 399.517 328.008 399.824 328.18C400.132 328.349 400.37 328.602 400.539 328.937C400.708 329.273 400.793 329.689 400.793 330.184V334H399.625V330.324C399.625 329.889 399.512 329.549 399.285 329.305C399.059 329.057 398.747 328.934 398.352 328.934C398.081 328.934 397.84 328.992 397.629 329.109C397.421 329.227 397.255 329.398 397.133 329.625C397.013 329.849 396.953 330.12 396.953 330.437Z" fill="#222222"/>
<path d="M330.139 374H295.794C286.343 374 278.622 366.131 278.622 356.5V321.5C278.622 311.869 286.343 304 295.794 304H330.139C339.59 304 347.312 311.869 347.312 321.5V356.5C347.197 366.131 339.59 374 330.139 374Z" fill="#E5E5E5"/>
<path d="M308.406 344.453L312.961 331H315.289L309.703 347H308.07L308.406 344.453ZM306.859 338.656L308.898 344.516L309.258 347H307.695L304.477 338.656H306.859ZM303.039 340.68V338.656H306.75V340.68H303.039Z" fill="#222222"/>
<path d="M314 331.5L314.5 330H329.5" stroke="#222222" stroke-width="2"/>
<path d="M297.953 334.437V338H296.785V332H297.906V332.977H297.98C298.118 332.659 298.335 332.404 298.629 332.211C298.926 332.018 299.299 331.922 299.75 331.922C300.159 331.922 300.517 332.008 300.824 332.18C301.132 332.349 301.37 332.602 301.539 332.937C301.708 333.273 301.793 333.689 301.793 334.184V338H300.625V334.324C300.625 333.889 300.512 333.549 300.285 333.305C300.059 333.057 299.747 332.934 299.352 332.934C299.081 332.934 298.84 332.992 298.629 333.109C298.421 333.227 298.255 333.398 298.133 333.625C298.013 333.849 297.953 334.12 297.953 334.437Z" fill="#222222"/>
<path d="M319.414 335L322.063 339.672L324.734 335H327.289L323.547 341L327.32 347H324.766L322.063 342.516L319.367 347H316.805L320.539 341L316.852 335H319.414Z" fill="#222222"/>
<g style="mix-blend-mode:color-dodge">
<path d="M253.599 374H219.254C209.803 374 202.081 366.131 202.081 356.5V321.5C202.081 311.869 209.803 304 219.254 304H253.599C263.049 304 270.771 311.869 270.771 321.5V356.5C270.656 366.131 263.049 374 253.599 374Z" fill="#18202A"/>
</g>
<path d="M236.859 330.781C237.573 330.786 238.276 330.917 238.969 331.172C239.661 331.427 240.286 331.844 240.844 332.422C241.406 333 241.854 333.781 242.188 334.766C242.526 335.745 242.698 336.964 242.703 338.422C242.703 339.823 242.563 341.07 242.281 342.164C242 343.253 241.596 344.172 241.07 344.922C240.549 345.672 239.917 346.242 239.172 346.633C238.427 347.023 237.589 347.219 236.656 347.219C235.703 347.219 234.857 347.031 234.117 346.656C233.378 346.281 232.776 345.763 232.313 345.102C231.849 344.435 231.56 343.669 231.445 342.805H233.828C233.984 343.492 234.302 344.049 234.781 344.477C235.266 344.898 235.891 345.109 236.656 345.109C237.828 345.109 238.742 344.599 239.398 343.578C240.055 342.552 240.385 341.12 240.391 339.281H240.266C239.995 339.729 239.656 340.115 239.25 340.437C238.849 340.76 238.398 341.01 237.898 341.187C237.398 341.365 236.865 341.453 236.297 341.453C235.375 341.453 234.536 341.227 233.781 340.773C233.026 340.32 232.424 339.698 231.977 338.906C231.529 338.115 231.305 337.211 231.305 336.195C231.305 335.185 231.534 334.268 231.992 333.445C232.456 332.622 233.102 331.971 233.93 331.492C234.763 331.008 235.74 330.771 236.859 330.781ZM236.867 332.812C236.258 332.812 235.708 332.964 235.219 333.266C234.734 333.562 234.352 333.966 234.07 334.477C233.789 334.982 233.648 335.544 233.648 336.164C233.648 336.784 233.784 337.346 234.055 337.852C234.331 338.352 234.706 338.75 235.18 339.047C235.659 339.339 236.206 339.484 236.82 339.484C237.279 339.484 237.706 339.396 238.102 339.219C238.497 339.042 238.844 338.797 239.141 338.484C239.438 338.167 239.669 337.807 239.836 337.406C240.003 337.005 240.086 336.583 240.086 336.141C240.086 335.552 239.945 335.005 239.664 334.5C239.388 333.995 239.008 333.589 238.523 333.281C238.039 332.969 237.487 332.812 236.867 332.812Z" fill="white"/>
<g style="mix-blend-mode:color-dodge">
<path d="M177.058 374H142.713C133.262 374 125.541 366.131 125.541 356.5V321.5C125.541 311.869 133.262 304 142.713 304H177.058C186.509 304 194.231 311.869 194.231 321.5V356.5C194.116 366.131 186.509 374 177.058 374Z" fill="#18202A"/>
</g>
<path d="M159.945 347.219C158.826 347.219 157.836 347.026 156.977 346.641C156.122 346.255 155.453 345.724 154.969 345.047C154.484 344.37 154.245 343.599 154.25 342.734C154.245 342.057 154.383 341.435 154.664 340.867C154.951 340.294 155.339 339.818 155.828 339.438C156.318 339.052 156.865 338.807 157.469 338.703V338.609C156.672 338.417 156.034 337.99 155.555 337.328C155.076 336.667 154.839 335.906 154.844 335.047C154.839 334.229 155.055 333.5 155.492 332.859C155.935 332.214 156.542 331.706 157.313 331.336C158.083 330.966 158.961 330.781 159.945 330.781C160.919 330.781 161.789 330.969 162.555 331.344C163.326 331.714 163.932 332.221 164.375 332.867C164.818 333.508 165.042 334.234 165.047 335.047C165.042 335.906 164.797 336.667 164.313 337.328C163.828 337.99 163.198 338.417 162.422 338.609V338.703C163.021 338.807 163.56 339.052 164.039 339.438C164.523 339.818 164.909 340.294 165.195 340.867C165.487 341.435 165.635 342.057 165.641 342.734C165.635 343.599 165.391 344.37 164.906 345.047C164.422 345.724 163.75 346.255 162.891 346.641C162.036 347.026 161.055 347.219 159.945 347.219ZM159.945 345.242C160.607 345.242 161.18 345.133 161.664 344.914C162.148 344.69 162.523 344.38 162.789 343.984C163.055 343.583 163.19 343.115 163.195 342.578C163.19 342.021 163.044 341.529 162.758 341.102C162.477 340.674 162.094 340.339 161.609 340.094C161.125 339.849 160.57 339.727 159.945 339.727C159.315 339.727 158.755 339.849 158.266 340.094C157.776 340.339 157.391 340.674 157.109 341.102C156.828 341.529 156.69 342.021 156.695 342.578C156.69 343.115 156.818 343.583 157.078 343.984C157.344 344.38 157.721 344.69 158.211 344.914C158.701 345.133 159.279 345.242 159.945 345.242ZM159.945 337.797C160.477 337.797 160.948 337.69 161.359 337.477C161.771 337.263 162.094 336.966 162.328 336.586C162.568 336.206 162.69 335.76 162.695 335.25C162.69 334.75 162.57 334.313 162.336 333.938C162.107 333.562 161.786 333.273 161.375 333.07C160.964 332.862 160.487 332.758 159.945 332.758C159.393 332.758 158.909 332.862 158.492 333.07C158.081 333.273 157.76 333.562 157.531 333.938C157.302 334.313 157.19 334.75 157.195 335.25C157.19 335.76 157.305 336.206 157.539 336.586C157.773 336.966 158.096 337.263 158.508 337.477C158.924 337.69 159.404 337.797 159.945 337.797Z" fill="white"/>
<g style="mix-blend-mode:color-dodge">
<path d="M100.518 374H66.1726C56.7219 374 49 366.131 49 356.5V321.5C49 311.869 56.7219 304 66.1726 304H100.518C109.968 304 117.69 311.869 117.69 321.5V356.5C117.575 366.131 109.968 374 100.518 374Z" fill="#18202A"/>
</g>
<path d="M79.9014 348L86.8858 334.187V334.07H78.8076V332H89.3858V334.141L82.4248 348H79.9014Z" fill="white"/>
<g style="mix-blend-mode:color-dodge">
<path d="M253.599 296H219.254C209.803 296 202.081 288.131 202.081 278.5V243.5C202.081 233.869 209.803 226 219.254 226H253.599C263.049 226 270.771 233.869 270.771 243.5V278.5C270.656 288.131 263.049 296 253.599 296Z" fill="#18202A"/>
</g>
<path d="M241.063 262.359C241.063 264.323 240.805 266.128 240.289 267.773C239.773 269.419 239.021 270.938 238.031 272.328H235.891C236.276 271.813 236.635 271.18 236.969 270.43C237.302 269.68 237.594 268.859 237.844 267.969C238.094 267.073 238.289 266.146 238.43 265.188C238.57 264.229 238.641 263.286 238.641 262.359C238.641 261.125 238.518 259.872 238.273 258.602C238.029 257.331 237.698 256.151 237.281 255.062C236.865 253.974 236.401 253.086 235.891 252.398H238.031C239.021 253.789 239.773 255.307 240.289 256.953C240.805 258.599 241.063 260.401 241.063 262.359Z" fill="white"/>
<g style="mix-blend-mode:color-dodge">
<path d="M177.058 296H142.713C133.262 296 125.541 288.131 125.541 278.5V243.5C125.541 233.869 133.262 226 142.713 226H177.058C186.509 226 194.231 233.869 194.231 243.5V278.5C194.116 288.131 186.509 296 177.058 296Z" fill="#18202A"/>
</g>
<path d="M159.073 262.359C159.073 260.401 159.331 258.599 159.847 256.953C160.362 255.307 161.115 253.789 162.105 252.398H164.245C163.86 252.914 163.5 253.547 163.167 254.297C162.834 255.047 162.542 255.87 162.292 256.766C162.042 257.656 161.847 258.581 161.706 259.539C161.565 260.492 161.495 261.432 161.495 262.359C161.495 263.599 161.618 264.854 161.862 266.125C162.107 267.396 162.438 268.576 162.855 269.664C163.271 270.753 163.735 271.641 164.245 272.328H162.105C161.115 270.938 160.362 269.419 159.847 267.773C159.331 266.128 159.073 264.323 159.073 262.359Z" fill="white"/>
<g style="mix-blend-mode:color-dodge">
<path d="M100.518 296H66.1726C56.7219 296 49 288.131 49 278.5V243.5C49 233.869 56.7219 226 66.1726 226H100.518C109.968 226 117.69 233.869 117.69 243.5V278.5C117.575 288.131 109.968 296 100.518 296Z" fill="#18202A"/>
</g>
<path d="M90.8701 258.203H88.4326C88.3389 257.682 88.1644 257.224 87.9092 256.828C87.654 256.432 87.3415 256.096 86.9717 255.82C86.6019 255.544 86.1879 255.336 85.7295 255.195C85.2764 255.055 84.7946 254.984 84.2842 254.984C83.3623 254.984 82.5368 255.216 81.8076 255.68C81.0837 256.143 80.5108 256.823 80.0889 257.719C79.6722 258.615 79.4639 259.708 79.4639 261C79.4639 262.302 79.6722 263.401 80.0889 264.297C80.5108 265.193 81.0863 265.87 81.8155 266.328C82.5446 266.786 83.3649 267.016 84.2764 267.016C84.7816 267.016 85.2608 266.948 85.7139 266.812C86.1722 266.672 86.5863 266.466 86.9561 266.195C87.3259 265.924 87.6384 265.594 87.8936 265.203C88.154 264.807 88.3337 264.354 88.4326 263.844L90.8701 263.852C90.7399 264.638 90.4873 265.362 90.1123 266.023C89.7425 266.68 89.266 267.247 88.6826 267.727C88.1045 268.201 87.4431 268.568 86.6983 268.828C85.9535 269.089 85.141 269.219 84.2608 269.219C82.8754 269.219 81.641 268.891 80.5576 268.234C79.4743 267.573 78.6201 266.628 77.9951 265.398C77.3754 264.169 77.0655 262.703 77.0655 261C77.0655 259.292 77.378 257.826 78.003 256.602C78.628 255.372 79.4821 254.43 80.5655 253.773C81.6488 253.112 82.8806 252.781 84.2608 252.781C85.1097 252.781 85.9014 252.904 86.6358 253.148C87.3754 253.388 88.0394 253.742 88.628 254.211C89.2165 254.674 89.7035 255.242 90.0889 255.914C90.4743 256.581 90.7347 257.344 90.8701 258.203Z" fill="white"/>
<path d="M398.158 177.604C395.352 177.592 392.955 176.852 390.967 175.384C388.978 173.916 387.457 171.78 386.403 168.974C385.35 166.169 384.823 162.79 384.823 158.836C384.823 154.894 385.35 151.527 386.403 148.733C387.469 145.939 388.996 143.809 390.984 142.341C392.985 140.873 395.376 140.139 398.158 140.139C400.939 140.139 403.325 140.879 405.313 142.359C407.302 143.826 408.823 145.957 409.876 148.751C410.942 151.532 411.474 154.894 411.474 158.836C411.474 162.801 410.948 166.187 409.894 168.992C408.841 171.786 407.32 173.922 405.331 175.402C403.342 176.87 400.951 177.604 398.158 177.604ZM398.158 172.863C400.62 172.863 402.543 171.661 403.928 169.259C405.325 166.856 406.023 163.381 406.023 158.836C406.023 155.817 405.704 153.267 405.065 151.183C404.437 149.088 403.532 147.502 402.348 146.425C401.176 145.336 399.779 144.791 398.158 144.791C395.707 144.791 393.784 145.999 392.387 148.413C390.99 150.828 390.286 154.302 390.274 158.836C390.274 161.866 390.588 164.429 391.215 166.524C391.854 168.607 392.76 170.188 393.932 171.265C395.104 172.33 396.512 172.863 398.158 172.863Z" fill="white"/>
<path d="M317.078 422.93L308.094 413.953L309.57 412.469L318.555 421.453L317.078 422.93ZM309.57 422.93L308.094 421.453L317.078 412.469L318.555 413.953L309.57 422.93Z" fill="#222222"/>
<path d="M314.891 266V265.156C314.891 264.552 315.016 264 315.266 263.5C315.521 262.995 315.891 262.591 316.375 262.289C316.865 261.982 317.456 261.828 318.148 261.828C318.857 261.828 319.451 261.979 319.93 262.281C320.409 262.583 320.771 262.987 321.016 263.492C321.266 263.997 321.391 264.552 321.391 265.156V266C321.391 266.604 321.266 267.159 321.016 267.664C320.766 268.164 320.398 268.568 319.914 268.875C319.435 269.177 318.846 269.328 318.148 269.328C317.445 269.328 316.852 269.177 316.367 268.875C315.883 268.568 315.516 268.164 315.266 267.664C315.016 267.159 314.891 266.604 314.891 266ZM316.711 265.156V266C316.711 266.448 316.818 266.854 317.031 267.219C317.245 267.583 317.617 267.766 318.148 267.766C318.674 267.766 319.042 267.583 319.25 267.219C319.458 266.854 319.562 266.448 319.562 266V265.156C319.562 264.708 319.461 264.302 319.258 263.937C319.06 263.573 318.69 263.391 318.148 263.391C317.628 263.391 317.258 263.573 317.039 263.937C316.82 264.302 316.711 264.708 316.711 265.156ZM306.844 256.844V256C306.844 255.396 306.969 254.841 307.219 254.336C307.474 253.831 307.844 253.427 308.328 253.125C308.818 252.823 309.409 252.672 310.102 252.672C310.81 252.672 311.404 252.823 311.883 253.125C312.362 253.427 312.724 253.831 312.969 254.336C313.214 254.841 313.336 255.396 313.336 256V256.844C313.336 257.448 313.211 258.003 312.961 258.508C312.716 259.008 312.352 259.411 311.867 259.719C311.388 260.021 310.799 260.172 310.102 260.172C309.393 260.172 308.797 260.021 308.313 259.719C307.833 259.411 307.469 259.008 307.219 258.508C306.969 258.003 306.844 257.448 306.844 256.844ZM308.672 256V256.844C308.672 257.292 308.776 257.698 308.984 258.062C309.198 258.427 309.57 258.609 310.102 258.609C310.622 258.609 310.987 258.427 311.195 258.062C311.409 257.698 311.516 257.292 311.516 256.844V256C311.516 255.552 311.414 255.146 311.211 254.781C311.008 254.417 310.638 254.234 310.102 254.234C309.581 254.234 309.211 254.417 308.992 254.781C308.779 255.146 308.672 255.552 308.672 256ZM307.586 269L318.586 253H320.453L309.453 269H307.586Z" fill="#222222"/>
<path d="M396.484 416.672V418.727H386.172V416.672H396.484ZM391.328 423.398C390.891 423.398 390.518 423.247 390.211 422.945C389.909 422.638 389.758 422.266 389.758 421.828C389.758 421.411 389.909 421.052 390.211 420.75C390.518 420.448 390.891 420.297 391.328 420.297C391.745 420.297 392.104 420.448 392.406 420.75C392.708 421.052 392.859 421.411 392.859 421.828C392.859 422.266 392.708 422.638 392.406 422.945C392.104 423.247 391.745 423.398 391.328 423.398ZM391.328 415.109C391.036 415.109 390.771 415.039 390.531 414.898C390.297 414.758 390.109 414.568 389.969 414.328C389.828 414.089 389.758 413.826 389.758 413.539C389.758 413.117 389.909 412.755 390.211 412.453C390.518 412.151 390.891 412 391.328 412C391.75 412 392.109 412.151 392.406 412.453C392.708 412.755 392.859 413.117 392.859 413.539C392.859 413.971 392.708 414.341 392.406 414.648C392.109 414.956 391.75 415.109 391.328 415.109Z" fill="#222222"/>
<path d="M395.641 494.227V496.25H388.547V494.227H395.641Z" fill="#222222"/>
<path d="M313.144 573.32V571.266H323.151V573.32H313.144ZM313.144 578.133V576.078H323.151V578.133H313.144Z" fill="white"/>
<path d="M219.369 53.1165L219.374 50.9389H219.638L221.734 48.4545H223.818L221.001 51.7443H220.571L219.369 53.1165ZM217.724 55V46.2727H219.54V55H217.724ZM221.815 55L219.889 52.1491L221.099 50.8665L223.942 55H221.815ZM226.524 46.2727V55H224.709V46.2727H226.524ZM229.845 55.1236C229.427 55.1236 229.055 55.0511 228.728 54.9062C228.402 54.7585 228.143 54.5412 227.953 54.2543C227.765 53.9645 227.672 53.6037 227.672 53.1719C227.672 52.8082 227.738 52.5028 227.872 52.2557C228.005 52.0085 228.187 51.8097 228.417 51.6591C228.647 51.5085 228.909 51.3949 229.201 51.3182C229.497 51.2415 229.806 51.1875 230.13 51.1562C230.511 51.1165 230.818 51.0795 231.051 51.0455C231.284 51.0085 231.453 50.9545 231.558 50.8835C231.663 50.8125 231.716 50.7074 231.716 50.5682V50.5426C231.716 50.2727 231.63 50.0639 231.46 49.9162C231.292 49.7685 231.054 49.6946 230.744 49.6946C230.417 49.6946 230.157 49.767 229.964 49.9119C229.771 50.054 229.643 50.233 229.581 50.4489L227.902 50.3125C227.987 49.9148 228.154 49.571 228.404 49.2812C228.654 48.9886 228.977 48.7642 229.372 48.608C229.77 48.4489 230.23 48.3693 230.752 48.3693C231.116 48.3693 231.464 48.4119 231.797 48.4972C232.132 48.5824 232.429 48.7145 232.687 48.8935C232.949 49.0724 233.154 49.3026 233.305 49.5838C233.456 49.8622 233.531 50.196 233.531 50.5852V55H231.809V54.0923H231.758C231.653 54.2969 231.512 54.4773 231.336 54.6335C231.16 54.7869 230.949 54.9077 230.701 54.9957C230.454 55.081 230.169 55.1236 229.845 55.1236ZM230.365 53.8707C230.632 53.8707 230.868 53.8182 231.072 53.7131C231.277 53.6051 231.437 53.4602 231.554 53.2784C231.67 53.0966 231.728 52.8906 231.728 52.6605V51.9659C231.672 52.0028 231.593 52.0369 231.494 52.0682C231.397 52.0966 231.288 52.1236 231.166 52.1491C231.044 52.1719 230.922 52.1932 230.799 52.2131C230.677 52.2301 230.566 52.2457 230.467 52.2599C230.254 52.2912 230.068 52.3409 229.909 52.4091C229.75 52.4773 229.626 52.5696 229.538 52.6861C229.45 52.7997 229.406 52.9418 229.406 53.1122C229.406 53.3594 229.495 53.5483 229.674 53.679C229.856 53.8068 230.086 53.8707 230.365 53.8707ZM240.385 50.321L238.723 50.4233C238.695 50.2812 238.634 50.1534 238.54 50.0398C238.446 49.9233 238.323 49.831 238.169 49.7628C238.019 49.6918 237.838 49.6562 237.628 49.6562C237.347 49.6562 237.11 49.7159 236.917 49.8352C236.723 49.9517 236.627 50.108 236.627 50.304C236.627 50.4602 236.689 50.5923 236.814 50.7003C236.939 50.8082 237.154 50.8949 237.458 50.9602L238.642 51.1989C239.279 51.3295 239.753 51.5398 240.066 51.8295C240.378 52.1193 240.534 52.5 240.534 52.9716C240.534 53.4006 240.408 53.777 240.155 54.1009C239.905 54.4247 239.561 54.6776 239.124 54.8594C238.689 55.0384 238.188 55.1278 237.62 55.1278C236.753 55.1278 236.063 54.9474 235.549 54.5866C235.037 54.223 234.738 53.7287 234.65 53.1037L236.435 53.0099C236.489 53.2741 236.62 53.4759 236.827 53.6151C237.034 53.7514 237.3 53.8196 237.624 53.8196C237.942 53.8196 238.198 53.7585 238.391 53.6364C238.587 53.5114 238.686 53.3509 238.689 53.1548C238.686 52.9901 238.617 52.8551 238.48 52.75C238.344 52.642 238.134 52.5597 237.85 52.5028L236.716 52.277C236.077 52.1491 235.601 51.9276 235.289 51.6122C234.979 51.2969 234.824 50.8949 234.824 50.4062C234.824 49.9858 234.938 49.6236 235.165 49.3196C235.395 49.0156 235.718 48.7812 236.132 48.6165C236.55 48.4517 237.039 48.3693 237.598 48.3693C238.425 48.3693 239.076 48.544 239.55 48.8935C240.027 49.2429 240.306 49.7187 240.385 50.321ZM241.678 55V48.4545H243.493V55H241.678ZM242.589 47.6108C242.32 47.6108 242.088 47.5213 241.895 47.3423C241.705 47.1605 241.609 46.9432 241.609 46.6903C241.609 46.4403 241.705 46.2259 241.895 46.0469C242.088 45.8651 242.32 45.7741 242.589 45.7741C242.859 45.7741 243.089 45.8651 243.28 46.0469C243.473 46.2259 243.57 46.4403 243.57 46.6903C243.57 46.9432 243.473 47.1605 243.28 47.3423C243.089 47.5213 242.859 47.6108 242.589 47.6108ZM247.904 55.1278C247.234 55.1278 246.657 54.9858 246.174 54.7017C245.694 54.4148 245.325 54.017 245.066 53.5085C244.811 53 244.683 52.4148 244.683 51.7528C244.683 51.0824 244.812 50.4943 245.071 49.9886C245.332 49.4801 245.703 49.0838 246.183 48.7997C246.663 48.5128 247.234 48.3693 247.896 48.3693C248.467 48.3693 248.967 48.473 249.396 48.6804C249.825 48.8878 250.164 49.179 250.414 49.554C250.664 49.929 250.802 50.3693 250.828 50.875H249.115C249.066 50.5483 248.939 50.2855 248.731 50.0866C248.527 49.8849 248.258 49.7841 247.926 49.7841C247.645 49.7841 247.399 49.8608 247.189 50.0142C246.981 50.1648 246.819 50.3849 246.703 50.6747C246.586 50.9645 246.528 51.3153 246.528 51.7273C246.528 52.1449 246.585 52.5 246.699 52.7926C246.815 53.0852 246.978 53.3082 247.189 53.4616C247.399 53.6151 247.645 53.6918 247.926 53.6918C248.133 53.6918 248.319 53.6491 248.484 53.5639C248.652 53.4787 248.789 53.3551 248.897 53.1932C249.008 53.0284 249.081 52.831 249.115 52.6009H250.828C250.799 53.1009 250.663 53.5412 250.419 53.9219C250.177 54.2997 249.843 54.5952 249.417 54.8082C248.991 55.0213 248.487 55.1278 247.904 55.1278ZM253.635 53.1165L253.639 50.9389H253.903L256 48.4545H258.084L255.267 51.7443H254.837L253.635 53.1165ZM251.99 55V46.2727H253.805V55H251.99ZM256.081 55L254.155 52.1491L255.365 50.8665L258.207 55H256.081ZM260.201 57.4545C259.971 57.4545 259.755 57.4361 259.553 57.3991C259.354 57.3651 259.189 57.321 259.059 57.267L259.468 55.9119C259.681 55.9773 259.873 56.0128 260.043 56.0185C260.216 56.0241 260.365 55.9844 260.49 55.8991C260.618 55.8139 260.722 55.669 260.801 55.4645L260.908 55.1875L258.56 48.4545H260.469L261.824 53.2614H261.892L263.26 48.4545H265.182L262.638 55.7074C262.516 56.0597 262.35 56.3665 262.14 56.6278C261.932 56.892 261.669 57.0952 261.351 57.2372C261.033 57.3821 260.65 57.4545 260.201 57.4545ZM261.206 47.6108L262.11 45.6719H263.789L262.489 47.6108H261.206Z" fill="black"/>
<path d="M200.974 48.25L201.711 48.3182M203.184 49.375H201.711L203.184 51.625L205.026 48.625L201.711 48.3182M203.184 49.375H200.974M203.184 49.375L203.553 49.75L203.184 50.875L205.395 48.25L201.711 48.3182M199.5 47.5L203.184 53.5L206.5 47.5H199.5Z" stroke="black" stroke-width="2"/>
<path d="M20.25 51.4901V51.4091C20.2557 50.8807 20.3082 50.4602 20.4077 50.1477C20.5099 49.8352 20.6548 49.5824 20.8423 49.3892C21.0298 49.196 21.2557 49.0199 21.5199 48.8608C21.6903 48.7528 21.8438 48.6321 21.9801 48.4986C22.1165 48.3651 22.2244 48.2116 22.304 48.0384C22.3835 47.8651 22.4233 47.6733 22.4233 47.4631C22.4233 47.2102 22.3636 46.9915 22.2443 46.8068C22.125 46.6222 21.9659 46.4801 21.767 46.3807C21.571 46.2784 21.3523 46.2273 21.1108 46.2273C20.892 46.2273 20.6832 46.2727 20.4844 46.3636C20.2855 46.4545 20.1207 46.5966 19.9901 46.7898C19.8594 46.9801 19.7841 47.2259 19.7642 47.527H18.4688C18.4886 47.0156 18.6179 46.5838 18.8565 46.2315C19.0952 45.8764 19.4105 45.608 19.8026 45.4261C20.1974 45.2443 20.6335 45.1534 21.1108 45.1534C21.6335 45.1534 22.0909 45.2514 22.483 45.4474C22.875 45.6406 23.179 45.9119 23.3949 46.2614C23.6136 46.608 23.723 47.0128 23.723 47.4759C23.723 47.794 23.6733 48.081 23.5739 48.3366C23.4744 48.5895 23.3324 48.8153 23.1477 49.0142C22.9659 49.2131 22.7472 49.3892 22.4915 49.5426C22.25 49.6932 22.054 49.8494 21.9034 50.0114C21.7557 50.1733 21.6477 50.3651 21.5795 50.5866C21.5114 50.8082 21.4744 51.0824 21.4688 51.4091V51.4901H20.25ZM20.8935 54.081C20.6605 54.081 20.4602 53.9986 20.2926 53.8338C20.125 53.6662 20.0412 53.4645 20.0412 53.2287C20.0412 52.9957 20.125 52.7969 20.2926 52.6321C20.4602 52.4645 20.6605 52.3807 20.8935 52.3807C21.1236 52.3807 21.3224 52.4645 21.4901 52.6321C21.6605 52.7969 21.7457 52.9957 21.7457 53.2287C21.7457 53.3849 21.706 53.5284 21.6264 53.6591C21.5497 53.7869 21.4474 53.8892 21.3196 53.9659C21.1918 54.0426 21.0497 54.081 20.8935 54.081Z" fill="black"/>
<path d="M223.827 75.4545L221.538 82H219.493L217.205 75.4545H219.122L220.482 80.1378H220.55L221.905 75.4545H223.827ZM227.528 82.1278C226.854 82.1278 226.275 81.9915 225.789 81.7188C225.306 81.4432 224.934 81.054 224.673 80.5511C224.411 80.0455 224.281 79.4474 224.281 78.7571C224.281 78.0838 224.411 77.4929 224.673 76.9844C224.934 76.4759 225.302 76.0795 225.776 75.7955C226.254 75.5114 226.813 75.3693 227.455 75.3693C227.887 75.3693 228.289 75.4389 228.661 75.5781C229.036 75.7145 229.363 75.9205 229.641 76.196C229.923 76.4716 230.141 76.8182 230.298 77.2358C230.454 77.6506 230.532 78.1364 230.532 78.6932V79.1918H225.005V78.0668H228.823C228.823 77.8054 228.766 77.5739 228.653 77.3722C228.539 77.1705 228.381 77.0128 228.18 76.8991C227.981 76.7827 227.749 76.7244 227.485 76.7244C227.21 76.7244 226.965 76.7884 226.752 76.9162C226.542 77.0412 226.377 77.2102 226.258 77.4233C226.138 77.6335 226.077 77.8679 226.075 78.1264V79.196C226.075 79.5199 226.134 79.7997 226.254 80.0355C226.376 80.2713 226.548 80.4531 226.769 80.581C226.991 80.7088 227.254 80.7727 227.558 80.7727C227.759 80.7727 227.944 80.7443 228.112 80.6875C228.279 80.6307 228.423 80.5455 228.542 80.4318C228.661 80.3182 228.752 80.179 228.815 80.0142L230.494 80.125C230.408 80.5284 230.234 80.8807 229.969 81.1818C229.708 81.4801 229.37 81.7131 228.955 81.8807C228.543 82.0455 228.067 82.1278 227.528 82.1278ZM226.556 72.7358L227.413 73.7756L228.269 72.7358H229.816V72.7955L228.086 74.6705H226.735L225.009 72.7955V72.7358H226.556ZM234.129 82.1065C233.631 82.1065 233.181 81.9787 232.778 81.723C232.377 81.4645 232.059 81.0852 231.823 80.5852C231.59 80.0824 231.474 79.4659 231.474 78.7358C231.474 77.9858 231.594 77.3622 231.836 76.8651C232.077 76.3651 232.398 75.9915 232.799 75.7443C233.202 75.4943 233.644 75.3693 234.124 75.3693C234.491 75.3693 234.796 75.4318 235.04 75.5568C235.288 75.679 235.487 75.8324 235.637 76.017C235.79 76.1989 235.907 76.3778 235.987 76.554H236.042V73.2727H237.853V82H236.063V80.9517H235.987C235.901 81.1335 235.781 81.3139 235.624 81.4929C235.471 81.669 235.271 81.8153 235.023 81.9318C234.779 82.0483 234.481 82.1065 234.129 82.1065ZM234.704 80.6619C234.996 80.6619 235.244 80.5824 235.445 80.4233C235.65 80.2614 235.806 80.0355 235.914 79.7457C236.025 79.456 236.08 79.1165 236.08 78.7273C236.08 78.3381 236.026 78 235.918 77.7131C235.81 77.4261 235.654 77.2045 235.45 77.0483C235.245 76.892 234.996 76.8139 234.704 76.8139C234.406 76.8139 234.154 76.8949 233.95 77.0568C233.745 77.2187 233.59 77.4432 233.485 77.7301C233.38 78.017 233.327 78.3494 233.327 78.7273C233.327 79.108 233.38 79.4446 233.485 79.7372C233.593 80.027 233.748 80.2543 233.95 80.419C234.154 80.581 234.406 80.6619 234.704 80.6619ZM242.328 82.1278C241.655 82.1278 241.076 81.9915 240.59 81.7188C240.107 81.4432 239.735 81.054 239.473 80.5511C239.212 80.0455 239.081 79.4474 239.081 78.7571C239.081 78.0838 239.212 77.4929 239.473 76.9844C239.735 76.4759 240.103 76.0795 240.577 75.7955C241.054 75.5114 241.614 75.3693 242.256 75.3693C242.688 75.3693 243.09 75.4389 243.462 75.5781C243.837 75.7145 244.164 75.9205 244.442 76.196C244.723 76.4716 244.942 76.8182 245.098 77.2358C245.255 77.6506 245.333 78.1364 245.333 78.6932V79.1918H239.806V78.0668H243.624C243.624 77.8054 243.567 77.5739 243.453 77.3722C243.34 77.1705 243.182 77.0128 242.98 76.8991C242.782 76.7827 242.55 76.7244 242.286 76.7244C242.01 76.7244 241.766 76.7884 241.553 76.9162C241.343 77.0412 241.178 77.2102 241.059 77.4233C240.939 77.6335 240.878 77.8679 240.875 78.1264V79.196C240.875 79.5199 240.935 79.7997 241.054 80.0355C241.176 80.2713 241.348 80.4531 241.57 80.581C241.792 80.7088 242.054 80.7727 242.358 80.7727C242.56 80.7727 242.745 80.7443 242.912 80.6875C243.08 80.6307 243.223 80.5455 243.343 80.4318C243.462 80.3182 243.553 80.179 243.615 80.0142L245.294 80.125C245.209 80.5284 245.034 80.8807 244.77 81.1818C244.509 81.4801 244.171 81.7131 243.756 81.8807C243.344 82.0455 242.868 82.1278 242.328 82.1278ZM249.475 82.1278C248.804 82.1278 248.228 81.9858 247.745 81.7017C247.265 81.4148 246.895 81.017 246.637 80.5085C246.381 80 246.253 79.4148 246.253 78.7528C246.253 78.0824 246.382 77.4943 246.641 76.9886C246.902 76.4801 247.273 76.0838 247.753 75.7997C248.233 75.5128 248.804 75.3693 249.466 75.3693C250.037 75.3693 250.537 75.473 250.966 75.6804C251.395 75.8878 251.735 76.179 251.985 76.554C252.235 76.929 252.373 77.3693 252.398 77.875H250.685C250.637 77.5483 250.509 77.2855 250.301 77.0866C250.097 76.8849 249.828 76.7841 249.496 76.7841C249.215 76.7841 248.969 76.8608 248.759 77.0142C248.551 77.1648 248.39 77.3849 248.273 77.6747C248.157 77.9645 248.098 78.3153 248.098 78.7273C248.098 79.1449 248.155 79.5 248.269 79.7926C248.385 80.0852 248.549 80.3082 248.759 80.4616C248.969 80.6151 249.215 80.6918 249.496 80.6918C249.703 80.6918 249.89 80.6491 250.054 80.5639C250.222 80.4787 250.36 80.3551 250.468 80.1932C250.578 80.0284 250.651 79.831 250.685 79.6009H252.398C252.37 80.1009 252.233 80.5412 251.989 80.9219C251.748 81.2997 251.414 81.5952 250.988 81.8082C250.561 82.0213 250.057 82.1278 249.475 82.1278ZM255.205 80.1165L255.21 77.9389H255.474L257.57 75.4545H259.654L256.837 78.7443H256.407L255.205 80.1165ZM253.56 82V73.2727H255.376V82H253.56ZM257.651 82L255.725 79.1491L256.935 77.8665L259.778 82H257.651ZM261.771 84.4545C261.541 84.4545 261.325 84.4361 261.123 84.3991C260.924 84.3651 260.76 84.321 260.629 84.267L261.038 82.9119C261.251 82.9773 261.443 83.0128 261.613 83.0185C261.787 83.0241 261.936 82.9844 262.061 82.8991C262.189 82.8139 262.292 82.669 262.372 82.4645L262.478 82.1875L260.13 75.4545H262.039L263.395 80.2614H263.463L264.831 75.4545H266.752L264.208 82.7074C264.086 83.0597 263.92 83.3665 263.71 83.6278C263.502 83.892 263.24 84.0952 262.922 84.2372C262.603 84.3821 262.22 84.4545 261.771 84.4545ZM262.777 74.6108L263.68 72.6719H265.359L264.059 74.6108H262.777Z" fill="black"/>
<path d="M228.17 104.321L226.509 104.423C226.48 104.281 226.419 104.153 226.325 104.04C226.232 103.923 226.108 103.831 225.955 103.763C225.804 103.692 225.624 103.656 225.413 103.656C225.132 103.656 224.895 103.716 224.702 103.835C224.509 103.952 224.412 104.108 224.412 104.304C224.412 104.46 224.474 104.592 224.599 104.7C224.724 104.808 224.939 104.895 225.243 104.96L226.428 105.199C227.064 105.33 227.538 105.54 227.851 105.83C228.163 106.119 228.32 106.5 228.32 106.972C228.32 107.401 228.193 107.777 227.94 108.101C227.69 108.425 227.347 108.678 226.909 108.859C226.474 109.038 225.973 109.128 225.405 109.128C224.538 109.128 223.848 108.947 223.334 108.587C222.822 108.223 222.523 107.729 222.435 107.104L224.22 107.01C224.274 107.274 224.405 107.476 224.612 107.615C224.82 107.751 225.085 107.82 225.409 107.82C225.727 107.82 225.983 107.759 226.176 107.636C226.372 107.511 226.472 107.351 226.474 107.155C226.472 106.99 226.402 106.855 226.266 106.75C226.129 106.642 225.919 106.56 225.635 106.503L224.501 106.277C223.862 106.149 223.386 105.928 223.074 105.612C222.764 105.297 222.609 104.895 222.609 104.406C222.609 103.986 222.723 103.624 222.95 103.32C223.18 103.016 223.503 102.781 223.918 102.616C224.335 102.452 224.824 102.369 225.384 102.369C226.21 102.369 226.861 102.544 227.335 102.893C227.813 103.243 228.091 103.719 228.17 104.321ZM232.944 102.455V103.818H229.002V102.455H232.944ZM229.897 100.886H231.713V106.989C231.713 107.156 231.738 107.287 231.789 107.381C231.841 107.472 231.912 107.536 232.002 107.572C232.096 107.609 232.204 107.628 232.326 107.628C232.412 107.628 232.497 107.621 232.582 107.607C232.667 107.589 232.733 107.577 232.778 107.568L233.064 108.919C232.973 108.947 232.845 108.98 232.68 109.017C232.515 109.057 232.315 109.081 232.079 109.089C231.642 109.107 231.258 109.048 230.929 108.915C230.602 108.781 230.348 108.574 230.166 108.293C229.984 108.011 229.895 107.656 229.897 107.227V100.886ZM237.014 109.128C236.352 109.128 235.779 108.987 235.297 108.706C234.816 108.422 234.446 108.027 234.184 107.521C233.923 107.013 233.792 106.423 233.792 105.753C233.792 105.077 233.923 104.486 234.184 103.98C234.446 103.472 234.816 103.077 235.297 102.795C235.779 102.511 236.352 102.369 237.014 102.369C237.676 102.369 238.247 102.511 238.727 102.795C239.21 103.077 239.582 103.472 239.843 103.98C240.105 104.486 240.235 105.077 240.235 105.753C240.235 106.423 240.105 107.013 239.843 107.521C239.582 108.027 239.21 108.422 238.727 108.706C238.247 108.987 237.676 109.128 237.014 109.128ZM237.022 107.722C237.324 107.722 237.575 107.636 237.777 107.466C237.978 107.293 238.13 107.057 238.233 106.759C238.338 106.46 238.39 106.121 238.39 105.74C238.39 105.359 238.338 105.02 238.233 104.722C238.13 104.423 237.978 104.187 237.777 104.014C237.575 103.841 237.324 103.754 237.022 103.754C236.718 103.754 236.463 103.841 236.255 104.014C236.051 104.187 235.896 104.423 235.791 104.722C235.689 105.02 235.637 105.359 235.637 105.74C235.637 106.121 235.689 106.46 235.791 106.759C235.896 107.057 236.051 107.293 236.255 107.466C236.463 107.636 236.718 107.722 237.022 107.722ZM241.416 111.455V102.455H243.206V103.554H243.287C243.366 103.378 243.481 103.199 243.632 103.017C243.785 102.832 243.984 102.679 244.228 102.557C244.475 102.432 244.782 102.369 245.149 102.369C245.626 102.369 246.066 102.494 246.47 102.744C246.873 102.991 247.196 103.365 247.437 103.865C247.679 104.362 247.799 104.986 247.799 105.736C247.799 106.466 247.681 107.082 247.446 107.585C247.213 108.085 246.895 108.464 246.491 108.723C246.091 108.979 245.642 109.107 245.145 109.107C244.792 109.107 244.493 109.048 244.245 108.932C244.001 108.815 243.801 108.669 243.645 108.493C243.488 108.314 243.369 108.134 243.287 107.952H243.231V111.455H241.416ZM243.193 105.727C243.193 106.116 243.247 106.456 243.355 106.746C243.463 107.036 243.619 107.261 243.824 107.423C244.028 107.582 244.277 107.662 244.569 107.662C244.865 107.662 245.115 107.581 245.319 107.419C245.524 107.254 245.679 107.027 245.784 106.737C245.892 106.445 245.946 106.108 245.946 105.727C245.946 105.349 245.893 105.017 245.788 104.73C245.683 104.443 245.528 104.219 245.324 104.057C245.119 103.895 244.868 103.814 244.569 103.814C244.274 103.814 244.024 103.892 243.819 104.048C243.618 104.205 243.463 104.426 243.355 104.713C243.247 105 243.193 105.338 243.193 105.727ZM250.654 107.116L250.659 104.939H250.923L253.02 102.455H255.103L252.287 105.744H251.856L250.654 107.116ZM249.01 109V100.273H250.825V109H249.01ZM253.1 109L251.174 106.149L252.385 104.866L255.227 109H253.1ZM257.22 111.455C256.99 111.455 256.774 111.436 256.572 111.399C256.374 111.365 256.209 111.321 256.078 111.267L256.487 109.912C256.7 109.977 256.892 110.013 257.062 110.018C257.236 110.024 257.385 109.984 257.51 109.899C257.638 109.814 257.741 109.669 257.821 109.464L257.928 109.188L255.58 102.455H257.489L258.844 107.261H258.912L260.28 102.455H262.202L259.658 109.707C259.536 110.06 259.369 110.366 259.159 110.628C258.952 110.892 258.689 111.095 258.371 111.237C258.053 111.382 257.669 111.455 257.22 111.455Z" fill="black"/>
<path d="M197.459 13.3281H195.592C195.558 13.0866 195.489 12.8722 195.384 12.6847C195.278 12.4943 195.143 12.3324 194.979 12.1989C194.814 12.0653 194.624 11.9631 194.408 11.892C194.195 11.821 193.963 11.7855 193.713 11.7855C193.261 11.7855 192.868 11.8977 192.533 12.1222C192.197 12.3437 191.938 12.6676 191.753 13.0938C191.568 13.517 191.476 14.0312 191.476 14.6364C191.476 15.2585 191.568 15.7812 191.753 16.2045C191.94 16.6278 192.202 16.9474 192.537 17.1634C192.872 17.3793 193.26 17.4872 193.7 17.4872C193.947 17.4872 194.176 17.4545 194.386 17.3892C194.599 17.3239 194.788 17.2287 194.953 17.1037C195.118 16.9759 195.254 16.821 195.362 16.6392C195.473 16.4574 195.55 16.25 195.592 16.017L197.459 16.0256C197.411 16.4261 197.29 16.8125 197.097 17.1847C196.906 17.554 196.649 17.8849 196.325 18.1776C196.004 18.4673 195.621 18.6974 195.175 18.8679C194.732 19.0355 194.23 19.1193 193.67 19.1193C192.892 19.1193 192.196 18.9432 191.582 18.5909C190.972 18.2386 190.489 17.7287 190.134 17.0611C189.781 16.3935 189.605 15.5852 189.605 14.6364C189.605 13.6847 189.784 12.875 190.142 12.2074C190.5 11.5398 190.986 11.0312 191.599 10.6818C192.213 10.3295 192.903 10.1534 193.67 10.1534C194.176 10.1534 194.645 10.2244 195.077 10.3665C195.511 10.5085 195.896 10.7159 196.232 10.9886C196.567 11.2585 196.839 11.5895 197.05 11.9815C197.263 12.3736 197.399 12.8224 197.459 13.3281ZM200.614 19.1236C200.197 19.1236 199.825 19.0511 199.498 18.9062C199.171 18.7585 198.913 18.5412 198.722 18.2543C198.535 17.9645 198.441 17.6037 198.441 17.1719C198.441 16.8082 198.508 16.5028 198.641 16.2557C198.775 16.0085 198.957 15.8097 199.187 15.6591C199.417 15.5085 199.678 15.3949 199.971 15.3182C200.266 15.2415 200.576 15.1875 200.9 15.1562C201.281 15.1165 201.587 15.0795 201.82 15.0455C202.053 15.0085 202.222 14.9545 202.327 14.8835C202.433 14.8125 202.485 14.7074 202.485 14.5682V14.5426C202.485 14.2727 202.4 14.0639 202.229 13.9162C202.062 13.7685 201.823 13.6946 201.513 13.6946C201.187 13.6946 200.927 13.767 200.734 13.9119C200.54 14.054 200.413 14.233 200.35 14.4489L198.671 14.3125C198.756 13.9148 198.924 13.571 199.174 13.2812C199.424 12.9886 199.746 12.7642 200.141 12.608C200.539 12.4489 200.999 12.3693 201.522 12.3693C201.886 12.3693 202.234 12.4119 202.566 12.4972C202.901 12.5824 203.198 12.7145 203.457 12.8935C203.718 13.0724 203.924 13.3026 204.075 13.5838C204.225 13.8622 204.3 14.196 204.3 14.5852V19H202.579V18.0923H202.528C202.423 18.2969 202.282 18.4773 202.106 18.6335C201.93 18.7869 201.718 18.9077 201.471 18.9957C201.224 19.081 200.938 19.1236 200.614 19.1236ZM201.134 17.8707C201.401 17.8707 201.637 17.8182 201.842 17.7131C202.046 17.6051 202.207 17.4602 202.323 17.2784C202.44 17.0966 202.498 16.8906 202.498 16.6605V15.9659C202.441 16.0028 202.363 16.0369 202.263 16.0682C202.167 16.0966 202.058 16.1236 201.935 16.1491C201.813 16.1719 201.691 16.1932 201.569 16.2131C201.447 16.2301 201.336 16.2457 201.237 16.2599C201.023 16.2912 200.837 16.3409 200.678 16.4091C200.519 16.4773 200.396 16.5696 200.308 16.6861C200.219 16.7997 200.175 16.9418 200.175 17.1122C200.175 17.3594 200.265 17.5483 200.444 17.679C200.626 17.8068 200.856 17.8707 201.134 17.8707ZM207.524 10.2727V19H205.709V10.2727H207.524ZM211.936 19.1278C211.265 19.1278 210.689 18.9858 210.206 18.7017C209.725 18.4148 209.356 18.017 209.098 17.5085C208.842 17 208.714 16.4148 208.714 15.7528C208.714 15.0824 208.843 14.4943 209.102 13.9886C209.363 13.4801 209.734 13.0838 210.214 12.7997C210.694 12.5128 211.265 12.3693 211.927 12.3693C212.498 12.3693 212.998 12.473 213.427 12.6804C213.856 12.8878 214.196 13.179 214.446 13.554C214.696 13.929 214.833 14.3693 214.859 14.875H213.146C213.098 14.5483 212.97 14.2855 212.762 14.0866C212.558 13.8849 212.289 13.7841 211.957 13.7841C211.676 13.7841 211.43 13.8608 211.22 14.0142C211.012 14.1648 210.85 14.3849 210.734 14.6747C210.618 14.9645 210.559 15.3153 210.559 15.7273C210.559 16.1449 210.616 16.5 210.73 16.7926C210.846 17.0852 211.01 17.3082 211.22 17.4616C211.43 17.6151 211.676 17.6918 211.957 17.6918C212.164 17.6918 212.35 17.6491 212.515 17.5639C212.683 17.4787 212.821 17.3551 212.929 17.1932C213.039 17.0284 213.112 16.831 213.146 16.6009H214.859C214.831 17.1009 214.694 17.5412 214.45 17.9219C214.208 18.2997 213.875 18.5952 213.449 18.8082C213.022 19.0213 212.518 19.1278 211.936 19.1278ZM220.219 16.2131V12.4545H222.034V19H220.291V17.8111H220.223C220.075 18.1946 219.83 18.5028 219.486 18.7358C219.145 18.9687 218.729 19.0852 218.237 19.0852C217.8 19.0852 217.415 18.9858 217.082 18.7869C216.75 18.5881 216.49 18.3054 216.303 17.9389C216.118 17.5724 216.024 17.1335 216.021 16.6222V12.4545H217.837V16.2983C217.839 16.6847 217.943 16.9901 218.148 17.2145C218.352 17.4389 218.626 17.5511 218.97 17.5511C219.189 17.5511 219.393 17.5014 219.584 17.402C219.774 17.2997 219.928 17.1491 220.044 16.9503C220.163 16.7514 220.222 16.5057 220.219 16.2131ZM225.301 10.2727V19H223.486V10.2727H225.301ZM228.622 19.1236C228.205 19.1236 227.832 19.0511 227.506 18.9062C227.179 18.7585 226.92 18.5412 226.73 18.2543C226.543 17.9645 226.449 17.6037 226.449 17.1719C226.449 16.8082 226.516 16.5028 226.649 16.2557C226.783 16.0085 226.964 15.8097 227.195 15.6591C227.425 15.5085 227.686 15.3949 227.979 15.3182C228.274 15.2415 228.584 15.1875 228.908 15.1562C229.288 15.1165 229.595 15.0795 229.828 15.0455C230.061 15.0085 230.23 14.9545 230.335 14.8835C230.44 14.8125 230.493 14.7074 230.493 14.5682V14.5426C230.493 14.2727 230.408 14.0639 230.237 13.9162C230.07 13.7685 229.831 13.6946 229.521 13.6946C229.195 13.6946 228.935 13.767 228.741 13.9119C228.548 14.054 228.42 14.233 228.358 14.4489L226.679 14.3125C226.764 13.9148 226.932 13.571 227.182 13.2812C227.432 12.9886 227.754 12.7642 228.149 12.608C228.547 12.4489 229.007 12.3693 229.53 12.3693C229.893 12.3693 230.241 12.4119 230.574 12.4972C230.909 12.5824 231.206 12.7145 231.464 12.8935C231.726 13.0724 231.932 13.3026 232.082 13.5838C232.233 13.8622 232.308 14.196 232.308 14.5852V19H230.587V18.0923H230.536C230.43 18.2969 230.29 18.4773 230.114 18.6335C229.938 18.7869 229.726 18.9077 229.479 18.9957C229.232 19.081 228.946 19.1236 228.622 19.1236ZM229.142 17.8707C229.409 17.8707 229.645 17.8182 229.849 17.7131C230.054 17.6051 230.214 17.4602 230.331 17.2784C230.447 17.0966 230.506 16.8906 230.506 16.6605V15.9659C230.449 16.0028 230.371 16.0369 230.271 16.0682C230.175 16.0966 230.065 16.1236 229.943 16.1491C229.821 16.1719 229.699 16.1932 229.577 16.2131C229.455 16.2301 229.344 16.2457 229.244 16.2599C229.031 16.2912 228.845 16.3409 228.686 16.4091C228.527 16.4773 228.403 16.5696 228.315 16.6861C228.227 16.7997 228.183 16.9418 228.183 17.1122C228.183 17.3594 228.273 17.5483 228.452 17.679C228.634 17.8068 228.864 17.8707 229.142 17.8707ZM237.198 12.4545V13.8182H233.256V12.4545H237.198ZM234.151 10.8864H235.967V16.9886C235.967 17.1562 235.992 17.2869 236.043 17.3807C236.094 17.4716 236.165 17.5355 236.256 17.5724C236.35 17.6094 236.458 17.6278 236.58 17.6278C236.665 17.6278 236.751 17.6207 236.836 17.6065C236.921 17.5895 236.987 17.5767 237.032 17.5682L237.317 18.919C237.227 18.9474 237.099 18.9801 236.934 19.017C236.769 19.0568 236.569 19.081 236.333 19.0895C235.896 19.1065 235.512 19.0483 235.183 18.9148C234.856 18.7812 234.602 18.5739 234.42 18.2926C234.238 18.0114 234.148 17.6562 234.151 17.2273V10.8864ZM241.268 19.1278C240.606 19.1278 240.033 18.9872 239.55 18.706C239.07 18.4219 238.7 18.027 238.438 17.5213C238.177 17.0128 238.046 16.4233 238.046 15.7528C238.046 15.0767 238.177 14.4858 238.438 13.9801C238.7 13.4716 239.07 13.0767 239.55 12.7955C240.033 12.5114 240.606 12.3693 241.268 12.3693C241.93 12.3693 242.501 12.5114 242.981 12.7955C243.464 13.0767 243.836 13.4716 244.097 13.9801C244.359 14.4858 244.489 15.0767 244.489 15.7528C244.489 16.4233 244.359 17.0128 244.097 17.5213C243.836 18.027 243.464 18.4219 242.981 18.706C242.501 18.9872 241.93 19.1278 241.268 19.1278ZM241.276 17.7216C241.577 17.7216 241.829 17.6364 242.031 17.4659C242.232 17.2926 242.384 17.0568 242.487 16.7585C242.592 16.4602 242.644 16.1207 242.644 15.7401C242.644 15.3594 242.592 15.0199 242.487 14.7216C242.384 14.4233 242.232 14.1875 242.031 14.0142C241.829 13.8409 241.577 13.7543 241.276 13.7543C240.972 13.7543 240.717 13.8409 240.509 14.0142C240.305 14.1875 240.15 14.4233 240.045 14.7216C239.942 15.0199 239.891 15.3594 239.891 15.7401C239.891 16.1207 239.942 16.4602 240.045 16.7585C240.15 17.0568 240.305 17.2926 240.509 17.4659C240.717 17.6364 240.972 17.7216 241.276 17.7216ZM245.67 19V12.4545H247.43V13.5966H247.498C247.617 13.1903 247.817 12.8835 248.099 12.6761C248.38 12.4659 248.704 12.3608 249.07 12.3608C249.161 12.3608 249.259 12.3665 249.364 12.3778C249.469 12.3892 249.562 12.4048 249.641 12.4247V14.0355C249.556 14.0099 249.438 13.9872 249.288 13.9673C249.137 13.9474 248.999 13.9375 248.874 13.9375C248.607 13.9375 248.369 13.9957 248.158 14.1122C247.951 14.2259 247.786 14.3849 247.664 14.5895C247.545 14.794 247.485 15.0298 247.485 15.2969V19H245.67ZM254.459 14.696V16.1364H250.479V14.696H254.459ZM256.006 21.4545V12.4545H257.795V13.554H257.876C257.956 13.3778 258.071 13.1989 258.222 13.017C258.375 12.8324 258.574 12.679 258.818 12.5568C259.065 12.4318 259.372 12.3693 259.739 12.3693C260.216 12.3693 260.656 12.4943 261.06 12.7443C261.463 12.9915 261.786 13.3651 262.027 13.8651C262.268 14.3622 262.389 14.9858 262.389 15.7358C262.389 16.4659 262.271 17.0824 262.036 17.5852C261.803 18.0852 261.484 18.4645 261.081 18.723C260.68 18.9787 260.232 19.1065 259.734 19.1065C259.382 19.1065 259.082 19.0483 258.835 18.9318C258.591 18.8153 258.391 18.669 258.234 18.4929C258.078 18.3139 257.959 18.1335 257.876 17.9517H257.821V21.4545H256.006ZM257.783 15.7273C257.783 16.1165 257.837 16.456 257.945 16.7457C258.053 17.0355 258.209 17.2614 258.413 17.4233C258.618 17.5824 258.866 17.6619 259.159 17.6619C259.455 17.6619 259.705 17.581 259.909 17.419C260.114 17.2543 260.268 17.027 260.374 16.7372C260.482 16.4446 260.536 16.108 260.536 15.7273C260.536 15.3494 260.483 15.017 260.378 14.7301C260.273 14.4432 260.118 14.2187 259.913 14.0568C259.709 13.8949 259.457 13.8139 259.159 13.8139C258.864 13.8139 258.614 13.892 258.409 14.0483C258.207 14.2045 258.053 14.4261 257.945 14.7131C257.837 15 257.783 15.3381 257.783 15.7273ZM263.599 19V12.4545H265.359V13.5966H265.428C265.547 13.1903 265.747 12.8835 266.028 12.6761C266.31 12.4659 266.634 12.3608 267 12.3608C267.091 12.3608 267.189 12.3665 267.294 12.3778C267.399 12.3892 267.491 12.4048 267.571 12.4247V14.0355C267.486 14.0099 267.368 13.9872 267.217 13.9673C267.067 13.9474 266.929 13.9375 266.804 13.9375C266.537 13.9375 266.298 13.9957 266.088 14.1122C265.881 14.2259 265.716 14.3849 265.594 14.5895C265.474 14.794 265.415 15.0298 265.415 15.2969V19H263.599ZM271.162 19.1278C270.5 19.1278 269.928 18.9872 269.445 18.706C268.965 18.4219 268.594 18.027 268.333 17.5213C268.071 17.0128 267.941 16.4233 267.941 15.7528C267.941 15.0767 268.071 14.4858 268.333 13.9801C268.594 13.4716 268.965 13.0767 269.445 12.7955C269.928 12.5114 270.5 12.3693 271.162 12.3693C271.824 12.3693 272.395 12.5114 272.875 12.7955C273.358 13.0767 273.73 13.4716 273.992 13.9801C274.253 14.4858 274.384 15.0767 274.384 15.7528C274.384 16.4233 274.253 17.0128 273.992 17.5213C273.73 18.027 273.358 18.4219 272.875 18.706C272.395 18.9872 271.824 19.1278 271.162 19.1278ZM271.171 17.7216C271.472 17.7216 271.723 17.6364 271.925 17.4659C272.127 17.2926 272.279 17.0568 272.381 16.7585C272.486 16.4602 272.539 16.1207 272.539 15.7401C272.539 15.3594 272.486 15.0199 272.381 14.7216C272.279 14.4233 272.127 14.1875 271.925 14.0142C271.723 13.8409 271.472 13.7543 271.171 13.7543C270.867 13.7543 270.611 13.8409 270.404 14.0142C270.199 14.1875 270.044 14.4233 269.939 14.7216C269.837 15.0199 269.786 15.3594 269.786 15.7401C269.786 16.1207 269.837 16.4602 269.939 16.7585C270.044 17.0568 270.199 17.2926 270.404 17.4659C270.611 17.6364 270.867 17.7216 271.171 17.7216Z" fill="white"/>
</g>
<defs>
<filter id="filter0_d_11_357" x="-3" y="1" width="478" height="36" filterUnits="userSpaceOnUse" color-interpolation-filters="sRGB">
<feFlood flood-opacity="0" result="BackgroundImageFix"/>
<feColorMatrix in="SourceAlpha" type="matrix" values="0 0 0 0 0 0 0 0 0 0 0 0 0 0 0 0 0 0 127 0" result="hardAlpha"/>
<feOffset dy="4"/>
<feGaussianBlur stdDeviation="2"/>
<feComposite in2="hardAlpha" operator="out"/>
<feColorMatrix type="matrix" values="0 0 0 0 0 0 0 0 0 0 0 0 0 0 0 0 0 0 0.25 0"/>
<feBlend mode="normal" in2="BackgroundImageFix" result="effect1_dropShadow_11_357"/>
<feBlend mode="normal" in="SourceGraphic" in2="effect1_dropShadow_11_357" result="shape"/>
</filter>
<clipPath id="clip0_11_357">
<rect width="472" height="635" fill="white"/>
</clipPath>
</defs>
</svg>
