<svg width="472" height="635" viewBox="0 0 472 635" fill="none" xmlns="http://www.w3.org/2000/svg">
<g clip-path="url(#clip0_11_372)">
<rect width="472" height="635" fill="#18202A"/>
<g filter="url(#filter0_d_11_372)">
<rect x="1" y="1" width="470" height="28" fill="#2B2B2B"/>
</g>
<circle cx="453" cy="15" r="10" fill="#1F9EDE"/>
<path d="M449 11L457 19M449 19L457 11" stroke="white"/>
<path d="M125.5 387H90.5C80.8691 387 73 379.131 73 369.5V334.5C73 324.869 80.8691 317 90.5 317H125.5C135.131 317 143 324.869 143 334.5V369.5C142.883 379.131 135.131 387 125.5 387Z" fill="#2B394B"/>
<path d="M160.5 387H125.5C115.869 387 108 379.131 108 369.5V334.5C108 324.869 115.869 317 125.5 317H160.5C170.131 317 178 324.869 178 334.5V369.5C177.883 379.131 170.131 387 160.5 387Z" fill="#2B394B"/>
<path d="M345.5 387H310.5C300.869 387 293 379.131 293 369.5V334.5C293 324.869 300.869 317 310.5 317H345.5C355.131 317 363 324.869 363 334.5V369.5C362.883 379.131 355.131 387 345.5 387Z" fill="#FF6531"/>
<path d="M380.5 387H345.5C335.869 387 328 379.131 328 369.5V334.5C328 324.869 335.869 317 345.5 317H380.5C390.131 317 398 324.869 398 334.5V369.5C397.883 379.131 390.131 387 380.5 387Z" fill="#FF6531"/>
<g style="mix-blend-mode:overlay">
<path d="M26.3992 63H14.1331C10.7578 63 8 60.1896 8 56.75V44.25C8 40.8104 10.7578 38 14.1331 38H26.3992C29.7744 38 32.5322 40.8104 32.5322 44.25V56.75C32.4911 60.1896 29.7744 63 26.3992 63Z" fill="#E5E5E5"/>
</g>
<path d="M142.158 239.604C139.352 239.592 136.955 238.852 134.967 237.384C132.978 235.916 131.457 233.78 130.403 230.974C129.35 228.169 128.823 224.79 128.823 220.836C128.823 216.894 129.35 213.527 130.403 210.733C131.469 207.939 132.996 205.809 134.984 204.341C136.985 202.873 139.376 202.139 142.158 202.139C144.939 202.139 147.325 202.879 149.313 204.359C151.302 205.826 152.823 207.957 153.876 210.751C154.942 213.532 155.474 216.894 155.474 220.836C155.474 224.801 154.948 228.187 153.894 230.992C152.841 233.786 151.32 235.922 149.331 237.402C147.342 238.87 144.951 239.604 142.158 239.604ZM142.158 234.863C144.62 234.863 146.543 233.661 147.928 231.259C149.325 228.856 150.023 225.381 150.023 220.836C150.023 217.817 149.704 215.267 149.065 213.183C148.437 211.088 147.532 209.502 146.348 208.425C145.176 207.336 143.779 206.791 142.158 206.791C139.707 206.791 137.784 207.999 136.387 210.413C134.99 212.828 134.286 216.302 134.274 220.836C134.274 223.866 134.588 226.429 135.215 228.524C135.854 230.607 136.76 232.188 137.932 233.265C139.104 234.33 140.512 234.863 142.158 234.863ZM174.433 239.604C171.628 239.592 169.231 238.852 167.242 237.384C165.253 235.916 163.732 233.78 162.679 230.974C161.625 228.169 161.099 224.79 161.099 220.836C161.099 216.894 161.625 213.527 162.679 210.733C163.744 207.939 165.271 205.809 167.26 204.341C169.26 202.873 171.651 202.139 174.433 202.139C177.215 202.139 179.6 202.879 181.589 204.359C183.577 205.826 185.098 207.957 186.152 210.751C187.217 213.532 187.75 216.894 187.75 220.836C187.75 224.801 187.223 228.187 186.17 230.992C185.116 233.786 183.595 235.922 181.606 237.402C179.618 238.87 177.227 239.604 174.433 239.604ZM174.433 234.863C176.895 234.863 178.819 233.661 180.204 231.259C181.6 228.856 182.299 225.381 182.299 220.836C182.299 217.817 181.979 215.267 181.34 213.183C180.713 211.088 179.807 209.502 178.623 208.425C177.452 207.336 176.055 206.791 174.433 206.791C171.983 206.791 170.059 207.999 168.662 210.413C167.266 212.828 166.561 216.302 166.55 220.836C166.55 223.866 166.863 226.429 167.491 228.524C168.13 230.607 169.035 232.188 170.207 233.265C171.379 234.33 172.788 234.863 174.433 234.863ZM197.618 234.49C196.647 234.49 195.812 234.147 195.114 233.46C194.416 232.762 194.066 231.921 194.066 230.939C194.066 229.968 194.416 229.14 195.114 228.453C195.812 227.755 196.647 227.406 197.618 227.406C198.588 227.406 199.423 227.755 200.121 228.453C200.819 229.14 201.169 229.968 201.169 230.939C201.169 231.59 201.003 232.188 200.672 232.732C200.352 233.265 199.926 233.691 199.393 234.011C198.86 234.33 198.269 234.49 197.618 234.49ZM197.618 216.273C196.647 216.273 195.812 215.929 195.114 215.243C194.416 214.545 194.066 213.704 194.066 212.722C194.066 211.751 194.416 210.922 195.114 210.236C195.812 209.537 196.647 209.188 197.618 209.188C198.588 209.188 199.423 209.537 200.121 210.236C200.819 210.922 201.169 211.751 201.169 212.722C201.169 213.373 201.003 213.97 200.672 214.515C200.352 215.048 199.926 215.474 199.393 215.793C198.86 216.113 198.269 216.273 197.618 216.273ZM220.869 239.604C218.063 239.592 215.666 238.852 213.678 237.384C211.689 235.916 210.168 233.78 209.114 230.974C208.061 228.169 207.534 224.79 207.534 220.836C207.534 216.894 208.061 213.527 209.114 210.733C210.18 207.939 211.707 205.809 213.695 204.341C215.696 202.873 218.087 202.139 220.869 202.139C223.65 202.139 226.036 202.879 228.024 204.359C230.013 205.826 231.534 207.957 232.587 210.751C233.653 213.532 234.185 216.894 234.185 220.836C234.185 224.801 233.659 228.187 232.605 230.992C231.552 233.786 230.031 235.922 228.042 237.402C226.053 238.87 223.662 239.604 220.869 239.604ZM220.869 234.863C223.331 234.863 225.254 233.661 226.639 231.259C228.036 228.856 228.734 225.381 228.734 220.836C228.734 217.817 228.415 215.267 227.776 213.183C227.148 211.088 226.243 209.502 225.059 208.425C223.887 207.336 222.49 206.791 220.869 206.791C218.418 206.791 216.495 207.999 215.098 210.413C213.701 212.828 212.997 216.302 212.985 220.836C212.985 223.866 213.299 226.429 213.926 228.524C214.565 230.607 215.471 232.188 216.643 233.265C217.815 234.33 219.223 234.863 220.869 234.863ZM253.144 239.604C250.339 239.592 247.942 238.852 245.953 237.384C243.964 235.916 242.443 233.78 241.39 230.974C240.336 228.169 239.809 224.79 239.809 220.836C239.809 216.894 240.336 213.527 241.39 210.733C242.455 207.939 243.982 205.809 245.971 204.341C247.971 202.873 250.362 202.139 253.144 202.139C255.926 202.139 258.311 202.879 260.3 204.359C262.288 205.826 263.809 207.957 264.863 210.751C265.928 213.532 266.461 216.894 266.461 220.836C266.461 224.801 265.934 228.187 264.881 230.992C263.827 233.786 262.306 235.922 260.317 237.402C258.329 238.87 255.938 239.604 253.144 239.604ZM253.144 234.863C255.606 234.863 257.53 233.661 258.915 231.259C260.311 228.856 261.01 225.381 261.01 220.836C261.01 217.817 260.69 215.267 260.051 213.183C259.424 211.088 258.518 209.502 257.334 208.425C256.162 207.336 254.766 206.791 253.144 206.791C250.694 206.791 248.77 207.999 247.373 210.413C245.977 212.828 245.272 216.302 245.26 220.836C245.26 223.866 245.574 226.429 246.202 228.524C246.841 230.607 247.746 232.188 248.918 233.265C250.09 234.33 251.499 234.863 253.144 234.863ZM275.01 239.337C274.039 239.337 273.205 238.994 272.507 238.308C271.808 237.609 271.459 236.769 271.459 235.786C271.459 234.816 271.808 233.987 272.507 233.3C273.205 232.602 274.039 232.253 275.01 232.253C275.981 232.253 276.815 232.602 277.514 233.3C278.212 233.987 278.561 234.816 278.561 235.786C278.561 236.437 278.396 237.035 278.064 237.58C277.744 238.112 277.318 238.538 276.786 238.858C276.253 239.178 275.661 239.337 275.01 239.337ZM296.943 239.604C294.137 239.592 291.74 238.852 289.752 237.384C287.763 235.916 286.242 233.78 285.189 230.974C284.135 228.169 283.608 224.79 283.608 220.836C283.608 216.894 284.135 213.527 285.189 210.733C286.254 207.939 287.781 205.809 289.77 204.341C291.77 202.873 294.161 202.139 296.943 202.139C299.725 202.139 302.11 202.879 304.098 204.359C306.087 205.826 307.608 207.957 308.662 210.751C309.727 213.532 310.26 216.894 310.26 220.836C310.26 224.801 309.733 228.187 308.679 230.992C307.626 233.786 306.105 235.922 304.116 237.402C302.127 238.87 299.736 239.604 296.943 239.604ZM296.943 234.863C299.405 234.863 301.328 233.661 302.713 231.259C304.11 228.856 304.809 225.381 304.809 220.836C304.809 217.817 304.489 215.267 303.85 213.183C303.222 211.088 302.317 209.502 301.133 208.425C299.961 207.336 298.565 206.791 296.943 206.791C294.493 206.791 292.569 207.999 291.172 210.413C289.775 212.828 289.071 216.302 289.059 220.836C289.059 223.866 289.373 226.429 290 228.524C290.64 230.607 291.545 232.188 292.717 233.265C293.889 234.33 295.297 234.863 296.943 234.863ZM329.218 239.604C326.413 239.592 324.016 238.852 322.027 237.384C320.039 235.916 318.517 233.78 317.464 230.974C316.41 228.169 315.884 224.79 315.884 220.836C315.884 216.894 316.41 213.527 317.464 210.733C318.529 207.939 320.056 205.809 322.045 204.341C324.045 202.873 326.436 202.139 329.218 202.139C332 202.139 334.385 202.879 336.374 204.359C338.362 205.826 339.883 207.957 340.937 210.751C342.002 213.532 342.535 216.894 342.535 220.836C342.535 224.801 342.008 228.187 340.955 230.992C339.901 233.786 338.38 235.922 336.392 237.402C334.403 238.87 332.012 239.604 329.218 239.604ZM329.218 234.863C331.68 234.863 333.604 233.661 334.989 231.259C336.386 228.856 337.084 225.381 337.084 220.836C337.084 217.817 336.764 215.267 336.125 213.183C335.498 211.088 334.592 209.502 333.409 208.425C332.237 207.336 330.84 206.791 329.218 206.791C326.768 206.791 324.844 207.999 323.448 210.413C322.051 212.828 321.347 216.302 321.335 220.836C321.335 223.866 321.648 226.429 322.276 228.524C322.915 230.607 323.82 232.188 324.992 233.265C326.164 234.33 327.573 234.863 329.218 234.863Z" fill="white"/>
<path d="M19.4184 51.4901V51.4091C19.4241 50.8807 19.4766 50.4602 19.5761 50.1477C19.6783 49.8352 19.8232 49.5824 20.0107 49.3892C20.1982 49.196 20.4241 49.0199 20.6883 48.8608C20.8587 48.7528 21.0121 48.6321 21.1485 48.4986C21.2849 48.3651 21.3928 48.2116 21.4724 48.0384C21.5519 47.8651 21.5917 47.6733 21.5917 47.4631C21.5917 47.2102 21.532 46.9915 21.4127 46.8068C21.2934 46.6222 21.1343 46.4801 20.9354 46.3807C20.7394 46.2784 20.5207 46.2273 20.2792 46.2273C20.0604 46.2273 19.8516 46.2727 19.6528 46.3636C19.4539 46.4545 19.2891 46.5966 19.1585 46.7898C19.0278 46.9801 18.9525 47.2259 18.9326 47.527H17.6371C17.657 47.0156 17.7863 46.5838 18.0249 46.2315C18.2636 45.8764 18.5789 45.608 18.971 45.4261C19.3658 45.2443 19.8019 45.1534 20.2792 45.1534C20.8019 45.1534 21.2593 45.2514 21.6514 45.4474C22.0434 45.6406 22.3474 45.9119 22.5633 46.2614C22.782 46.608 22.8914 47.0128 22.8914 47.4759C22.8914 47.794 22.8417 48.081 22.7423 48.3366C22.6428 48.5895 22.5008 48.8153 22.3161 49.0142C22.1343 49.2131 21.9156 49.3892 21.6599 49.5426C21.4184 49.6932 21.2224 49.8494 21.0718 50.0114C20.9241 50.1733 20.8161 50.3651 20.7479 50.5866C20.6798 50.8082 20.6428 51.0824 20.6371 51.4091V51.4901H19.4184ZM20.0619 54.081C19.8289 54.081 19.6286 53.9986 19.461 53.8338C19.2934 53.6662 19.2096 53.4645 19.2096 53.2287C19.2096 52.9957 19.2934 52.7969 19.461 52.6321C19.6286 52.4645 19.8289 52.3807 20.0619 52.3807C20.292 52.3807 20.4908 52.4645 20.6585 52.6321C20.8289 52.7969 20.9141 52.9957 20.9141 53.2287C20.9141 53.3849 20.8744 53.5284 20.7948 53.6591C20.7181 53.7869 20.6158 53.8892 20.488 53.9659C20.3602 54.0426 20.2181 54.081 20.0619 54.081Z" fill="black"/>
<path d="M197.459 13.3281H195.592C195.558 13.0866 195.489 12.8722 195.384 12.6847C195.278 12.4943 195.143 12.3324 194.979 12.1989C194.814 12.0653 194.624 11.9631 194.408 11.892C194.195 11.821 193.963 11.7855 193.713 11.7855C193.261 11.7855 192.868 11.8977 192.533 12.1222C192.197 12.3437 191.938 12.6676 191.753 13.0938C191.568 13.517 191.476 14.0312 191.476 14.6364C191.476 15.2585 191.568 15.7812 191.753 16.2045C191.94 16.6278 192.202 16.9474 192.537 17.1634C192.872 17.3793 193.26 17.4872 193.7 17.4872C193.947 17.4872 194.176 17.4545 194.386 17.3892C194.599 17.3239 194.788 17.2287 194.953 17.1037C195.118 16.9759 195.254 16.821 195.362 16.6392C195.473 16.4574 195.55 16.25 195.592 16.017L197.459 16.0256C197.411 16.4261 197.29 16.8125 197.097 17.1847C196.906 17.554 196.649 17.8849 196.325 18.1776C196.004 18.4673 195.621 18.6974 195.175 18.8679C194.732 19.0355 194.23 19.1193 193.67 19.1193C192.892 19.1193 192.196 18.9432 191.582 18.5909C190.972 18.2386 190.489 17.7287 190.134 17.0611C189.781 16.3935 189.605 15.5852 189.605 14.6364C189.605 13.6847 189.784 12.875 190.142 12.2074C190.5 11.5398 190.986 11.0312 191.599 10.6818C192.213 10.3295 192.903 10.1534 193.67 10.1534C194.176 10.1534 194.645 10.2244 195.077 10.3665C195.511 10.5085 195.896 10.7159 196.232 10.9886C196.567 11.2585 196.839 11.5895 197.05 11.9815C197.263 12.3736 197.399 12.8224 197.459 13.3281ZM200.614 19.1236C200.197 19.1236 199.825 19.0511 199.498 18.9062C199.171 18.7585 198.913 18.5412 198.722 18.2543C198.535 17.9645 198.441 17.6037 198.441 17.1719C198.441 16.8082 198.508 16.5028 198.641 16.2557C198.775 16.0085 198.957 15.8097 199.187 15.6591C199.417 15.5085 199.678 15.3949 199.971 15.3182C200.266 15.2415 200.576 15.1875 200.9 15.1562C201.281 15.1165 201.587 15.0795 201.82 15.0455C202.053 15.0085 202.222 14.9545 202.327 14.8835C202.433 14.8125 202.485 14.7074 202.485 14.5682V14.5426C202.485 14.2727 202.4 14.0639 202.229 13.9162C202.062 13.7685 201.823 13.6946 201.513 13.6946C201.187 13.6946 200.927 13.767 200.734 13.9119C200.54 14.054 200.413 14.233 200.35 14.4489L198.671 14.3125C198.756 13.9148 198.924 13.571 199.174 13.2812C199.424 12.9886 199.746 12.7642 200.141 12.608C200.539 12.4489 200.999 12.3693 201.522 12.3693C201.886 12.3693 202.234 12.4119 202.566 12.4972C202.901 12.5824 203.198 12.7145 203.457 12.8935C203.718 13.0724 203.924 13.3026 204.075 13.5838C204.225 13.8622 204.3 14.196 204.3 14.5852V19H202.579V18.0923H202.528C202.423 18.2969 202.282 18.4773 202.106 18.6335C201.93 18.7869 201.718 18.9077 201.471 18.9957C201.224 19.081 200.938 19.1236 200.614 19.1236ZM201.134 17.8707C201.401 17.8707 201.637 17.8182 201.842 17.7131C202.046 17.6051 202.207 17.4602 202.323 17.2784C202.44 17.0966 202.498 16.8906 202.498 16.6605V15.9659C202.441 16.0028 202.363 16.0369 202.263 16.0682C202.167 16.0966 202.058 16.1236 201.935 16.1491C201.813 16.1719 201.691 16.1932 201.569 16.2131C201.447 16.2301 201.336 16.2457 201.237 16.2599C201.023 16.2912 200.837 16.3409 200.678 16.4091C200.519 16.4773 200.396 16.5696 200.308 16.6861C200.219 16.7997 200.175 16.9418 200.175 17.1122C200.175 17.3594 200.265 17.5483 200.444 17.679C200.626 17.8068 200.856 17.8707 201.134 17.8707ZM207.524 10.2727V19H205.709V10.2727H207.524ZM211.936 19.1278C211.265 19.1278 210.689 18.9858 210.206 18.7017C209.725 18.4148 209.356 18.017 209.098 17.5085C208.842 17 208.714 16.4148 208.714 15.7528C208.714 15.0824 208.843 14.4943 209.102 13.9886C209.363 13.4801 209.734 13.0838 210.214 12.7997C210.694 12.5128 211.265 12.3693 211.927 12.3693C212.498 12.3693 212.998 12.473 213.427 12.6804C213.856 12.8878 214.196 13.179 214.446 13.554C214.696 13.929 214.833 14.3693 214.859 14.875H213.146C213.098 14.5483 212.97 14.2855 212.762 14.0866C212.558 13.8849 212.289 13.7841 211.957 13.7841C211.676 13.7841 211.43 13.8608 211.22 14.0142C211.012 14.1648 210.85 14.3849 210.734 14.6747C210.618 14.9645 210.559 15.3153 210.559 15.7273C210.559 16.1449 210.616 16.5 210.73 16.7926C210.846 17.0852 211.01 17.3082 211.22 17.4616C211.43 17.6151 211.676 17.6918 211.957 17.6918C212.164 17.6918 212.35 17.6491 212.515 17.5639C212.683 17.4787 212.821 17.3551 212.929 17.1932C213.039 17.0284 213.112 16.831 213.146 16.6009H214.859C214.831 17.1009 214.694 17.5412 214.45 17.9219C214.208 18.2997 213.875 18.5952 213.449 18.8082C213.022 19.0213 212.518 19.1278 211.936 19.1278ZM220.219 16.2131V12.4545H222.034V19H220.291V17.8111H220.223C220.075 18.1946 219.83 18.5028 219.486 18.7358C219.145 18.9687 218.729 19.0852 218.237 19.0852C217.8 19.0852 217.415 18.9858 217.082 18.7869C216.75 18.5881 216.49 18.3054 216.303 17.9389C216.118 17.5724 216.024 17.1335 216.021 16.6222V12.4545H217.837V16.2983C217.839 16.6847 217.943 16.9901 218.148 17.2145C218.352 17.4389 218.626 17.5511 218.97 17.5511C219.189 17.5511 219.393 17.5014 219.584 17.402C219.774 17.2997 219.928 17.1491 220.044 16.9503C220.163 16.7514 220.222 16.5057 220.219 16.2131ZM225.301 10.2727V19H223.486V10.2727H225.301ZM228.622 19.1236C228.205 19.1236 227.832 19.0511 227.506 18.9062C227.179 18.7585 226.92 18.5412 226.73 18.2543C226.543 17.9645 226.449 17.6037 226.449 17.1719C226.449 16.8082 226.516 16.5028 226.649 16.2557C226.783 16.0085 226.964 15.8097 227.195 15.6591C227.425 15.5085 227.686 15.3949 227.979 15.3182C228.274 15.2415 228.584 15.1875 228.908 15.1562C229.288 15.1165 229.595 15.0795 229.828 15.0455C230.061 15.0085 230.23 14.9545 230.335 14.8835C230.44 14.8125 230.493 14.7074 230.493 14.5682V14.5426C230.493 14.2727 230.408 14.0639 230.237 13.9162C230.07 13.7685 229.831 13.6946 229.521 13.6946C229.195 13.6946 228.935 13.767 228.741 13.9119C228.548 14.054 228.42 14.233 228.358 14.4489L226.679 14.3125C226.764 13.9148 226.932 13.571 227.182 13.2812C227.432 12.9886 227.754 12.7642 228.149 12.608C228.547 12.4489 229.007 12.3693 229.53 12.3693C229.893 12.3693 230.241 12.4119 230.574 12.4972C230.909 12.5824 231.206 12.7145 231.464 12.8935C231.726 13.0724 231.932 13.3026 232.082 13.5838C232.233 13.8622 232.308 14.196 232.308 14.5852V19H230.587V18.0923H230.536C230.43 18.2969 230.29 18.4773 230.114 18.6335C229.938 18.7869 229.726 18.9077 229.479 18.9957C229.232 19.081 228.946 19.1236 228.622 19.1236ZM229.142 17.8707C229.409 17.8707 229.645 17.8182 229.849 17.7131C230.054 17.6051 230.214 17.4602 230.331 17.2784C230.447 17.0966 230.506 16.8906 230.506 16.6605V15.9659C230.449 16.0028 230.371 16.0369 230.271 16.0682C230.175 16.0966 230.065 16.1236 229.943 16.1491C229.821 16.1719 229.699 16.1932 229.577 16.2131C229.455 16.2301 229.344 16.2457 229.244 16.2599C229.031 16.2912 228.845 16.3409 228.686 16.4091C228.527 16.4773 228.403 16.5696 228.315 16.6861C228.227 16.7997 228.183 16.9418 228.183 17.1122C228.183 17.3594 228.273 17.5483 228.452 17.679C228.634 17.8068 228.864 17.8707 229.142 17.8707ZM237.198 12.4545V13.8182H233.256V12.4545H237.198ZM234.151 10.8864H235.967V16.9886C235.967 17.1562 235.992 17.2869 236.043 17.3807C236.094 17.4716 236.165 17.5355 236.256 17.5724C236.35 17.6094 236.458 17.6278 236.58 17.6278C236.665 17.6278 236.751 17.6207 236.836 17.6065C236.921 17.5895 236.987 17.5767 237.032 17.5682L237.317 18.919C237.227 18.9474 237.099 18.9801 236.934 19.017C236.769 19.0568 236.569 19.081 236.333 19.0895C235.896 19.1065 235.512 19.0483 235.183 18.9148C234.856 18.7812 234.602 18.5739 234.42 18.2926C234.238 18.0114 234.148 17.6562 234.151 17.2273V10.8864ZM241.268 19.1278C240.606 19.1278 240.033 18.9872 239.55 18.706C239.07 18.4219 238.7 18.027 238.438 17.5213C238.177 17.0128 238.046 16.4233 238.046 15.7528C238.046 15.0767 238.177 14.4858 238.438 13.9801C238.7 13.4716 239.07 13.0767 239.55 12.7955C240.033 12.5114 240.606 12.3693 241.268 12.3693C241.93 12.3693 242.501 12.5114 242.981 12.7955C243.464 13.0767 243.836 13.4716 244.097 13.9801C244.359 14.4858 244.489 15.0767 244.489 15.7528C244.489 16.4233 244.359 17.0128 244.097 17.5213C243.836 18.027 243.464 18.4219 242.981 18.706C242.501 18.9872 241.93 19.1278 241.268 19.1278ZM241.276 17.7216C241.577 17.7216 241.829 17.6364 242.031 17.4659C242.232 17.2926 242.384 17.0568 242.487 16.7585C242.592 16.4602 242.644 16.1207 242.644 15.7401C242.644 15.3594 242.592 15.0199 242.487 14.7216C242.384 14.4233 242.232 14.1875 242.031 14.0142C241.829 13.8409 241.577 13.7543 241.276 13.7543C240.972 13.7543 240.717 13.8409 240.509 14.0142C240.305 14.1875 240.15 14.4233 240.045 14.7216C239.942 15.0199 239.891 15.3594 239.891 15.7401C239.891 16.1207 239.942 16.4602 240.045 16.7585C240.15 17.0568 240.305 17.2926 240.509 17.4659C240.717 17.6364 240.972 17.7216 241.276 17.7216ZM245.67 19V12.4545H247.43V13.5966H247.498C247.617 13.1903 247.817 12.8835 248.099 12.6761C248.38 12.4659 248.704 12.3608 249.07 12.3608C249.161 12.3608 249.259 12.3665 249.364 12.3778C249.469 12.3892 249.562 12.4048 249.641 12.4247V14.0355C249.556 14.0099 249.438 13.9872 249.288 13.9673C249.137 13.9474 248.999 13.9375 248.874 13.9375C248.607 13.9375 248.369 13.9957 248.158 14.1122C247.951 14.2259 247.786 14.3849 247.664 14.5895C247.545 14.794 247.485 15.0298 247.485 15.2969V19H245.67ZM254.459 14.696V16.1364H250.479V14.696H254.459ZM256.006 21.4545V12.4545H257.795V13.554H257.876C257.956 13.3778 258.071 13.1989 258.222 13.017C258.375 12.8324 258.574 12.679 258.818 12.5568C259.065 12.4318 259.372 12.3693 259.739 12.3693C260.216 12.3693 260.656 12.4943 261.06 12.7443C261.463 12.9915 261.786 13.3651 262.027 13.8651C262.268 14.3622 262.389 14.9858 262.389 15.7358C262.389 16.4659 262.271 17.0824 262.036 17.5852C261.803 18.0852 261.484 18.4645 261.081 18.723C260.68 18.9787 260.232 19.1065 259.734 19.1065C259.382 19.1065 259.082 19.0483 258.835 18.9318C258.591 18.8153 258.391 18.669 258.234 18.4929C258.078 18.3139 257.959 18.1335 257.876 17.9517H257.821V21.4545H256.006ZM257.783 15.7273C257.783 16.1165 257.837 16.456 257.945 16.7457C258.053 17.0355 258.209 17.2614 258.413 17.4233C258.618 17.5824 258.866 17.6619 259.159 17.6619C259.455 17.6619 259.705 17.581 259.909 17.419C260.114 17.2543 260.268 17.027 260.374 16.7372C260.482 16.4446 260.536 16.108 260.536 15.7273C260.536 15.3494 260.483 15.017 260.378 14.7301C260.273 14.4432 260.118 14.2187 259.913 14.0568C259.709 13.8949 259.457 13.8139 259.159 13.8139C258.864 13.8139 258.614 13.892 258.409 14.0483C258.207 14.2045 258.053 14.4261 257.945 14.7131C257.837 15 257.783 15.3381 257.783 15.7273ZM263.599 19V12.4545H265.359V13.5966H265.428C265.547 13.1903 265.747 12.8835 266.028 12.6761C266.31 12.4659 266.634 12.3608 267 12.3608C267.091 12.3608 267.189 12.3665 267.294 12.3778C267.399 12.3892 267.491 12.4048 267.571 12.4247V14.0355C267.486 14.0099 267.368 13.9872 267.217 13.9673C267.067 13.9474 266.929 13.9375 266.804 13.9375C266.537 13.9375 266.298 13.9957 266.088 14.1122C265.881 14.2259 265.716 14.3849 265.594 14.5895C265.474 14.794 265.415 15.0298 265.415 15.2969V19H263.599ZM271.162 19.1278C270.5 19.1278 269.928 18.9872 269.445 18.706C268.965 18.4219 268.594 18.027 268.333 17.5213C268.071 17.0128 267.941 16.4233 267.941 15.7528C267.941 15.0767 268.071 14.4858 268.333 13.9801C268.594 13.4716 268.965 13.0767 269.445 12.7955C269.928 12.5114 270.5 12.3693 271.162 12.3693C271.824 12.3693 272.395 12.5114 272.875 12.7955C273.358 13.0767 273.73 13.4716 273.992 13.9801C274.253 14.4858 274.384 15.0767 274.384 15.7528C274.384 16.4233 274.253 17.0128 273.992 17.5213C273.73 18.027 273.358 18.4219 272.875 18.706C272.395 18.9872 271.824 19.1278 271.162 19.1278ZM271.171 17.7216C271.472 17.7216 271.723 17.6364 271.925 17.4659C272.127 17.2926 272.279 17.0568 272.381 16.7585C272.486 16.4602 272.539 16.1207 272.539 15.7401C272.539 15.3594 272.486 15.0199 272.381 14.7216C272.279 14.4233 272.127 14.1875 271.925 14.0142C271.723 13.8409 271.472 13.7543 271.171 13.7543C270.867 13.7543 270.611 13.8409 270.404 14.0142C270.199 14.1875 270.044 14.4233 269.939 14.7216C269.837 15.0199 269.786 15.3594 269.786 15.7401C269.786 16.1207 269.837 16.4602 269.939 16.7585C270.044 17.0568 270.199 17.2926 270.404 17.4659C270.611 17.6364 270.867 17.7216 271.171 17.7216Z" fill="white"/>
<path d="M274.75 63H262.25C258.81 63 256 60.1896 256 56.75V44.25C256 40.8104 258.81 38 262.25 38H274.75C278.19 38 281 40.8104 281 44.25V56.75C280.958 60.1896 278.19 63 274.75 63Z" fill="#2B394B"/>
<path d="M209.75 63H197.25C193.81 63 191 60.1896 191 56.75V44.25C191 40.8104 193.81 38 197.25 38H209.75C213.19 38 216 40.8104 216 44.25V56.75C215.958 60.1896 213.19 63 209.75 63Z" fill="#2B394B"/>
<path d="M258.5 63H213.5C201.117 63 191 60.1896 191 56.75V44.25C191 40.8104 201.117 38 213.5 38H258.5C270.883 38 281 40.8104 281 44.25V56.75C280.849 60.1896 270.883 63 258.5 63Z" fill="#2B394B"/>
<path d="M229.17 50.321L227.509 50.4233C227.48 50.2812 227.419 50.1534 227.325 50.0398C227.232 49.9233 227.108 49.831 226.955 49.7628C226.804 49.6918 226.624 49.6562 226.413 49.6562C226.132 49.6562 225.895 49.7159 225.702 49.8352C225.509 49.9517 225.412 50.108 225.412 50.304C225.412 50.4602 225.474 50.5923 225.599 50.7003C225.724 50.8082 225.939 50.8949 226.243 50.9602L227.428 51.1989C228.064 51.3295 228.538 51.5398 228.851 51.8295C229.163 52.1193 229.32 52.5 229.32 52.9716C229.32 53.4006 229.193 53.777 228.94 54.1009C228.69 54.4247 228.347 54.6776 227.909 54.8594C227.474 55.0384 226.973 55.1278 226.405 55.1278C225.538 55.1278 224.848 54.9474 224.334 54.5866C223.822 54.223 223.523 53.7287 223.435 53.1037L225.22 53.0099C225.274 53.2741 225.405 53.4759 225.612 53.6151C225.82 53.7514 226.085 53.8196 226.409 53.8196C226.727 53.8196 226.983 53.7585 227.176 53.6364C227.372 53.5114 227.472 53.3509 227.474 53.1548C227.472 52.9901 227.402 52.8551 227.266 52.75C227.129 52.642 226.919 52.5597 226.635 52.5028L225.501 52.277C224.862 52.1491 224.386 51.9276 224.074 51.6122C223.764 51.2969 223.609 50.8949 223.609 50.4062C223.609 49.9858 223.723 49.6236 223.95 49.3196C224.18 49.0156 224.503 48.7812 224.918 48.6165C225.335 48.4517 225.824 48.3693 226.384 48.3693C227.21 48.3693 227.861 48.544 228.335 48.8935C228.813 49.2429 229.091 49.7187 229.17 50.321ZM233.944 48.4545V49.8182H230.002V48.4545H233.944ZM230.897 46.8864H232.713V52.9886C232.713 53.1562 232.738 53.2869 232.789 53.3807C232.841 53.4716 232.912 53.5355 233.002 53.5724C233.096 53.6094 233.204 53.6278 233.326 53.6278C233.412 53.6278 233.497 53.6207 233.582 53.6065C233.667 53.5895 233.733 53.5767 233.778 53.5682L234.064 54.919C233.973 54.9474 233.845 54.9801 233.68 55.017C233.515 55.0568 233.315 55.081 233.079 55.0895C232.642 55.1065 232.258 55.0483 231.929 54.9148C231.602 54.7812 231.348 54.5739 231.166 54.2926C230.984 54.0114 230.895 53.6562 230.897 53.2273V46.8864ZM238.014 55.1278C237.352 55.1278 236.779 54.9872 236.297 54.706C235.816 54.4219 235.446 54.027 235.184 53.5213C234.923 53.0128 234.792 52.4233 234.792 51.7528C234.792 51.0767 234.923 50.4858 235.184 49.9801C235.446 49.4716 235.816 49.0767 236.297 48.7955C236.779 48.5114 237.352 48.3693 238.014 48.3693C238.676 48.3693 239.247 48.5114 239.727 48.7955C240.21 49.0767 240.582 49.4716 240.843 49.9801C241.105 50.4858 241.235 51.0767 241.235 51.7528C241.235 52.4233 241.105 53.0128 240.843 53.5213C240.582 54.027 240.21 54.4219 239.727 54.706C239.247 54.9872 238.676 55.1278 238.014 55.1278ZM238.022 53.7216C238.324 53.7216 238.575 53.6364 238.777 53.4659C238.978 53.2926 239.13 53.0568 239.233 52.7585C239.338 52.4602 239.39 52.1207 239.39 51.7401C239.39 51.3594 239.338 51.0199 239.233 50.7216C239.13 50.4233 238.978 50.1875 238.777 50.0142C238.575 49.8409 238.324 49.7543 238.022 49.7543C237.718 49.7543 237.463 49.8409 237.255 50.0142C237.051 50.1875 236.896 50.4233 236.791 50.7216C236.689 51.0199 236.637 51.3594 236.637 51.7401C236.637 52.1207 236.689 52.4602 236.791 52.7585C236.896 53.0568 237.051 53.2926 237.255 53.4659C237.463 53.6364 237.718 53.7216 238.022 53.7216ZM242.416 57.4545V48.4545H244.206V49.554H244.287C244.366 49.3778 244.481 49.1989 244.632 49.017C244.785 48.8324 244.984 48.679 245.228 48.5568C245.475 48.4318 245.782 48.3693 246.149 48.3693C246.626 48.3693 247.066 48.4943 247.47 48.7443C247.873 48.9915 248.196 49.3651 248.437 49.8651C248.679 50.3622 248.799 50.9858 248.799 51.7358C248.799 52.4659 248.681 53.0824 248.446 53.5852C248.213 54.0852 247.895 54.4645 247.491 54.723C247.091 54.9787 246.642 55.1065 246.145 55.1065C245.792 55.1065 245.493 55.0483 245.245 54.9318C245.001 54.8153 244.801 54.669 244.645 54.4929C244.488 54.3139 244.369 54.1335 244.287 53.9517H244.231V57.4545H242.416ZM244.193 51.7273C244.193 52.1165 244.247 52.456 244.355 52.7457C244.463 53.0355 244.619 53.2614 244.824 53.4233C245.028 53.5824 245.277 53.6619 245.569 53.6619C245.865 53.6619 246.115 53.581 246.319 53.419C246.524 53.2543 246.679 53.027 246.784 52.7372C246.892 52.4446 246.946 52.108 246.946 51.7273C246.946 51.3494 246.893 51.017 246.788 50.7301C246.683 50.4432 246.528 50.2187 246.324 50.0568C246.119 49.8949 245.868 49.8139 245.569 49.8139C245.274 49.8139 245.024 49.892 244.819 50.0483C244.618 50.2045 244.463 50.4261 244.355 50.7131C244.247 51 244.193 51.3381 244.193 51.7273ZM251.654 53.1165L251.659 50.9389H251.923L254.02 48.4545H256.103L253.287 51.7443H252.856L251.654 53.1165ZM250.01 55V46.2727H251.825V55H250.01ZM254.1 55L252.174 52.1491L253.385 50.8665L256.227 55H254.1ZM258.22 57.4545C257.99 57.4545 257.774 57.4361 257.572 57.3991C257.374 57.3651 257.209 57.321 257.078 57.267L257.487 55.9119C257.7 55.9773 257.892 56.0128 258.062 56.0185C258.236 56.0241 258.385 55.9844 258.51 55.8991C258.638 55.8139 258.741 55.669 258.821 55.4645L258.928 55.1875L256.58 48.4545H258.489L259.844 53.2614H259.912L261.28 48.4545H263.202L260.658 55.7074C260.536 56.0597 260.369 56.3665 260.159 56.6278C259.952 56.892 259.689 57.0952 259.371 57.2372C259.053 57.3821 258.669 57.4545 258.22 57.4545Z" fill="black"/>
<path d="M207 50.3158L201 54V47L207 50.3158Z" fill="black"/>
<path d="M201.75 52.5263L201.818 51.7895M202.875 50.3158V51.7895L205.125 50.3158L202.125 48.4737L201.818 51.7895M202.875 50.3158V52.5263M202.875 50.3158L203.25 49.9474L204.375 50.3158L201.75 48.1053L201.818 51.7895M201 54L207 50.3158L201 47V54Z" stroke="black" stroke-width="2"/>
<path d="M320.642 350.579L318.91 350.886C318.837 350.664 318.722 350.453 318.565 350.253C318.411 350.053 318.202 349.888 317.938 349.761C317.674 349.633 317.344 349.569 316.947 349.569C316.406 349.569 315.955 349.69 315.592 349.933C315.23 350.172 315.049 350.481 315.049 350.86C315.049 351.188 315.17 351.452 315.413 351.653C315.656 351.853 316.048 352.017 316.589 352.145L318.149 352.503C319.053 352.712 319.726 353.033 320.169 353.468C320.612 353.903 320.834 354.467 320.834 355.162C320.834 355.75 320.663 356.274 320.322 356.734C319.986 357.19 319.515 357.548 318.91 357.808C318.309 358.068 317.612 358.198 316.82 358.198C315.72 358.198 314.823 357.964 314.129 357.495C313.434 357.022 313.008 356.351 312.85 355.482L314.697 355.2C314.813 355.682 315.049 356.046 315.407 356.293C315.765 356.536 316.232 356.658 316.807 356.658C317.433 356.658 317.934 356.528 318.309 356.268C318.684 356.004 318.871 355.682 318.871 355.303C318.871 354.996 318.756 354.738 318.526 354.529C318.3 354.32 317.953 354.163 317.484 354.056L315.822 353.692C314.906 353.483 314.229 353.151 313.79 352.695C313.355 352.239 313.138 351.661 313.138 350.962C313.138 350.383 313.3 349.876 313.624 349.441C313.947 349.006 314.395 348.668 314.966 348.425C315.537 348.178 316.191 348.054 316.928 348.054C317.989 348.054 318.825 348.284 319.434 348.744C320.043 349.2 320.446 349.812 320.642 350.579ZM322.935 361.682V348.182H324.802V349.773H324.961C325.072 349.569 325.232 349.332 325.441 349.064C325.65 348.795 325.939 348.561 326.31 348.361C326.681 348.156 327.171 348.054 327.78 348.054C328.573 348.054 329.28 348.254 329.903 348.655C330.525 349.055 331.013 349.633 331.366 350.387C331.724 351.141 331.903 352.049 331.903 353.11C331.903 354.171 331.726 355.081 331.373 355.839C331.019 356.594 330.533 357.175 329.915 357.585C329.297 357.989 328.592 358.192 327.8 358.192C327.203 358.192 326.715 358.092 326.336 357.891C325.961 357.691 325.667 357.457 325.454 357.188C325.241 356.92 325.077 356.681 324.961 356.472H324.846V361.682H322.935ZM324.808 353.091C324.808 353.781 324.908 354.386 325.108 354.906C325.309 355.426 325.599 355.833 325.978 356.127C326.357 356.417 326.822 356.562 327.371 356.562C327.942 356.562 328.42 356.411 328.803 356.108C329.187 355.801 329.476 355.386 329.672 354.862C329.873 354.337 329.973 353.747 329.973 353.091C329.973 352.443 329.875 351.862 329.679 351.346C329.487 350.83 329.197 350.423 328.809 350.125C328.426 349.827 327.947 349.678 327.371 349.678C326.817 349.678 326.349 349.82 325.965 350.106C325.586 350.391 325.298 350.79 325.102 351.301C324.906 351.812 324.808 352.409 324.808 353.091ZM340.264 353.928V348.182H342.182V358H340.302V356.3H340.2C339.974 356.824 339.612 357.261 339.113 357.61C338.619 357.955 338.003 358.128 337.266 358.128C336.635 358.128 336.077 357.989 335.591 357.712C335.11 357.431 334.731 357.016 334.454 356.466C334.181 355.916 334.045 355.237 334.045 354.427V348.182H335.956V354.197C335.956 354.866 336.141 355.398 336.512 355.795C336.883 356.191 337.364 356.389 337.956 356.389C338.314 356.389 338.67 356.3 339.024 356.121C339.382 355.942 339.678 355.671 339.912 355.309C340.151 354.947 340.268 354.487 340.264 353.928ZM352.107 350.579L350.375 350.886C350.302 350.664 350.187 350.453 350.029 350.253C349.876 350.053 349.667 349.888 349.403 349.761C349.139 349.633 348.809 349.569 348.412 349.569C347.871 349.569 347.419 349.69 347.057 349.933C346.695 350.172 346.514 350.481 346.514 350.86C346.514 351.188 346.635 351.452 346.878 351.653C347.121 351.853 347.513 352.017 348.054 352.145L349.614 352.503C350.517 352.712 351.191 353.033 351.634 353.468C352.077 353.903 352.299 354.467 352.299 355.162C352.299 355.75 352.128 356.274 351.787 356.734C351.451 357.19 350.98 357.548 350.375 357.808C349.774 358.068 349.077 358.198 348.284 358.198C347.185 358.198 346.288 357.964 345.593 357.495C344.899 357.022 344.473 356.351 344.315 355.482L346.162 355.2C346.277 355.682 346.514 356.046 346.872 356.293C347.23 356.536 347.696 356.658 348.272 356.658C348.898 356.658 349.399 356.528 349.774 356.268C350.149 356.004 350.336 355.682 350.336 355.303C350.336 354.996 350.221 354.738 349.991 354.529C349.765 354.32 349.418 354.163 348.949 354.056L347.287 353.692C346.371 353.483 345.694 353.151 345.255 352.695C344.82 352.239 344.603 351.661 344.603 350.962C344.603 350.383 344.765 349.876 345.088 349.441C345.412 349.006 345.86 348.668 346.431 348.425C347.002 348.178 347.656 348.054 348.393 348.054C349.454 348.054 350.289 348.284 350.899 348.744C351.508 349.2 351.911 349.812 352.107 350.579ZM358.983 348.182V349.716H353.62V348.182H358.983ZM355.058 345.83H356.97V355.117C356.97 355.488 357.025 355.767 357.136 355.955C357.247 356.138 357.389 356.263 357.564 356.332C357.743 356.396 357.937 356.428 358.146 356.428C358.299 356.428 358.433 356.417 358.548 356.396C358.664 356.374 358.753 356.357 358.817 356.344L359.162 357.923C359.051 357.966 358.894 358.009 358.689 358.051C358.485 358.098 358.229 358.124 357.922 358.128C357.419 358.136 356.95 358.047 356.516 357.859C356.081 357.672 355.73 357.382 355.461 356.99C355.193 356.598 355.058 356.106 355.058 355.513V345.83ZM361.097 358V348.182H363.009V358H361.097ZM362.062 346.667C361.73 346.667 361.445 346.556 361.206 346.335C360.972 346.109 360.854 345.84 360.854 345.529C360.854 345.214 360.972 344.945 361.206 344.724C361.445 344.498 361.73 344.385 362.062 344.385C362.395 344.385 362.678 344.498 362.913 344.724C363.151 344.945 363.271 345.214 363.271 345.529C363.271 345.84 363.151 346.109 362.913 346.335C362.678 346.556 362.395 346.667 362.062 346.667ZM370.163 348.182V349.716H364.8V348.182H370.163ZM366.238 345.83H368.149V355.117C368.149 355.488 368.205 355.767 368.316 355.955C368.426 356.138 368.569 356.263 368.744 356.332C368.923 356.396 369.117 356.428 369.325 356.428C369.479 356.428 369.613 356.417 369.728 356.396C369.843 356.374 369.933 356.357 369.997 356.344L370.342 357.923C370.231 357.966 370.073 358.009 369.869 358.051C369.664 358.098 369.409 358.124 369.102 358.128C368.599 358.136 368.13 358.047 367.695 357.859C367.261 357.672 366.909 357.382 366.641 356.99C366.372 356.598 366.238 356.106 366.238 355.513V345.83Z" fill="white"/>
<path d="M91.2848 358V348.182H93.1193V349.78H93.2408C93.4453 349.239 93.7798 348.817 94.2443 348.514C94.7088 348.207 95.2649 348.054 95.9126 348.054C96.5689 348.054 97.1186 348.207 97.5618 348.514C98.0092 348.821 98.3395 349.243 98.5526 349.78H98.6548C98.8892 349.256 99.2621 348.838 99.7734 348.527C100.285 348.212 100.894 348.054 101.602 348.054C102.492 348.054 103.219 348.333 103.781 348.891C104.348 349.45 104.631 350.291 104.631 351.416V358H102.72V351.595C102.72 350.93 102.539 350.449 102.177 350.151C101.815 349.852 101.382 349.703 100.879 349.703C100.257 349.703 99.7734 349.895 99.4283 350.278C99.0831 350.658 98.9105 351.146 98.9105 351.742V358H97.0057V351.474C97.0057 350.941 96.8395 350.513 96.5071 350.189C96.1747 349.865 95.7422 349.703 95.2095 349.703C94.8473 349.703 94.5128 349.799 94.206 349.991C93.9034 350.178 93.6584 350.44 93.4709 350.777C93.2876 351.114 93.196 351.504 93.196 351.947V358H91.2848ZM111.425 358.198C110.457 358.198 109.624 357.991 108.925 357.578C108.231 357.161 107.694 356.575 107.314 355.82C106.939 355.062 106.752 354.173 106.752 353.155C106.752 352.149 106.939 351.263 107.314 350.496C107.694 349.729 108.222 349.13 108.9 348.7C109.581 348.269 110.378 348.054 111.29 348.054C111.844 348.054 112.381 348.146 112.901 348.329C113.421 348.512 113.888 348.8 114.301 349.192C114.714 349.584 115.04 350.093 115.279 350.719C115.518 351.342 115.637 352.098 115.637 352.989V353.666H107.832V352.234H113.764C113.764 351.732 113.662 351.286 113.457 350.898C113.253 350.506 112.965 350.197 112.594 349.972C112.228 349.746 111.797 349.633 111.303 349.633C110.766 349.633 110.297 349.765 109.897 350.029C109.501 350.289 109.194 350.63 108.976 351.052C108.763 351.469 108.657 351.923 108.657 352.413V353.532C108.657 354.188 108.772 354.746 109.002 355.207C109.236 355.667 109.562 356.018 109.98 356.261C110.398 356.5 110.885 356.619 111.444 356.619C111.806 356.619 112.136 356.568 112.434 356.466C112.733 356.359 112.991 356.202 113.208 355.993C113.425 355.784 113.591 355.526 113.706 355.219L115.515 355.545C115.371 356.078 115.111 356.545 114.736 356.945C114.365 357.342 113.898 357.651 113.336 357.872C112.778 358.089 112.14 358.198 111.425 358.198ZM117.553 358V356.69L122.871 349.933V349.844H117.725V348.182H125.255V349.575L120.142 356.249V356.338H125.434V358H117.553ZM127.689 358V348.182H129.6V358H127.689ZM128.654 346.667C128.322 346.667 128.036 346.556 127.798 346.335C127.563 346.109 127.446 345.84 127.446 345.529C127.446 345.214 127.563 344.945 127.798 344.724C128.036 344.498 128.322 344.385 128.654 344.385C128.987 344.385 129.27 344.498 129.504 344.724C129.743 344.945 129.862 345.214 129.862 345.529C129.862 345.84 129.743 346.109 129.504 346.335C129.27 346.556 128.987 346.667 128.654 346.667ZM136.307 358.198C135.357 358.198 134.539 357.983 133.853 357.553C133.171 357.118 132.647 356.519 132.28 355.756C131.914 354.994 131.73 354.12 131.73 353.136C131.73 352.138 131.918 351.259 132.293 350.496C132.668 349.729 133.196 349.13 133.878 348.7C134.56 348.269 135.363 348.054 136.288 348.054C137.034 348.054 137.699 348.192 138.282 348.469C138.866 348.742 139.337 349.126 139.695 349.62C140.057 350.114 140.272 350.692 140.341 351.352H138.48C138.378 350.892 138.144 350.496 137.777 350.163C137.415 349.831 136.929 349.665 136.32 349.665C135.787 349.665 135.321 349.805 134.92 350.087C134.524 350.364 134.215 350.76 133.993 351.276C133.772 351.787 133.661 352.392 133.661 353.091C133.661 353.807 133.77 354.425 133.987 354.945C134.204 355.464 134.511 355.867 134.907 356.153C135.308 356.438 135.779 356.581 136.32 356.581C136.682 356.581 137.01 356.515 137.304 356.383C137.603 356.246 137.852 356.053 138.052 355.801C138.257 355.55 138.4 355.247 138.48 354.893H140.341C140.272 355.528 140.066 356.095 139.721 356.594C139.375 357.092 138.913 357.484 138.333 357.77C137.758 358.055 137.083 358.198 136.307 358.198ZM134.958 344.2L136.275 345.913L137.586 344.2H139.318V344.295L137.068 347.006H135.476L133.233 344.295V344.2H134.958ZM145.242 358.217C144.619 358.217 144.057 358.102 143.554 357.872C143.051 357.638 142.653 357.299 142.359 356.856C142.069 356.413 141.924 355.869 141.924 355.226C141.924 354.672 142.031 354.216 142.244 353.858C142.457 353.5 142.744 353.217 143.107 353.008C143.469 352.799 143.874 352.641 144.321 352.535C144.769 352.428 145.225 352.347 145.689 352.292C146.277 352.224 146.754 352.168 147.121 352.126C147.487 352.079 147.754 352.004 147.92 351.902C148.086 351.8 148.169 351.634 148.169 351.403V351.359C148.169 350.8 148.012 350.368 147.696 350.061C147.385 349.754 146.921 349.601 146.303 349.601C145.659 349.601 145.152 349.744 144.781 350.029C144.415 350.31 144.161 350.624 144.021 350.969L142.225 350.56C142.438 349.963 142.749 349.482 143.158 349.115C143.571 348.744 144.046 348.476 144.583 348.31C145.12 348.139 145.685 348.054 146.277 348.054C146.669 348.054 147.085 348.101 147.524 348.195C147.967 348.284 148.38 348.45 148.764 348.693C149.151 348.936 149.469 349.283 149.716 349.735C149.963 350.183 150.087 350.764 150.087 351.48V358H148.22V356.658H148.144C148.02 356.905 147.835 357.148 147.588 357.386C147.34 357.625 147.023 357.823 146.635 357.981C146.247 358.138 145.783 358.217 145.242 358.217ZM145.657 356.683C146.186 356.683 146.637 356.579 147.012 356.37C147.392 356.161 147.679 355.888 147.875 355.552C148.075 355.211 148.176 354.847 148.176 354.459V353.193C148.107 353.261 147.975 353.325 147.779 353.385C147.588 353.44 147.368 353.489 147.121 353.532C146.874 353.57 146.633 353.607 146.399 353.641C146.164 353.67 145.968 353.696 145.811 353.717C145.44 353.764 145.101 353.843 144.794 353.954C144.492 354.065 144.249 354.224 144.066 354.433C143.887 354.638 143.797 354.911 143.797 355.251C143.797 355.724 143.972 356.082 144.321 356.325C144.671 356.564 145.116 356.683 145.657 356.683ZM159.99 350.579L158.257 350.886C158.185 350.664 158.07 350.453 157.912 350.253C157.759 350.053 157.55 349.888 157.286 349.761C157.022 349.633 156.691 349.569 156.295 349.569C155.754 349.569 155.302 349.69 154.94 349.933C154.578 350.172 154.397 350.481 154.397 350.86C154.397 351.188 154.518 351.452 154.761 351.653C155.004 351.853 155.396 352.017 155.937 352.145L157.497 352.503C158.4 352.712 159.074 353.033 159.517 353.468C159.96 353.903 160.181 354.467 160.181 355.162C160.181 355.75 160.011 356.274 159.67 356.734C159.333 357.19 158.863 357.548 158.257 357.808C157.657 358.068 156.96 358.198 156.167 358.198C155.068 358.198 154.171 357.964 153.476 357.495C152.782 357.022 152.355 356.351 152.198 355.482L154.045 355.2C154.16 355.682 154.397 356.046 154.755 356.293C155.113 356.536 155.579 356.658 156.154 356.658C156.781 356.658 157.282 356.528 157.657 356.268C158.032 356.004 158.219 355.682 158.219 355.303C158.219 354.996 158.104 354.738 157.874 354.529C157.648 354.32 157.301 354.163 156.832 354.056L155.17 353.692C154.254 353.483 153.576 353.151 153.137 352.695C152.703 352.239 152.485 351.661 152.485 350.962C152.485 350.383 152.647 349.876 152.971 349.441C153.295 349.006 153.743 348.668 154.314 348.425C154.885 348.178 155.539 348.054 156.276 348.054C157.337 348.054 158.172 348.284 158.782 348.744C159.391 349.2 159.794 349.812 159.99 350.579Z" fill="white"/>
<path d="M82.9946 516.179C82.1167 516.179 81.3326 516.028 80.6423 515.725C79.9562 515.423 79.4129 515.003 79.0123 514.466C78.616 513.925 78.4029 513.298 78.3731 512.587H80.3802C80.4058 512.974 80.5357 513.311 80.7701 513.597C81.0088 513.878 81.3198 514.095 81.7034 514.249C82.0869 514.402 82.513 514.479 82.9818 514.479C83.4974 514.479 83.9534 514.389 84.3497 514.21C84.7502 514.031 85.0634 513.782 85.2893 513.462C85.5152 513.138 85.6281 512.766 85.6281 512.344C85.6281 511.905 85.5152 511.519 85.2893 511.187C85.0677 510.85 84.7417 510.586 84.3113 510.394C83.8852 510.202 83.3696 510.107 82.7644 510.107H81.6586V508.496H82.7644C83.2502 508.496 83.6764 508.408 84.0429 508.234C84.4136 508.059 84.7034 507.816 84.9122 507.505C85.121 507.19 85.2254 506.821 85.2254 506.399C85.2254 505.994 85.1338 505.643 84.9505 505.344C84.7715 505.042 84.5159 504.805 84.1835 504.635C83.8554 504.464 83.4676 504.379 83.0201 504.379C82.594 504.379 82.1956 504.458 81.8248 504.616C81.4583 504.769 81.16 504.991 80.9299 505.281C80.6998 505.566 80.5762 505.909 80.5592 506.31H78.648C78.6693 505.602 78.8781 504.98 79.2744 504.443C79.675 503.906 80.2034 503.487 80.8596 503.184C81.5159 502.881 82.2446 502.73 83.0457 502.73C83.8852 502.73 84.6096 502.894 85.219 503.222C85.8326 503.546 86.3056 503.979 86.638 504.52C86.9747 505.061 87.1409 505.653 87.1366 506.297C87.1409 507.03 86.9363 507.652 86.523 508.163C86.1139 508.675 85.5684 509.018 84.8866 509.192V509.295C85.7559 509.427 86.4292 509.772 86.9065 510.33C87.388 510.888 87.6267 511.581 87.6224 512.408C87.6267 513.128 87.4264 513.773 87.0215 514.344C86.621 514.915 86.0734 515.365 85.3788 515.693C84.6842 516.017 83.8894 516.179 82.9946 516.179ZM91.4656 516.121C91.1162 516.121 90.8158 515.998 90.5643 515.751C90.3129 515.499 90.1872 515.197 90.1872 514.843C90.1872 514.494 90.3129 514.195 90.5643 513.948C90.8158 513.697 91.1162 513.571 91.4656 513.571C91.815 513.571 92.1155 513.697 92.3669 513.948C92.6183 514.195 92.744 514.494 92.744 514.843C92.744 515.077 92.6844 515.293 92.565 515.489C92.45 515.68 92.2966 515.834 92.1048 515.949C91.9131 516.064 91.7 516.121 91.4656 516.121ZM101.285 516V506.182H103.119V507.78H103.241C103.445 507.239 103.78 506.817 104.244 506.514C104.709 506.207 105.265 506.054 105.913 506.054C106.569 506.054 107.119 506.207 107.562 506.514C108.009 506.821 108.339 507.243 108.553 507.78H108.655C108.889 507.256 109.262 506.838 109.773 506.527C110.285 506.212 110.894 506.054 111.602 506.054C112.492 506.054 113.219 506.333 113.781 506.891C114.348 507.45 114.631 508.291 114.631 509.416V516H112.72V509.595C112.72 508.93 112.539 508.449 112.177 508.151C111.815 507.852 111.382 507.703 110.879 507.703C110.257 507.703 109.773 507.895 109.428 508.278C109.083 508.658 108.911 509.146 108.911 509.742V516H107.006V509.474C107.006 508.941 106.839 508.513 106.507 508.189C106.175 507.865 105.742 507.703 105.21 507.703C104.847 507.703 104.513 507.799 104.206 507.991C103.903 508.178 103.658 508.44 103.471 508.777C103.288 509.114 103.196 509.504 103.196 509.947V516H101.285ZM121.425 516.198C120.457 516.198 119.624 515.991 118.925 515.578C118.231 515.161 117.694 514.575 117.314 513.82C116.939 513.062 116.752 512.173 116.752 511.155C116.752 510.149 116.939 509.263 117.314 508.496C117.694 507.729 118.222 507.13 118.9 506.7C119.581 506.269 120.378 506.054 121.29 506.054C121.844 506.054 122.381 506.146 122.901 506.329C123.421 506.512 123.888 506.8 124.301 507.192C124.714 507.584 125.04 508.093 125.279 508.719C125.518 509.342 125.637 510.098 125.637 510.989V511.666H117.832V510.234H123.764C123.764 509.732 123.662 509.286 123.457 508.898C123.253 508.506 122.965 508.197 122.594 507.972C122.228 507.746 121.797 507.633 121.303 507.633C120.766 507.633 120.297 507.765 119.897 508.029C119.501 508.289 119.194 508.63 118.976 509.052C118.763 509.469 118.657 509.923 118.657 510.413V511.532C118.657 512.188 118.772 512.746 119.002 513.207C119.236 513.667 119.562 514.018 119.98 514.261C120.398 514.5 120.885 514.619 121.444 514.619C121.806 514.619 122.136 514.568 122.434 514.466C122.733 514.359 122.991 514.202 123.208 513.993C123.425 513.784 123.591 513.526 123.706 513.219L125.515 513.545C125.371 514.078 125.111 514.545 124.736 514.945C124.365 515.342 123.898 515.651 123.336 515.872C122.778 516.089 122.14 516.198 121.425 516.198ZM127.553 516V514.69L132.871 507.933V507.844H127.725V506.182H135.255V507.575L130.142 514.249V514.338H135.434V516H127.553ZM137.689 516V506.182H139.6V516H137.689ZM138.654 504.667C138.322 504.667 138.036 504.556 137.798 504.335C137.563 504.109 137.446 503.84 137.446 503.529C137.446 503.214 137.563 502.945 137.798 502.724C138.036 502.498 138.322 502.385 138.654 502.385C138.987 502.385 139.27 502.498 139.504 502.724C139.743 502.945 139.862 503.214 139.862 503.529C139.862 503.84 139.743 504.109 139.504 504.335C139.27 504.556 138.987 504.667 138.654 504.667ZM146.307 516.198C145.357 516.198 144.539 515.983 143.853 515.553C143.171 515.118 142.647 514.519 142.28 513.756C141.914 512.994 141.73 512.12 141.73 511.136C141.73 510.138 141.918 509.259 142.293 508.496C142.668 507.729 143.196 507.13 143.878 506.7C144.56 506.269 145.363 506.054 146.288 506.054C147.034 506.054 147.699 506.192 148.282 506.469C148.866 506.742 149.337 507.126 149.695 507.62C150.057 508.114 150.272 508.692 150.341 509.352H148.48C148.378 508.892 148.144 508.496 147.777 508.163C147.415 507.831 146.929 507.665 146.32 507.665C145.787 507.665 145.321 507.805 144.92 508.087C144.524 508.364 144.215 508.76 143.993 509.276C143.772 509.787 143.661 510.392 143.661 511.091C143.661 511.807 143.77 512.425 143.987 512.945C144.204 513.464 144.511 513.867 144.907 514.153C145.308 514.438 145.779 514.581 146.32 514.581C146.682 514.581 147.01 514.515 147.304 514.383C147.603 514.246 147.852 514.053 148.052 513.801C148.257 513.55 148.4 513.247 148.48 512.893H150.341C150.272 513.528 150.066 514.095 149.721 514.594C149.375 515.092 148.913 515.484 148.333 515.77C147.758 516.055 147.083 516.198 146.307 516.198ZM144.958 502.2L146.275 503.913L147.586 502.2H149.318V502.295L147.068 505.006H145.476L143.233 502.295V502.2H144.958ZM155.242 516.217C154.619 516.217 154.057 516.102 153.554 515.872C153.051 515.638 152.653 515.299 152.359 514.856C152.069 514.413 151.924 513.869 151.924 513.226C151.924 512.672 152.031 512.216 152.244 511.858C152.457 511.5 152.744 511.217 153.107 511.008C153.469 510.799 153.874 510.641 154.321 510.535C154.769 510.428 155.225 510.347 155.689 510.292C156.277 510.224 156.754 510.168 157.121 510.126C157.487 510.079 157.754 510.004 157.92 509.902C158.086 509.8 158.169 509.634 158.169 509.403V509.359C158.169 508.8 158.012 508.368 157.696 508.061C157.385 507.754 156.921 507.601 156.303 507.601C155.659 507.601 155.152 507.744 154.781 508.029C154.415 508.31 154.161 508.624 154.021 508.969L152.225 508.56C152.438 507.963 152.749 507.482 153.158 507.115C153.571 506.744 154.046 506.476 154.583 506.31C155.12 506.139 155.685 506.054 156.277 506.054C156.669 506.054 157.085 506.101 157.524 506.195C157.967 506.284 158.38 506.45 158.764 506.693C159.151 506.936 159.469 507.283 159.716 507.735C159.963 508.183 160.087 508.764 160.087 509.48V516H158.22V514.658H158.144C158.02 514.905 157.835 515.148 157.588 515.386C157.34 515.625 157.023 515.823 156.635 515.981C156.247 516.138 155.783 516.217 155.242 516.217ZM155.657 514.683C156.186 514.683 156.637 514.579 157.012 514.37C157.392 514.161 157.679 513.888 157.875 513.552C158.075 513.211 158.176 512.847 158.176 512.459V511.193C158.107 511.261 157.975 511.325 157.779 511.385C157.588 511.44 157.368 511.489 157.121 511.532C156.874 511.57 156.633 511.607 156.399 511.641C156.164 511.67 155.968 511.696 155.811 511.717C155.44 511.764 155.101 511.843 154.794 511.954C154.492 512.065 154.249 512.224 154.066 512.433C153.887 512.638 153.797 512.911 153.797 513.251C153.797 513.724 153.972 514.082 154.321 514.325C154.671 514.564 155.116 514.683 155.657 514.683ZM169.99 508.579L168.257 508.886C168.185 508.664 168.07 508.453 167.912 508.253C167.759 508.053 167.55 507.888 167.286 507.761C167.022 507.633 166.691 507.569 166.295 507.569C165.754 507.569 165.302 507.69 164.94 507.933C164.578 508.172 164.397 508.481 164.397 508.86C164.397 509.188 164.518 509.452 164.761 509.653C165.004 509.853 165.396 510.017 165.937 510.145L167.497 510.503C168.4 510.712 169.074 511.033 169.517 511.468C169.96 511.903 170.181 512.467 170.181 513.162C170.181 513.75 170.011 514.274 169.67 514.734C169.333 515.19 168.863 515.548 168.257 515.808C167.657 516.068 166.96 516.198 166.167 516.198C165.068 516.198 164.171 515.964 163.476 515.495C162.782 515.022 162.355 514.351 162.198 513.482L164.045 513.2C164.16 513.682 164.397 514.046 164.755 514.293C165.113 514.536 165.579 514.658 166.154 514.658C166.781 514.658 167.282 514.528 167.657 514.268C168.032 514.004 168.219 513.682 168.219 513.303C168.219 512.996 168.104 512.738 167.874 512.529C167.648 512.32 167.301 512.163 166.832 512.056L165.17 511.692C164.254 511.483 163.576 511.151 163.137 510.695C162.703 510.239 162.485 509.661 162.485 508.962C162.485 508.383 162.647 507.876 162.971 507.441C163.295 507.006 163.743 506.668 164.314 506.425C164.885 506.178 165.539 506.054 166.276 506.054C167.337 506.054 168.172 506.284 168.782 506.744C169.391 507.2 169.794 507.812 169.99 508.579Z" fill="white"/>
<path d="M78.7055 481V479.568L83.1352 474.979C83.6082 474.48 83.9981 474.043 84.3049 473.668C84.616 473.289 84.8482 472.929 85.0017 472.588C85.1551 472.247 85.2318 471.885 85.2318 471.501C85.2318 471.067 85.1295 470.692 84.925 470.376C84.7204 470.057 84.4413 469.812 84.0876 469.641C83.7339 469.467 83.3355 469.379 82.8923 469.379C82.4235 469.379 82.0144 469.475 81.665 469.667C81.3156 469.859 81.0471 470.129 80.8596 470.479C80.6721 470.828 80.5784 471.237 80.5784 471.706H78.6927C78.6927 470.909 78.8759 470.212 79.2424 469.616C79.6089 469.019 80.1117 468.557 80.7509 468.229C81.3902 467.896 82.1167 467.73 82.9306 467.73C83.7531 467.73 84.4775 467.894 85.1039 468.222C85.7346 468.546 86.2268 468.989 86.5805 469.552C86.9342 470.11 87.111 470.741 87.111 471.444C87.111 471.93 87.0194 472.405 86.8362 472.869C86.6572 473.334 86.344 473.852 85.8965 474.423C85.4491 474.989 84.8269 475.678 84.0301 476.487L81.4285 479.21V479.306H87.322V481H78.7055ZM91.4656 481.121C91.1162 481.121 90.8158 480.998 90.5643 480.751C90.3129 480.499 90.1872 480.197 90.1872 479.843C90.1872 479.494 90.3129 479.195 90.5643 478.948C90.8158 478.697 91.1162 478.571 91.4656 478.571C91.815 478.571 92.1155 478.697 92.3669 478.948C92.6183 479.195 92.744 479.494 92.744 479.843C92.744 480.077 92.6844 480.293 92.565 480.489C92.45 480.68 92.2966 480.834 92.1048 480.949C91.9131 481.064 91.7 481.121 91.4656 481.121ZM101.285 481V471.182H103.119V472.78H103.241C103.445 472.239 103.78 471.817 104.244 471.514C104.709 471.207 105.265 471.054 105.913 471.054C106.569 471.054 107.119 471.207 107.562 471.514C108.009 471.821 108.339 472.243 108.553 472.78H108.655C108.889 472.256 109.262 471.838 109.773 471.527C110.285 471.212 110.894 471.054 111.602 471.054C112.492 471.054 113.219 471.333 113.781 471.891C114.348 472.45 114.631 473.291 114.631 474.416V481H112.72V474.595C112.72 473.93 112.539 473.449 112.177 473.151C111.815 472.852 111.382 472.703 110.879 472.703C110.257 472.703 109.773 472.895 109.428 473.278C109.083 473.658 108.911 474.146 108.911 474.742V481H107.006V474.474C107.006 473.941 106.839 473.513 106.507 473.189C106.175 472.865 105.742 472.703 105.21 472.703C104.847 472.703 104.513 472.799 104.206 472.991C103.903 473.178 103.658 473.44 103.471 473.777C103.288 474.114 103.196 474.504 103.196 474.947V481H101.285ZM121.425 481.198C120.457 481.198 119.624 480.991 118.925 480.578C118.231 480.161 117.694 479.575 117.314 478.82C116.939 478.062 116.752 477.173 116.752 476.155C116.752 475.149 116.939 474.263 117.314 473.496C117.694 472.729 118.222 472.13 118.9 471.7C119.581 471.269 120.378 471.054 121.29 471.054C121.844 471.054 122.381 471.146 122.901 471.329C123.421 471.512 123.888 471.8 124.301 472.192C124.714 472.584 125.04 473.093 125.279 473.719C125.518 474.342 125.637 475.098 125.637 475.989V476.666H117.832V475.234H123.764C123.764 474.732 123.662 474.286 123.457 473.898C123.253 473.506 122.965 473.197 122.594 472.972C122.228 472.746 121.797 472.633 121.303 472.633C120.766 472.633 120.297 472.765 119.897 473.029C119.501 473.289 119.194 473.63 118.976 474.052C118.763 474.469 118.657 474.923 118.657 475.413V476.532C118.657 477.188 118.772 477.746 119.002 478.207C119.236 478.667 119.562 479.018 119.98 479.261C120.398 479.5 120.885 479.619 121.444 479.619C121.806 479.619 122.136 479.568 122.434 479.466C122.733 479.359 122.991 479.202 123.208 478.993C123.425 478.784 123.591 478.526 123.706 478.219L125.515 478.545C125.371 479.078 125.111 479.545 124.736 479.945C124.365 480.342 123.898 480.651 123.336 480.872C122.778 481.089 122.14 481.198 121.425 481.198ZM127.553 481V479.69L132.871 472.933V472.844H127.725V471.182H135.255V472.575L130.142 479.249V479.338H135.434V481H127.553ZM137.689 481V471.182H139.6V481H137.689ZM138.654 469.667C138.322 469.667 138.036 469.556 137.798 469.335C137.563 469.109 137.446 468.84 137.446 468.529C137.446 468.214 137.563 467.945 137.798 467.724C138.036 467.498 138.322 467.385 138.654 467.385C138.987 467.385 139.27 467.498 139.504 467.724C139.743 467.945 139.862 468.214 139.862 468.529C139.862 468.84 139.743 469.109 139.504 469.335C139.27 469.556 138.987 469.667 138.654 469.667ZM146.307 481.198C145.357 481.198 144.539 480.983 143.853 480.553C143.171 480.118 142.647 479.519 142.28 478.756C141.914 477.994 141.73 477.12 141.73 476.136C141.73 475.138 141.918 474.259 142.293 473.496C142.668 472.729 143.196 472.13 143.878 471.7C144.56 471.269 145.363 471.054 146.288 471.054C147.034 471.054 147.699 471.192 148.282 471.469C148.866 471.742 149.337 472.126 149.695 472.62C150.057 473.114 150.272 473.692 150.341 474.352H148.48C148.378 473.892 148.144 473.496 147.777 473.163C147.415 472.831 146.929 472.665 146.32 472.665C145.787 472.665 145.321 472.805 144.92 473.087C144.524 473.364 144.215 473.76 143.993 474.276C143.772 474.787 143.661 475.392 143.661 476.091C143.661 476.807 143.77 477.425 143.987 477.945C144.204 478.464 144.511 478.867 144.907 479.153C145.308 479.438 145.779 479.581 146.32 479.581C146.682 479.581 147.01 479.515 147.304 479.383C147.603 479.246 147.852 479.053 148.052 478.801C148.257 478.55 148.4 478.247 148.48 477.893H150.341C150.272 478.528 150.066 479.095 149.721 479.594C149.375 480.092 148.913 480.484 148.333 480.77C147.758 481.055 147.083 481.198 146.307 481.198ZM144.958 467.2L146.275 468.913L147.586 467.2H149.318V467.295L147.068 470.006H145.476L143.233 467.295V467.2H144.958ZM155.242 481.217C154.619 481.217 154.057 481.102 153.554 480.872C153.051 480.638 152.653 480.299 152.359 479.856C152.069 479.413 151.924 478.869 151.924 478.226C151.924 477.672 152.031 477.216 152.244 476.858C152.457 476.5 152.744 476.217 153.107 476.008C153.469 475.799 153.874 475.641 154.321 475.535C154.769 475.428 155.225 475.347 155.689 475.292C156.277 475.224 156.754 475.168 157.121 475.126C157.487 475.079 157.754 475.004 157.92 474.902C158.086 474.8 158.169 474.634 158.169 474.403V474.359C158.169 473.8 158.012 473.368 157.696 473.061C157.385 472.754 156.921 472.601 156.303 472.601C155.659 472.601 155.152 472.744 154.781 473.029C154.415 473.31 154.161 473.624 154.021 473.969L152.225 473.56C152.438 472.963 152.749 472.482 153.158 472.115C153.571 471.744 154.046 471.476 154.583 471.31C155.12 471.139 155.685 471.054 156.277 471.054C156.669 471.054 157.085 471.101 157.524 471.195C157.967 471.284 158.38 471.45 158.764 471.693C159.151 471.936 159.469 472.283 159.716 472.735C159.963 473.183 160.087 473.764 160.087 474.48V481H158.22V479.658H158.144C158.02 479.905 157.835 480.148 157.588 480.386C157.34 480.625 157.023 480.823 156.635 480.981C156.247 481.138 155.783 481.217 155.242 481.217ZM155.657 479.683C156.186 479.683 156.637 479.579 157.012 479.37C157.392 479.161 157.679 478.888 157.875 478.552C158.075 478.211 158.176 477.847 158.176 477.459V476.193C158.107 476.261 157.975 476.325 157.779 476.385C157.588 476.44 157.368 476.489 157.121 476.532C156.874 476.57 156.633 476.607 156.399 476.641C156.164 476.67 155.968 476.696 155.811 476.717C155.44 476.764 155.101 476.843 154.794 476.954C154.492 477.065 154.249 477.224 154.066 477.433C153.887 477.638 153.797 477.911 153.797 478.251C153.797 478.724 153.972 479.082 154.321 479.325C154.671 479.564 155.116 479.683 155.657 479.683ZM169.99 473.579L168.257 473.886C168.185 473.664 168.07 473.453 167.912 473.253C167.759 473.053 167.55 472.888 167.286 472.761C167.022 472.633 166.691 472.569 166.295 472.569C165.754 472.569 165.302 472.69 164.94 472.933C164.578 473.172 164.397 473.481 164.397 473.86C164.397 474.188 164.518 474.452 164.761 474.653C165.004 474.853 165.396 475.017 165.937 475.145L167.497 475.503C168.4 475.712 169.074 476.033 169.517 476.468C169.96 476.903 170.181 477.467 170.181 478.162C170.181 478.75 170.011 479.274 169.67 479.734C169.333 480.19 168.863 480.548 168.257 480.808C167.657 481.068 166.96 481.198 166.167 481.198C165.068 481.198 164.171 480.964 163.476 480.495C162.782 480.022 162.355 479.351 162.198 478.482L164.045 478.2C164.16 478.682 164.397 479.046 164.755 479.293C165.113 479.536 165.579 479.658 166.154 479.658C166.781 479.658 167.282 479.528 167.657 479.268C168.032 479.004 168.219 478.682 168.219 478.303C168.219 477.996 168.104 477.738 167.874 477.529C167.648 477.32 167.301 477.163 166.832 477.056L165.17 476.692C164.254 476.483 163.576 476.151 163.137 475.695C162.703 475.239 162.485 474.661 162.485 473.962C162.485 473.383 162.647 472.876 162.971 472.441C163.295 472.006 163.743 471.668 164.314 471.425C164.885 471.178 165.539 471.054 166.276 471.054C167.337 471.054 168.172 471.284 168.782 471.744C169.391 472.2 169.794 472.812 169.99 473.579Z" fill="white"/>
<path d="M84.9761 432.909V446H82.9946V434.891H82.9179L79.7857 436.936V435.044L83.0521 432.909H84.9761ZM91.4656 446.121C91.1162 446.121 90.8158 445.998 90.5643 445.751C90.3129 445.499 90.1872 445.197 90.1872 444.843C90.1872 444.494 90.3129 444.195 90.5643 443.948C90.8158 443.697 91.1162 443.571 91.4656 443.571C91.815 443.571 92.1155 443.697 92.3669 443.948C92.6183 444.195 92.744 444.494 92.744 444.843C92.744 445.077 92.6844 445.293 92.565 445.489C92.45 445.68 92.2966 445.834 92.1048 445.949C91.9131 446.064 91.7 446.121 91.4656 446.121ZM101.285 446V436.182H103.119V437.78H103.241C103.445 437.239 103.78 436.817 104.244 436.514C104.709 436.207 105.265 436.054 105.913 436.054C106.569 436.054 107.119 436.207 107.562 436.514C108.009 436.821 108.339 437.243 108.553 437.78H108.655C108.889 437.256 109.262 436.838 109.773 436.527C110.285 436.212 110.894 436.054 111.602 436.054C112.492 436.054 113.219 436.333 113.781 436.891C114.348 437.45 114.631 438.291 114.631 439.416V446H112.72V439.595C112.72 438.93 112.539 438.449 112.177 438.151C111.815 437.852 111.382 437.703 110.879 437.703C110.257 437.703 109.773 437.895 109.428 438.278C109.083 438.658 108.911 439.146 108.911 439.742V446H107.006V439.474C107.006 438.941 106.839 438.513 106.507 438.189C106.175 437.865 105.742 437.703 105.21 437.703C104.847 437.703 104.513 437.799 104.206 437.991C103.903 438.178 103.658 438.44 103.471 438.777C103.288 439.114 103.196 439.504 103.196 439.947V446H101.285ZM121.425 446.198C120.457 446.198 119.624 445.991 118.925 445.578C118.231 445.161 117.694 444.575 117.314 443.82C116.939 443.062 116.752 442.173 116.752 441.155C116.752 440.149 116.939 439.263 117.314 438.496C117.694 437.729 118.222 437.13 118.9 436.7C119.581 436.269 120.378 436.054 121.29 436.054C121.844 436.054 122.381 436.146 122.901 436.329C123.421 436.512 123.888 436.8 124.301 437.192C124.714 437.584 125.04 438.093 125.279 438.719C125.518 439.342 125.637 440.098 125.637 440.989V441.666H117.832V440.234H123.764C123.764 439.732 123.662 439.286 123.457 438.898C123.253 438.506 122.965 438.197 122.594 437.972C122.228 437.746 121.797 437.633 121.303 437.633C120.766 437.633 120.297 437.765 119.897 438.029C119.501 438.289 119.194 438.63 118.976 439.052C118.763 439.469 118.657 439.923 118.657 440.413V441.532C118.657 442.188 118.772 442.746 119.002 443.207C119.236 443.667 119.562 444.018 119.98 444.261C120.398 444.5 120.885 444.619 121.444 444.619C121.806 444.619 122.136 444.568 122.434 444.466C122.733 444.359 122.991 444.202 123.208 443.993C123.425 443.784 123.591 443.526 123.706 443.219L125.515 443.545C125.371 444.078 125.111 444.545 124.736 444.945C124.365 445.342 123.898 445.651 123.336 445.872C122.778 446.089 122.14 446.198 121.425 446.198ZM127.553 446V444.69L132.871 437.933V437.844H127.725V436.182H135.255V437.575L130.142 444.249V444.338H135.434V446H127.553ZM137.689 446V436.182H139.6V446H137.689ZM138.654 434.667C138.322 434.667 138.036 434.556 137.798 434.335C137.563 434.109 137.446 433.84 137.446 433.529C137.446 433.214 137.563 432.945 137.798 432.724C138.036 432.498 138.322 432.385 138.654 432.385C138.987 432.385 139.27 432.498 139.504 432.724C139.743 432.945 139.862 433.214 139.862 433.529C139.862 433.84 139.743 434.109 139.504 434.335C139.27 434.556 138.987 434.667 138.654 434.667ZM146.307 446.198C145.357 446.198 144.539 445.983 143.853 445.553C143.171 445.118 142.647 444.519 142.28 443.756C141.914 442.994 141.73 442.12 141.73 441.136C141.73 440.138 141.918 439.259 142.293 438.496C142.668 437.729 143.196 437.13 143.878 436.7C144.56 436.269 145.363 436.054 146.288 436.054C147.034 436.054 147.699 436.192 148.282 436.469C148.866 436.742 149.337 437.126 149.695 437.62C150.057 438.114 150.272 438.692 150.341 439.352H148.48C148.378 438.892 148.144 438.496 147.777 438.163C147.415 437.831 146.929 437.665 146.32 437.665C145.787 437.665 145.321 437.805 144.92 438.087C144.524 438.364 144.215 438.76 143.993 439.276C143.772 439.787 143.661 440.392 143.661 441.091C143.661 441.807 143.77 442.425 143.987 442.945C144.204 443.464 144.511 443.867 144.907 444.153C145.308 444.438 145.779 444.581 146.32 444.581C146.682 444.581 147.01 444.515 147.304 444.383C147.603 444.246 147.852 444.053 148.052 443.801C148.257 443.55 148.4 443.247 148.48 442.893H150.341C150.272 443.528 150.066 444.095 149.721 444.594C149.375 445.092 148.913 445.484 148.333 445.77C147.758 446.055 147.083 446.198 146.307 446.198ZM144.958 432.2L146.275 433.913L147.586 432.2H149.318V432.295L147.068 435.006H145.476L143.233 432.295V432.2H144.958ZM155.242 446.217C154.619 446.217 154.057 446.102 153.554 445.872C153.051 445.638 152.653 445.299 152.359 444.856C152.069 444.413 151.924 443.869 151.924 443.226C151.924 442.672 152.031 442.216 152.244 441.858C152.457 441.5 152.744 441.217 153.107 441.008C153.469 440.799 153.874 440.641 154.321 440.535C154.769 440.428 155.225 440.347 155.689 440.292C156.277 440.224 156.754 440.168 157.121 440.126C157.487 440.079 157.754 440.004 157.92 439.902C158.086 439.8 158.169 439.634 158.169 439.403V439.359C158.169 438.8 158.012 438.368 157.696 438.061C157.385 437.754 156.921 437.601 156.303 437.601C155.659 437.601 155.152 437.744 154.781 438.029C154.415 438.31 154.161 438.624 154.021 438.969L152.225 438.56C152.438 437.963 152.749 437.482 153.158 437.115C153.571 436.744 154.046 436.476 154.583 436.31C155.12 436.139 155.685 436.054 156.277 436.054C156.669 436.054 157.085 436.101 157.524 436.195C157.967 436.284 158.38 436.45 158.764 436.693C159.151 436.936 159.469 437.283 159.716 437.735C159.963 438.183 160.087 438.764 160.087 439.48V446H158.22V444.658H158.144C158.02 444.905 157.835 445.148 157.588 445.386C157.34 445.625 157.023 445.823 156.635 445.981C156.247 446.138 155.783 446.217 155.242 446.217ZM155.657 444.683C156.186 444.683 156.637 444.579 157.012 444.37C157.392 444.161 157.679 443.888 157.875 443.552C158.075 443.211 158.176 442.847 158.176 442.459V441.193C158.107 441.261 157.975 441.325 157.779 441.385C157.588 441.44 157.368 441.489 157.121 441.532C156.874 441.57 156.633 441.607 156.399 441.641C156.164 441.67 155.968 441.696 155.811 441.717C155.44 441.764 155.101 441.843 154.794 441.954C154.492 442.065 154.249 442.224 154.066 442.433C153.887 442.638 153.797 442.911 153.797 443.251C153.797 443.724 153.972 444.082 154.321 444.325C154.671 444.564 155.116 444.683 155.657 444.683ZM169.99 438.579L168.257 438.886C168.185 438.664 168.07 438.453 167.912 438.253C167.759 438.053 167.55 437.888 167.286 437.761C167.022 437.633 166.691 437.569 166.295 437.569C165.754 437.569 165.302 437.69 164.94 437.933C164.578 438.172 164.397 438.481 164.397 438.86C164.397 439.188 164.518 439.452 164.761 439.653C165.004 439.853 165.396 440.017 165.937 440.145L167.497 440.503C168.4 440.712 169.074 441.033 169.517 441.468C169.96 441.903 170.181 442.467 170.181 443.162C170.181 443.75 170.011 444.274 169.67 444.734C169.333 445.19 168.863 445.548 168.257 445.808C167.657 446.068 166.96 446.198 166.167 446.198C165.068 446.198 164.171 445.964 163.476 445.495C162.782 445.022 162.355 444.351 162.198 443.482L164.045 443.2C164.16 443.682 164.397 444.046 164.755 444.293C165.113 444.536 165.579 444.658 166.154 444.658C166.781 444.658 167.282 444.528 167.657 444.268C168.032 444.004 168.219 443.682 168.219 443.303C168.219 442.996 168.104 442.738 167.874 442.529C167.648 442.32 167.301 442.163 166.832 442.056L165.17 441.692C164.254 441.483 163.576 441.151 163.137 440.695C162.703 440.239 162.485 439.661 162.485 438.962C162.485 438.383 162.647 437.876 162.971 437.441C163.295 437.006 163.743 436.668 164.314 436.425C164.885 436.178 165.539 436.054 166.276 436.054C167.337 436.054 168.172 436.284 168.782 436.744C169.391 437.2 169.794 437.812 169.99 438.579Z" fill="white"/>
<path d="M314.817 516.217C313.807 516.213 312.944 515.947 312.228 515.418C311.512 514.89 310.964 514.121 310.585 513.111C310.206 512.101 310.016 510.884 310.016 509.461C310.016 508.042 310.206 506.83 310.585 505.824C310.969 504.818 311.518 504.051 312.234 503.523C312.955 502.994 313.815 502.73 314.817 502.73C315.818 502.73 316.677 502.996 317.393 503.529C318.109 504.058 318.656 504.825 319.036 505.83C319.419 506.832 319.611 508.042 319.611 509.461C319.611 510.888 319.421 512.107 319.042 513.117C318.663 514.123 318.115 514.892 317.399 515.425C316.683 515.953 315.822 516.217 314.817 516.217ZM314.817 514.511C315.703 514.511 316.396 514.078 316.894 513.213C317.397 512.348 317.648 511.097 317.648 509.461C317.648 508.374 317.533 507.456 317.303 506.706C317.077 505.952 316.751 505.381 316.325 504.993C315.903 504.601 315.401 504.405 314.817 504.405C313.935 504.405 313.242 504.839 312.739 505.709C312.237 506.578 311.983 507.829 311.979 509.461C311.979 510.552 312.092 511.474 312.317 512.229C312.548 512.979 312.874 513.548 313.295 513.935C313.717 514.319 314.224 514.511 314.817 514.511ZM326.436 516.217C325.426 516.213 324.563 515.947 323.847 515.418C323.131 514.89 322.584 514.121 322.204 513.111C321.825 512.101 321.635 510.884 321.635 509.461C321.635 508.042 321.825 506.83 322.204 505.824C322.588 504.818 323.138 504.051 323.854 503.523C324.574 502.994 325.434 502.73 326.436 502.73C327.437 502.73 328.296 502.996 329.012 503.529C329.728 504.058 330.275 504.825 330.655 505.83C331.038 506.832 331.23 508.042 331.23 509.461C331.23 510.888 331.04 512.107 330.661 513.117C330.282 514.123 329.734 514.892 329.018 515.425C328.302 515.953 327.442 516.217 326.436 516.217ZM326.436 514.511C327.322 514.511 328.015 514.078 328.513 513.213C329.016 512.348 329.268 511.097 329.268 509.461C329.268 508.374 329.153 507.456 328.922 506.706C328.697 505.952 328.371 505.381 327.944 504.993C327.523 504.601 327.02 504.405 326.436 504.405C325.554 504.405 324.861 504.839 324.358 505.709C323.856 506.578 323.602 507.829 323.598 509.461C323.598 510.552 323.711 511.474 323.937 512.229C324.167 512.979 324.493 513.548 324.915 513.935C325.336 514.319 325.844 514.511 326.436 514.511ZM334.782 514.376C334.433 514.376 334.132 514.253 333.881 514.006C333.63 513.754 333.504 513.452 333.504 513.098C333.504 512.749 333.63 512.45 333.881 512.203C334.132 511.952 334.433 511.826 334.782 511.826C335.132 511.826 335.432 511.952 335.684 512.203C335.935 512.45 336.061 512.749 336.061 513.098C336.061 513.332 336.001 513.548 335.882 513.744C335.767 513.935 335.613 514.089 335.422 514.204C335.23 514.319 335.017 514.376 334.782 514.376ZM334.782 507.818C334.433 507.818 334.132 507.695 333.881 507.447C333.63 507.196 333.504 506.893 333.504 506.54C333.504 506.19 333.63 505.892 333.881 505.645C334.132 505.393 334.433 505.268 334.782 505.268C335.132 505.268 335.432 505.393 335.684 505.645C335.935 505.892 336.061 506.19 336.061 506.54C336.061 506.774 336.001 506.989 335.882 507.185C335.767 507.377 335.613 507.531 335.422 507.646C335.23 507.761 335.017 507.818 334.782 507.818ZM343.153 516.217C342.143 516.213 341.28 515.947 340.564 515.418C339.848 514.89 339.3 514.121 338.921 513.111C338.542 512.101 338.352 510.884 338.352 509.461C338.352 508.042 338.542 506.83 338.921 505.824C339.305 504.818 339.854 504.051 340.57 503.523C341.29 502.994 342.151 502.73 343.153 502.73C344.154 502.73 345.013 502.996 345.729 503.529C346.445 504.058 346.992 504.825 347.371 505.83C347.755 506.832 347.947 508.042 347.947 509.461C347.947 510.888 347.757 512.107 347.378 513.117C346.999 514.123 346.451 514.892 345.735 515.425C345.019 515.953 344.158 516.217 343.153 516.217ZM343.153 514.511C344.039 514.511 344.732 514.078 345.23 513.213C345.733 512.348 345.984 511.097 345.984 509.461C345.984 508.374 345.869 507.456 345.639 506.706C345.413 505.952 345.087 505.381 344.661 504.993C344.239 504.601 343.737 504.405 343.153 504.405C342.271 504.405 341.578 504.839 341.075 505.709C340.572 506.578 340.319 507.829 340.315 509.461C340.315 510.552 340.428 511.474 340.653 512.229C340.884 512.979 341.21 513.548 341.631 513.935C342.053 514.319 342.56 514.511 343.153 514.511ZM354.772 516.217C353.762 516.213 352.899 515.947 352.183 515.418C351.467 514.89 350.92 514.121 350.54 513.111C350.161 512.101 349.971 510.884 349.971 509.461C349.971 508.042 350.161 506.83 350.54 505.824C350.924 504.818 351.474 504.051 352.189 503.523C352.91 502.994 353.77 502.73 354.772 502.73C355.773 502.73 356.632 502.996 357.348 503.529C358.064 504.058 358.611 504.825 358.991 505.83C359.374 506.832 359.566 508.042 359.566 509.461C359.566 510.888 359.376 512.107 358.997 513.117C358.618 514.123 358.07 514.892 357.354 515.425C356.638 515.953 355.778 516.217 354.772 516.217ZM354.772 514.511C355.658 514.511 356.351 514.078 356.849 513.213C357.352 512.348 357.604 511.097 357.604 509.461C357.604 508.374 357.488 507.456 357.258 506.706C357.032 505.952 356.706 505.381 356.28 504.993C355.858 504.601 355.356 504.405 354.772 504.405C353.89 504.405 353.197 504.839 352.694 505.709C352.192 506.578 351.938 507.829 351.934 509.461C351.934 510.552 352.047 511.474 352.273 512.229C352.503 512.979 352.829 513.548 353.251 513.935C353.672 514.319 354.18 514.511 354.772 514.511ZM362.644 516.121C362.294 516.121 361.994 515.998 361.742 515.751C361.491 515.499 361.365 515.197 361.365 514.843C361.365 514.494 361.491 514.195 361.742 513.948C361.994 513.697 362.294 513.571 362.644 513.571C362.993 513.571 363.294 513.697 363.545 513.948C363.796 514.195 363.922 514.494 363.922 514.843C363.922 515.077 363.862 515.293 363.743 515.489C363.628 515.68 363.475 515.834 363.283 515.949C363.091 516.064 362.878 516.121 362.644 516.121ZM370.539 516.217C369.529 516.213 368.667 515.947 367.951 515.418C367.235 514.89 366.687 514.121 366.308 513.111C365.929 512.101 365.739 510.884 365.739 509.461C365.739 508.042 365.929 506.83 366.308 505.824C366.691 504.818 367.241 504.051 367.957 503.523C368.677 502.994 369.538 502.73 370.539 502.73C371.541 502.73 372.4 502.996 373.115 503.529C373.831 504.058 374.379 504.825 374.758 505.83C375.142 506.832 375.333 508.042 375.333 509.461C375.333 510.888 375.144 512.107 374.765 513.117C374.385 514.123 373.838 514.892 373.122 515.425C372.406 515.953 371.545 516.217 370.539 516.217ZM370.539 514.511C371.426 514.511 372.118 514.078 372.617 513.213C373.12 512.348 373.371 511.097 373.371 509.461C373.371 508.374 373.256 507.456 373.026 506.706C372.8 505.952 372.474 505.381 372.048 504.993C371.626 504.601 371.123 504.405 370.539 504.405C369.657 504.405 368.965 504.839 368.462 505.709C367.959 506.578 367.706 507.829 367.701 509.461C367.701 510.552 367.814 511.474 368.04 512.229C368.27 512.979 368.596 513.548 369.018 513.935C369.44 514.319 369.947 514.511 370.539 514.511ZM382.159 516.217C381.149 516.213 380.286 515.947 379.57 515.418C378.854 514.89 378.306 514.121 377.927 513.111C377.548 512.101 377.358 510.884 377.358 509.461C377.358 508.042 377.548 506.83 377.927 505.824C378.311 504.818 378.86 504.051 379.576 503.523C380.296 502.994 381.157 502.73 382.159 502.73C383.16 502.73 384.019 502.996 384.735 503.529C385.45 504.058 385.998 504.825 386.377 505.83C386.761 506.832 386.953 508.042 386.953 509.461C386.953 510.888 386.763 512.107 386.384 513.117C386.004 514.123 385.457 514.892 384.741 515.425C384.025 515.953 383.164 516.217 382.159 516.217ZM382.159 514.511C383.045 514.511 383.737 514.078 384.236 513.213C384.739 512.348 384.99 511.097 384.99 509.461C384.99 508.374 384.875 507.456 384.645 506.706C384.419 505.952 384.093 505.381 383.667 504.993C383.245 504.601 382.742 504.405 382.159 504.405C381.276 504.405 380.584 504.839 380.081 505.709C379.578 506.578 379.325 507.829 379.32 509.461C379.32 510.552 379.433 511.474 379.659 512.229C379.889 512.979 380.215 513.548 380.637 513.935C381.059 514.319 381.566 514.511 382.159 514.511Z" fill="white"/>
<path d="M315.817 481.217C314.807 481.213 313.944 480.947 313.228 480.418C312.512 479.89 311.964 479.121 311.585 478.111C311.206 477.101 311.016 475.884 311.016 474.461C311.016 473.042 311.206 471.83 311.585 470.824C311.969 469.818 312.518 469.051 313.234 468.523C313.955 467.994 314.815 467.73 315.817 467.73C316.818 467.73 317.677 467.996 318.393 468.529C319.109 469.058 319.656 469.825 320.036 470.83C320.419 471.832 320.611 473.042 320.611 474.461C320.611 475.888 320.421 477.107 320.042 478.117C319.663 479.123 319.115 479.892 318.399 480.425C317.683 480.953 316.822 481.217 315.817 481.217ZM315.817 479.511C316.703 479.511 317.396 479.078 317.894 478.213C318.397 477.348 318.648 476.097 318.648 474.461C318.648 473.374 318.533 472.456 318.303 471.706C318.077 470.952 317.751 470.381 317.325 469.993C316.903 469.601 316.401 469.405 315.817 469.405C314.935 469.405 314.242 469.839 313.739 470.709C313.237 471.578 312.983 472.829 312.979 474.461C312.979 475.552 313.092 476.474 313.317 477.229C313.548 477.979 313.874 478.548 314.295 478.935C314.717 479.319 315.224 479.511 315.817 479.511ZM327.436 481.217C326.426 481.213 325.563 480.947 324.847 480.418C324.131 479.89 323.584 479.121 323.204 478.111C322.825 477.101 322.635 475.884 322.635 474.461C322.635 473.042 322.825 471.83 323.204 470.824C323.588 469.818 324.138 469.051 324.854 468.523C325.574 467.994 326.434 467.73 327.436 467.73C328.437 467.73 329.296 467.996 330.012 468.529C330.728 469.058 331.275 469.825 331.655 470.83C332.038 471.832 332.23 473.042 332.23 474.461C332.23 475.888 332.04 477.107 331.661 478.117C331.282 479.123 330.734 479.892 330.018 480.425C329.302 480.953 328.442 481.217 327.436 481.217ZM327.436 479.511C328.322 479.511 329.015 479.078 329.513 478.213C330.016 477.348 330.268 476.097 330.268 474.461C330.268 473.374 330.153 472.456 329.922 471.706C329.697 470.952 329.371 470.381 328.944 469.993C328.523 469.601 328.02 469.405 327.436 469.405C326.554 469.405 325.861 469.839 325.358 470.709C324.856 471.578 324.602 472.829 324.598 474.461C324.598 475.552 324.711 476.474 324.937 477.229C325.167 477.979 325.493 478.548 325.915 478.935C326.336 479.319 326.844 479.511 327.436 479.511ZM335.782 479.376C335.433 479.376 335.132 479.253 334.881 479.006C334.63 478.754 334.504 478.452 334.504 478.098C334.504 477.749 334.63 477.45 334.881 477.203C335.132 476.952 335.433 476.826 335.782 476.826C336.132 476.826 336.432 476.952 336.684 477.203C336.935 477.45 337.061 477.749 337.061 478.098C337.061 478.332 337.001 478.548 336.882 478.744C336.767 478.935 336.613 479.089 336.422 479.204C336.23 479.319 336.017 479.376 335.782 479.376ZM335.782 472.818C335.433 472.818 335.132 472.695 334.881 472.447C334.63 472.196 334.504 471.893 334.504 471.54C334.504 471.19 334.63 470.892 334.881 470.645C335.132 470.393 335.433 470.268 335.782 470.268C336.132 470.268 336.432 470.393 336.684 470.645C336.935 470.892 337.061 471.19 337.061 471.54C337.061 471.774 337.001 471.989 336.882 472.185C336.767 472.377 336.613 472.531 336.422 472.646C336.23 472.761 336.017 472.818 335.782 472.818ZM344.153 481.217C343.143 481.213 342.28 480.947 341.564 480.418C340.848 479.89 340.3 479.121 339.921 478.111C339.542 477.101 339.352 475.884 339.352 474.461C339.352 473.042 339.542 471.83 339.921 470.824C340.305 469.818 340.854 469.051 341.57 468.523C342.29 467.994 343.151 467.73 344.153 467.73C345.154 467.73 346.013 467.996 346.729 468.529C347.445 469.058 347.992 469.825 348.371 470.83C348.755 471.832 348.947 473.042 348.947 474.461C348.947 475.888 348.757 477.107 348.378 478.117C347.999 479.123 347.451 479.892 346.735 480.425C346.019 480.953 345.158 481.217 344.153 481.217ZM344.153 479.511C345.039 479.511 345.732 479.078 346.23 478.213C346.733 477.348 346.984 476.097 346.984 474.461C346.984 473.374 346.869 472.456 346.639 471.706C346.413 470.952 346.087 470.381 345.661 469.993C345.239 469.601 344.737 469.405 344.153 469.405C343.271 469.405 342.578 469.839 342.075 470.709C341.572 471.578 341.319 472.829 341.315 474.461C341.315 475.552 341.428 476.474 341.653 477.229C341.884 477.979 342.21 478.548 342.631 478.935C343.053 479.319 343.56 479.511 344.153 479.511ZM355.772 481.217C354.762 481.213 353.899 480.947 353.183 480.418C352.467 479.89 351.92 479.121 351.54 478.111C351.161 477.101 350.971 475.884 350.971 474.461C350.971 473.042 351.161 471.83 351.54 470.824C351.924 469.818 352.474 469.051 353.189 468.523C353.91 467.994 354.77 467.73 355.772 467.73C356.773 467.73 357.632 467.996 358.348 468.529C359.064 469.058 359.611 469.825 359.991 470.83C360.374 471.832 360.566 473.042 360.566 474.461C360.566 475.888 360.376 477.107 359.997 478.117C359.618 479.123 359.07 479.892 358.354 480.425C357.638 480.953 356.778 481.217 355.772 481.217ZM355.772 479.511C356.658 479.511 357.351 479.078 357.849 478.213C358.352 477.348 358.604 476.097 358.604 474.461C358.604 473.374 358.488 472.456 358.258 471.706C358.032 470.952 357.706 470.381 357.28 469.993C356.858 469.601 356.356 469.405 355.772 469.405C354.89 469.405 354.197 469.839 353.694 470.709C353.192 471.578 352.938 472.829 352.934 474.461C352.934 475.552 353.047 476.474 353.273 477.229C353.503 477.979 353.829 478.548 354.251 478.935C354.672 479.319 355.18 479.511 355.772 479.511ZM363.644 481.121C363.294 481.121 362.994 480.998 362.742 480.751C362.491 480.499 362.365 480.197 362.365 479.843C362.365 479.494 362.491 479.195 362.742 478.948C362.994 478.697 363.294 478.571 363.644 478.571C363.993 478.571 364.294 478.697 364.545 478.948C364.796 479.195 364.922 479.494 364.922 479.843C364.922 480.077 364.862 480.293 364.743 480.489C364.628 480.68 364.475 480.834 364.283 480.949C364.091 481.064 363.878 481.121 363.644 481.121ZM371.539 481.217C370.529 481.213 369.667 480.947 368.951 480.418C368.235 479.89 367.687 479.121 367.308 478.111C366.929 477.101 366.739 475.884 366.739 474.461C366.739 473.042 366.929 471.83 367.308 470.824C367.691 469.818 368.241 469.051 368.957 468.523C369.677 467.994 370.538 467.73 371.539 467.73C372.541 467.73 373.4 467.996 374.115 468.529C374.831 469.058 375.379 469.825 375.758 470.83C376.142 471.832 376.333 473.042 376.333 474.461C376.333 475.888 376.144 477.107 375.765 478.117C375.385 479.123 374.838 479.892 374.122 480.425C373.406 480.953 372.545 481.217 371.539 481.217ZM371.539 479.511C372.426 479.511 373.118 479.078 373.617 478.213C374.12 477.348 374.371 476.097 374.371 474.461C374.371 473.374 374.256 472.456 374.026 471.706C373.8 470.952 373.474 470.381 373.048 469.993C372.626 469.601 372.123 469.405 371.539 469.405C370.657 469.405 369.965 469.839 369.462 470.709C368.959 471.578 368.706 472.829 368.701 474.461C368.701 475.552 368.814 476.474 369.04 477.229C369.27 477.979 369.596 478.548 370.018 478.935C370.44 479.319 370.947 479.511 371.539 479.511ZM383.159 481.217C382.149 481.213 381.286 480.947 380.57 480.418C379.854 479.89 379.306 479.121 378.927 478.111C378.548 477.101 378.358 475.884 378.358 474.461C378.358 473.042 378.548 471.83 378.927 470.824C379.311 469.818 379.86 469.051 380.576 468.523C381.296 467.994 382.157 467.73 383.159 467.73C384.16 467.73 385.019 467.996 385.735 468.529C386.45 469.058 386.998 469.825 387.377 470.83C387.761 471.832 387.953 473.042 387.953 474.461C387.953 475.888 387.763 477.107 387.384 478.117C387.004 479.123 386.457 479.892 385.741 480.425C385.025 480.953 384.164 481.217 383.159 481.217ZM383.159 479.511C384.045 479.511 384.737 479.078 385.236 478.213C385.739 477.348 385.99 476.097 385.99 474.461C385.99 473.374 385.875 472.456 385.645 471.706C385.419 470.952 385.093 470.381 384.667 469.993C384.245 469.601 383.742 469.405 383.159 469.405C382.276 469.405 381.584 469.839 381.081 470.709C380.578 471.578 380.325 472.829 380.32 474.461C380.32 475.552 380.433 476.474 380.659 477.229C380.889 477.979 381.215 478.548 381.637 478.935C382.059 479.319 382.566 479.511 383.159 479.511Z" fill="white"/>
<path d="M315.817 446.217C314.807 446.213 313.944 445.947 313.228 445.418C312.512 444.89 311.964 444.121 311.585 443.111C311.206 442.101 311.016 440.884 311.016 439.461C311.016 438.042 311.206 436.83 311.585 435.824C311.969 434.818 312.518 434.051 313.234 433.523C313.955 432.994 314.815 432.73 315.817 432.73C316.818 432.73 317.677 432.996 318.393 433.529C319.109 434.058 319.656 434.825 320.036 435.83C320.419 436.832 320.611 438.042 320.611 439.461C320.611 440.888 320.421 442.107 320.042 443.117C319.663 444.123 319.115 444.892 318.399 445.425C317.683 445.953 316.822 446.217 315.817 446.217ZM315.817 444.511C316.703 444.511 317.396 444.078 317.894 443.213C318.397 442.348 318.648 441.097 318.648 439.461C318.648 438.374 318.533 437.456 318.303 436.706C318.077 435.952 317.751 435.381 317.325 434.993C316.903 434.601 316.401 434.405 315.817 434.405C314.935 434.405 314.242 434.839 313.739 435.709C313.237 436.578 312.983 437.829 312.979 439.461C312.979 440.552 313.092 441.474 313.317 442.229C313.548 442.979 313.874 443.548 314.295 443.935C314.717 444.319 315.224 444.511 315.817 444.511ZM327.436 446.217C326.426 446.213 325.563 445.947 324.847 445.418C324.131 444.89 323.584 444.121 323.204 443.111C322.825 442.101 322.635 440.884 322.635 439.461C322.635 438.042 322.825 436.83 323.204 435.824C323.588 434.818 324.138 434.051 324.854 433.523C325.574 432.994 326.434 432.73 327.436 432.73C328.437 432.73 329.296 432.996 330.012 433.529C330.728 434.058 331.275 434.825 331.655 435.83C332.038 436.832 332.23 438.042 332.23 439.461C332.23 440.888 332.04 442.107 331.661 443.117C331.282 444.123 330.734 444.892 330.018 445.425C329.302 445.953 328.442 446.217 327.436 446.217ZM327.436 444.511C328.322 444.511 329.015 444.078 329.513 443.213C330.016 442.348 330.268 441.097 330.268 439.461C330.268 438.374 330.153 437.456 329.922 436.706C329.697 435.952 329.371 435.381 328.944 434.993C328.523 434.601 328.02 434.405 327.436 434.405C326.554 434.405 325.861 434.839 325.358 435.709C324.856 436.578 324.602 437.829 324.598 439.461C324.598 440.552 324.711 441.474 324.937 442.229C325.167 442.979 325.493 443.548 325.915 443.935C326.336 444.319 326.844 444.511 327.436 444.511ZM335.782 444.376C335.433 444.376 335.132 444.253 334.881 444.006C334.63 443.754 334.504 443.452 334.504 443.098C334.504 442.749 334.63 442.45 334.881 442.203C335.132 441.952 335.433 441.826 335.782 441.826C336.132 441.826 336.432 441.952 336.684 442.203C336.935 442.45 337.061 442.749 337.061 443.098C337.061 443.332 337.001 443.548 336.882 443.744C336.767 443.935 336.613 444.089 336.422 444.204C336.23 444.319 336.017 444.376 335.782 444.376ZM335.782 437.818C335.433 437.818 335.132 437.695 334.881 437.447C334.63 437.196 334.504 436.893 334.504 436.54C334.504 436.19 334.63 435.892 334.881 435.645C335.132 435.393 335.433 435.268 335.782 435.268C336.132 435.268 336.432 435.393 336.684 435.645C336.935 435.892 337.061 436.19 337.061 436.54C337.061 436.774 337.001 436.989 336.882 437.185C336.767 437.377 336.613 437.531 336.422 437.646C336.23 437.761 336.017 437.818 335.782 437.818ZM344.153 446.217C343.143 446.213 342.28 445.947 341.564 445.418C340.848 444.89 340.3 444.121 339.921 443.111C339.542 442.101 339.352 440.884 339.352 439.461C339.352 438.042 339.542 436.83 339.921 435.824C340.305 434.818 340.854 434.051 341.57 433.523C342.29 432.994 343.151 432.73 344.153 432.73C345.154 432.73 346.013 432.996 346.729 433.529C347.445 434.058 347.992 434.825 348.371 435.83C348.755 436.832 348.947 438.042 348.947 439.461C348.947 440.888 348.757 442.107 348.378 443.117C347.999 444.123 347.451 444.892 346.735 445.425C346.019 445.953 345.158 446.217 344.153 446.217ZM344.153 444.511C345.039 444.511 345.732 444.078 346.23 443.213C346.733 442.348 346.984 441.097 346.984 439.461C346.984 438.374 346.869 437.456 346.639 436.706C346.413 435.952 346.087 435.381 345.661 434.993C345.239 434.601 344.737 434.405 344.153 434.405C343.271 434.405 342.578 434.839 342.075 435.709C341.572 436.578 341.319 437.829 341.315 439.461C341.315 440.552 341.428 441.474 341.653 442.229C341.884 442.979 342.21 443.548 342.631 443.935C343.053 444.319 343.56 444.511 344.153 444.511ZM355.772 446.217C354.762 446.213 353.899 445.947 353.183 445.418C352.467 444.89 351.92 444.121 351.54 443.111C351.161 442.101 350.971 440.884 350.971 439.461C350.971 438.042 351.161 436.83 351.54 435.824C351.924 434.818 352.474 434.051 353.189 433.523C353.91 432.994 354.77 432.73 355.772 432.73C356.773 432.73 357.632 432.996 358.348 433.529C359.064 434.058 359.611 434.825 359.991 435.83C360.374 436.832 360.566 438.042 360.566 439.461C360.566 440.888 360.376 442.107 359.997 443.117C359.618 444.123 359.07 444.892 358.354 445.425C357.638 445.953 356.778 446.217 355.772 446.217ZM355.772 444.511C356.658 444.511 357.351 444.078 357.849 443.213C358.352 442.348 358.604 441.097 358.604 439.461C358.604 438.374 358.488 437.456 358.258 436.706C358.032 435.952 357.706 435.381 357.28 434.993C356.858 434.601 356.356 434.405 355.772 434.405C354.89 434.405 354.197 434.839 353.694 435.709C353.192 436.578 352.938 437.829 352.934 439.461C352.934 440.552 353.047 441.474 353.273 442.229C353.503 442.979 353.829 443.548 354.251 443.935C354.672 444.319 355.18 444.511 355.772 444.511ZM363.644 446.121C363.294 446.121 362.994 445.998 362.742 445.751C362.491 445.499 362.365 445.197 362.365 444.843C362.365 444.494 362.491 444.195 362.742 443.948C362.994 443.697 363.294 443.571 363.644 443.571C363.993 443.571 364.294 443.697 364.545 443.948C364.796 444.195 364.922 444.494 364.922 444.843C364.922 445.077 364.862 445.293 364.743 445.489C364.628 445.68 364.475 445.834 364.283 445.949C364.091 446.064 363.878 446.121 363.644 446.121ZM371.539 446.217C370.529 446.213 369.667 445.947 368.951 445.418C368.235 444.89 367.687 444.121 367.308 443.111C366.929 442.101 366.739 440.884 366.739 439.461C366.739 438.042 366.929 436.83 367.308 435.824C367.691 434.818 368.241 434.051 368.957 433.523C369.677 432.994 370.538 432.73 371.539 432.73C372.541 432.73 373.4 432.996 374.115 433.529C374.831 434.058 375.379 434.825 375.758 435.83C376.142 436.832 376.333 438.042 376.333 439.461C376.333 440.888 376.144 442.107 375.765 443.117C375.385 444.123 374.838 444.892 374.122 445.425C373.406 445.953 372.545 446.217 371.539 446.217ZM371.539 444.511C372.426 444.511 373.118 444.078 373.617 443.213C374.12 442.348 374.371 441.097 374.371 439.461C374.371 438.374 374.256 437.456 374.026 436.706C373.8 435.952 373.474 435.381 373.048 434.993C372.626 434.601 372.123 434.405 371.539 434.405C370.657 434.405 369.965 434.839 369.462 435.709C368.959 436.578 368.706 437.829 368.701 439.461C368.701 440.552 368.814 441.474 369.04 442.229C369.27 442.979 369.596 443.548 370.018 443.935C370.44 444.319 370.947 444.511 371.539 444.511ZM383.159 446.217C382.149 446.213 381.286 445.947 380.57 445.418C379.854 444.89 379.306 444.121 378.927 443.111C378.548 442.101 378.358 440.884 378.358 439.461C378.358 438.042 378.548 436.83 378.927 435.824C379.311 434.818 379.86 434.051 380.576 433.523C381.296 432.994 382.157 432.73 383.159 432.73C384.16 432.73 385.019 432.996 385.735 433.529C386.45 434.058 386.998 434.825 387.377 435.83C387.761 436.832 387.953 438.042 387.953 439.461C387.953 440.888 387.763 442.107 387.384 443.117C387.004 444.123 386.457 444.892 385.741 445.425C385.025 445.953 384.164 446.217 383.159 446.217ZM383.159 444.511C384.045 444.511 384.737 444.078 385.236 443.213C385.739 442.348 385.99 441.097 385.99 439.461C385.99 438.374 385.875 437.456 385.645 436.706C385.419 435.952 385.093 435.381 384.667 434.993C384.245 434.601 383.742 434.405 383.159 434.405C382.276 434.405 381.584 434.839 381.081 435.709C380.578 436.578 380.325 437.829 380.32 439.461C380.32 440.552 380.433 441.474 380.659 442.229C380.889 442.979 381.215 443.548 381.637 443.935C382.059 444.319 382.566 444.511 383.159 444.511Z" fill="white"/>
<path d="M73 423H398" stroke="#2B394B"/>
<path d="M73 458H398" stroke="#2B394B"/>
<path d="M73 493H398" stroke="#2B394B"/>
<path d="M73 528H398" stroke="#2B394B"/>
</g>
<defs>
<filter id="filter0_d_11_372" x="-3" y="1" width="478" height="36" filterUnits="userSpaceOnUse" color-interpolation-filters="sRGB">
<feFlood flood-opacity="0" result="BackgroundImageFix"/>
<feColorMatrix in="SourceAlpha" type="matrix" values="0 0 0 0 0 0 0 0 0 0 0 0 0 0 0 0 0 0 127 0" result="hardAlpha"/>
<feOffset dy="4"/>
<feGaussianBlur stdDeviation="2"/>
<feComposite in2="hardAlpha" operator="out"/>
<feColorMatrix type="matrix" values="0 0 0 0 0 0 0 0 0 0 0 0 0 0 0 0 0 0 0.25 0"/>
<feBlend mode="normal" in2="BackgroundImageFix" result="effect1_dropShadow_11_372"/>
<feBlend mode="normal" in="SourceGraphic" in2="effect1_dropShadow_11_372" result="shape"/>
</filter>
<clipPath id="clip0_11_372">
<rect width="472" height="635" fill="white"/>
</clipPath>
</defs>
</svg>
