<svg width="625" height="635" viewBox="0 0 625 635" fill="none" xmlns="http://www.w3.org/2000/svg">
<g clip-path="url(#clip0_2_19)">
<rect width="625" height="635" fill="#18202A"/>
<g filter="url(#filter0_d_2_19)">
<rect x="1" y="1" width="623" height="28" fill="#2B2B2B"/>
</g>
<circle cx="606" cy="15" r="10" fill="#1F9EDE"/>
<path d="M602 11L610 19M602 19L610 11" stroke="white"/>
<path d="M278.459 14.3281H276.592C276.558 14.0866 276.489 13.8722 276.384 13.6847C276.278 13.4943 276.143 13.3324 275.979 13.1989C275.814 13.0653 275.624 12.9631 275.408 12.892C275.195 12.821 274.963 12.7855 274.713 12.7855C274.261 12.7855 273.868 12.8977 273.533 13.1222C273.197 13.3437 272.938 13.6676 272.753 14.0938C272.568 14.517 272.476 15.0312 272.476 15.6364C272.476 16.2585 272.568 16.7812 272.753 17.2045C272.94 17.6278 273.202 17.9474 273.537 18.1634C273.872 18.3793 274.26 18.4872 274.7 18.4872C274.947 18.4872 275.176 18.4545 275.386 18.3892C275.599 18.3239 275.788 18.2287 275.953 18.1037C276.118 17.9759 276.254 17.821 276.362 17.6392C276.473 17.4574 276.55 17.25 276.592 17.017L278.459 17.0256C278.411 17.4261 278.29 17.8125 278.097 18.1847C277.906 18.554 277.649 18.8849 277.325 19.1776C277.004 19.4673 276.621 19.6974 276.175 19.8679C275.732 20.0355 275.23 20.1193 274.67 20.1193C273.892 20.1193 273.196 19.9432 272.582 19.5909C271.972 19.2386 271.489 18.7287 271.134 18.0611C270.781 17.3935 270.605 16.5852 270.605 15.6364C270.605 14.6847 270.784 13.875 271.142 13.2074C271.5 12.5398 271.986 12.0312 272.599 11.6818C273.213 11.3295 273.903 11.1534 274.67 11.1534C275.176 11.1534 275.645 11.2244 276.077 11.3665C276.511 11.5085 276.896 11.7159 277.232 11.9886C277.567 12.2585 277.839 12.5895 278.05 12.9815C278.263 13.3736 278.399 13.8224 278.459 14.3281ZM281.614 20.1236C281.197 20.1236 280.825 20.0511 280.498 19.9062C280.171 19.7585 279.913 19.5412 279.722 19.2543C279.535 18.9645 279.441 18.6037 279.441 18.1719C279.441 17.8082 279.508 17.5028 279.641 17.2557C279.775 17.0085 279.957 16.8097 280.187 16.6591C280.417 16.5085 280.678 16.3949 280.971 16.3182C281.266 16.2415 281.576 16.1875 281.9 16.1562C282.281 16.1165 282.587 16.0795 282.82 16.0455C283.053 16.0085 283.222 15.9545 283.327 15.8835C283.433 15.8125 283.485 15.7074 283.485 15.5682V15.5426C283.485 15.2727 283.4 15.0639 283.229 14.9162C283.062 14.7685 282.823 14.6946 282.513 14.6946C282.187 14.6946 281.927 14.767 281.734 14.9119C281.54 15.054 281.413 15.233 281.35 15.4489L279.671 15.3125C279.756 14.9148 279.924 14.571 280.174 14.2812C280.424 13.9886 280.746 13.7642 281.141 13.608C281.539 13.4489 281.999 13.3693 282.522 13.3693C282.886 13.3693 283.234 13.4119 283.566 13.4972C283.901 13.5824 284.198 13.7145 284.457 13.8935C284.718 14.0724 284.924 14.3026 285.075 14.5838C285.225 14.8622 285.3 15.196 285.3 15.5852V20H283.579V19.0923H283.528C283.423 19.2969 283.282 19.4773 283.106 19.6335C282.93 19.7869 282.718 19.9077 282.471 19.9957C282.224 20.081 281.938 20.1236 281.614 20.1236ZM282.134 18.8707C282.401 18.8707 282.637 18.8182 282.842 18.7131C283.046 18.6051 283.207 18.4602 283.323 18.2784C283.44 18.0966 283.498 17.8906 283.498 17.6605V16.9659C283.441 17.0028 283.363 17.0369 283.263 17.0682C283.167 17.0966 283.058 17.1236 282.935 17.1491C282.813 17.1719 282.691 17.1932 282.569 17.2131C282.447 17.2301 282.336 17.2457 282.237 17.2599C282.023 17.2912 281.837 17.3409 281.678 17.4091C281.519 17.4773 281.396 17.5696 281.308 17.6861C281.219 17.7997 281.175 17.9418 281.175 18.1122C281.175 18.3594 281.265 18.5483 281.444 18.679C281.626 18.8068 281.856 18.8707 282.134 18.8707ZM288.524 11.2727V20H286.709V11.2727H288.524ZM292.936 20.1278C292.265 20.1278 291.689 19.9858 291.206 19.7017C290.725 19.4148 290.356 19.017 290.098 18.5085C289.842 18 289.714 17.4148 289.714 16.7528C289.714 16.0824 289.843 15.4943 290.102 14.9886C290.363 14.4801 290.734 14.0838 291.214 13.7997C291.694 13.5128 292.265 13.3693 292.927 13.3693C293.498 13.3693 293.998 13.473 294.427 13.6804C294.856 13.8878 295.196 14.179 295.446 14.554C295.696 14.929 295.833 15.3693 295.859 15.875H294.146C294.098 15.5483 293.97 15.2855 293.762 15.0866C293.558 14.8849 293.289 14.7841 292.957 14.7841C292.676 14.7841 292.43 14.8608 292.22 15.0142C292.012 15.1648 291.85 15.3849 291.734 15.6747C291.618 15.9645 291.559 16.3153 291.559 16.7273C291.559 17.1449 291.616 17.5 291.73 17.7926C291.846 18.0852 292.01 18.3082 292.22 18.4616C292.43 18.6151 292.676 18.6918 292.957 18.6918C293.164 18.6918 293.35 18.6491 293.515 18.5639C293.683 18.4787 293.821 18.3551 293.929 18.1932C294.039 18.0284 294.112 17.831 294.146 17.6009H295.859C295.831 18.1009 295.694 18.5412 295.45 18.9219C295.208 19.2997 294.875 19.5952 294.449 19.8082C294.022 20.0213 293.518 20.1278 292.936 20.1278ZM301.219 17.2131V13.4545H303.034V20H301.291V18.8111H301.223C301.075 19.1946 300.83 19.5028 300.486 19.7358C300.145 19.9687 299.729 20.0852 299.237 20.0852C298.8 20.0852 298.415 19.9858 298.082 19.7869C297.75 19.5881 297.49 19.3054 297.303 18.9389C297.118 18.5724 297.024 18.1335 297.021 17.6222V13.4545H298.837V17.2983C298.839 17.6847 298.943 17.9901 299.148 18.2145C299.352 18.4389 299.626 18.5511 299.97 18.5511C300.189 18.5511 300.393 18.5014 300.584 18.402C300.774 18.2997 300.928 18.1491 301.044 17.9503C301.163 17.7514 301.222 17.5057 301.219 17.2131ZM306.301 11.2727V20H304.486V11.2727H306.301ZM309.622 20.1236C309.205 20.1236 308.832 20.0511 308.506 19.9062C308.179 19.7585 307.92 19.5412 307.73 19.2543C307.543 18.9645 307.449 18.6037 307.449 18.1719C307.449 17.8082 307.516 17.5028 307.649 17.2557C307.783 17.0085 307.964 16.8097 308.195 16.6591C308.425 16.5085 308.686 16.3949 308.979 16.3182C309.274 16.2415 309.584 16.1875 309.908 16.1562C310.288 16.1165 310.595 16.0795 310.828 16.0455C311.061 16.0085 311.23 15.9545 311.335 15.8835C311.44 15.8125 311.493 15.7074 311.493 15.5682V15.5426C311.493 15.2727 311.408 15.0639 311.237 14.9162C311.07 14.7685 310.831 14.6946 310.521 14.6946C310.195 14.6946 309.935 14.767 309.741 14.9119C309.548 15.054 309.42 15.233 309.358 15.4489L307.679 15.3125C307.764 14.9148 307.932 14.571 308.182 14.2812C308.432 13.9886 308.754 13.7642 309.149 13.608C309.547 13.4489 310.007 13.3693 310.53 13.3693C310.893 13.3693 311.241 13.4119 311.574 13.4972C311.909 13.5824 312.206 13.7145 312.464 13.8935C312.726 14.0724 312.932 14.3026 313.082 14.5838C313.233 14.8622 313.308 15.196 313.308 15.5852V20H311.587V19.0923H311.536C311.43 19.2969 311.29 19.4773 311.114 19.6335C310.938 19.7869 310.726 19.9077 310.479 19.9957C310.232 20.081 309.946 20.1236 309.622 20.1236ZM310.142 18.8707C310.409 18.8707 310.645 18.8182 310.849 18.7131C311.054 18.6051 311.214 18.4602 311.331 18.2784C311.447 18.0966 311.506 17.8906 311.506 17.6605V16.9659C311.449 17.0028 311.371 17.0369 311.271 17.0682C311.175 17.0966 311.065 17.1236 310.943 17.1491C310.821 17.1719 310.699 17.1932 310.577 17.2131C310.455 17.2301 310.344 17.2457 310.244 17.2599C310.031 17.2912 309.845 17.3409 309.686 17.4091C309.527 17.4773 309.403 17.5696 309.315 17.6861C309.227 17.7997 309.183 17.9418 309.183 18.1122C309.183 18.3594 309.273 18.5483 309.452 18.679C309.634 18.8068 309.864 18.8707 310.142 18.8707ZM318.198 13.4545V14.8182H314.256V13.4545H318.198ZM315.151 11.8864H316.967V17.9886C316.967 18.1562 316.992 18.2869 317.043 18.3807C317.094 18.4716 317.165 18.5355 317.256 18.5724C317.35 18.6094 317.458 18.6278 317.58 18.6278C317.665 18.6278 317.751 18.6207 317.836 18.6065C317.921 18.5895 317.987 18.5767 318.032 18.5682L318.317 19.919C318.227 19.9474 318.099 19.9801 317.934 20.017C317.769 20.0568 317.569 20.081 317.333 20.0895C316.896 20.1065 316.512 20.0483 316.183 19.9148C315.856 19.7812 315.602 19.5739 315.42 19.2926C315.238 19.0114 315.148 18.6562 315.151 18.2273V11.8864ZM322.268 20.1278C321.606 20.1278 321.033 19.9872 320.55 19.706C320.07 19.4219 319.7 19.027 319.438 18.5213C319.177 18.0128 319.046 17.4233 319.046 16.7528C319.046 16.0767 319.177 15.4858 319.438 14.9801C319.7 14.4716 320.07 14.0767 320.55 13.7955C321.033 13.5114 321.606 13.3693 322.268 13.3693C322.93 13.3693 323.501 13.5114 323.981 13.7955C324.464 14.0767 324.836 14.4716 325.097 14.9801C325.359 15.4858 325.489 16.0767 325.489 16.7528C325.489 17.4233 325.359 18.0128 325.097 18.5213C324.836 19.027 324.464 19.4219 323.981 19.706C323.501 19.9872 322.93 20.1278 322.268 20.1278ZM322.276 18.7216C322.577 18.7216 322.829 18.6364 323.031 18.4659C323.232 18.2926 323.384 18.0568 323.487 17.7585C323.592 17.4602 323.644 17.1207 323.644 16.7401C323.644 16.3594 323.592 16.0199 323.487 15.7216C323.384 15.4233 323.232 15.1875 323.031 15.0142C322.829 14.8409 322.577 14.7543 322.276 14.7543C321.972 14.7543 321.717 14.8409 321.509 15.0142C321.305 15.1875 321.15 15.4233 321.045 15.7216C320.942 16.0199 320.891 16.3594 320.891 16.7401C320.891 17.1207 320.942 17.4602 321.045 17.7585C321.15 18.0568 321.305 18.2926 321.509 18.4659C321.717 18.6364 321.972 18.7216 322.276 18.7216ZM326.67 20V13.4545H328.43V14.5966H328.498C328.617 14.1903 328.817 13.8835 329.099 13.6761C329.38 13.4659 329.704 13.3608 330.07 13.3608C330.161 13.3608 330.259 13.3665 330.364 13.3778C330.469 13.3892 330.562 13.4048 330.641 13.4247V15.0355C330.556 15.0099 330.438 14.9872 330.288 14.9673C330.137 14.9474 329.999 14.9375 329.874 14.9375C329.607 14.9375 329.369 14.9957 329.158 15.1122C328.951 15.2259 328.786 15.3849 328.664 15.5895C328.545 15.794 328.485 16.0298 328.485 16.2969V20H326.67ZM335.459 15.696V17.1364H331.479V15.696H335.459ZM337.006 22.4545V13.4545H338.795V14.554H338.876C338.956 14.3778 339.071 14.1989 339.222 14.017C339.375 13.8324 339.574 13.679 339.818 13.5568C340.065 13.4318 340.372 13.3693 340.739 13.3693C341.216 13.3693 341.656 13.4943 342.06 13.7443C342.463 13.9915 342.786 14.3651 343.027 14.8651C343.268 15.3622 343.389 15.9858 343.389 16.7358C343.389 17.4659 343.271 18.0824 343.036 18.5852C342.803 19.0852 342.484 19.4645 342.081 19.723C341.68 19.9787 341.232 20.1065 340.734 20.1065C340.382 20.1065 340.082 20.0483 339.835 19.9318C339.591 19.8153 339.391 19.669 339.234 19.4929C339.078 19.3139 338.959 19.1335 338.876 18.9517H338.821V22.4545H337.006ZM338.783 16.7273C338.783 17.1165 338.837 17.456 338.945 17.7457C339.053 18.0355 339.209 18.2614 339.413 18.4233C339.618 18.5824 339.866 18.6619 340.159 18.6619C340.455 18.6619 340.705 18.581 340.909 18.419C341.114 18.2543 341.268 18.027 341.374 17.7372C341.482 17.4446 341.536 17.108 341.536 16.7273C341.536 16.3494 341.483 16.017 341.378 15.7301C341.273 15.4432 341.118 15.2187 340.913 15.0568C340.709 14.8949 340.457 14.8139 340.159 14.8139C339.864 14.8139 339.614 14.892 339.409 15.0483C339.207 15.2045 339.053 15.4261 338.945 15.7131C338.837 16 338.783 16.3381 338.783 16.7273ZM344.599 20V13.4545H346.359V14.5966H346.428C346.547 14.1903 346.747 13.8835 347.028 13.6761C347.31 13.4659 347.634 13.3608 348 13.3608C348.091 13.3608 348.189 13.3665 348.294 13.3778C348.399 13.3892 348.491 13.4048 348.571 13.4247V15.0355C348.486 15.0099 348.368 14.9872 348.217 14.9673C348.067 14.9474 347.929 14.9375 347.804 14.9375C347.537 14.9375 347.298 14.9957 347.088 15.1122C346.881 15.2259 346.716 15.3849 346.594 15.5895C346.474 15.794 346.415 16.0298 346.415 16.2969V20H344.599ZM352.162 20.1278C351.5 20.1278 350.928 19.9872 350.445 19.706C349.965 19.4219 349.594 19.027 349.333 18.5213C349.071 18.0128 348.941 17.4233 348.941 16.7528C348.941 16.0767 349.071 15.4858 349.333 14.9801C349.594 14.4716 349.965 14.0767 350.445 13.7955C350.928 13.5114 351.5 13.3693 352.162 13.3693C352.824 13.3693 353.395 13.5114 353.875 13.7955C354.358 14.0767 354.73 14.4716 354.992 14.9801C355.253 15.4858 355.384 16.0767 355.384 16.7528C355.384 17.4233 355.253 18.0128 354.992 18.5213C354.73 19.027 354.358 19.4219 353.875 19.706C353.395 19.9872 352.824 20.1278 352.162 20.1278ZM352.171 18.7216C352.472 18.7216 352.723 18.6364 352.925 18.4659C353.127 18.2926 353.279 18.0568 353.381 17.7585C353.486 17.4602 353.539 17.1207 353.539 16.7401C353.539 16.3594 353.486 16.0199 353.381 15.7216C353.279 15.4233 353.127 15.1875 352.925 15.0142C352.723 14.8409 352.472 14.7543 352.171 14.7543C351.867 14.7543 351.611 14.8409 351.404 15.0142C351.199 15.1875 351.044 15.4233 350.939 15.7216C350.837 16.0199 350.786 16.3594 350.786 16.7401C350.786 17.1207 350.837 17.4602 350.939 17.7585C351.044 18.0568 351.199 18.2926 351.404 18.4659C351.611 18.6364 351.867 18.7216 352.171 18.7216Z" fill="white"/>
<path d="M564.5 610H529.5C519.869 610 512 602.131 512 592.5V557.5C512 547.869 519.869 540 529.5 540H564.5C574.131 540 582 547.869 582 557.5V592.5C581.883 602.131 574.131 610 564.5 610Z" fill="#1A2532"/>
<path d="M486.5 610H451.5C441.869 610 434 602.131 434 592.5V557.5C434 547.869 441.869 540 451.5 540H486.5C496.131 540 504 547.869 504 557.5V592.5C503.883 602.131 496.131 610 486.5 610Z" fill="#E5E5E5"/>
<path d="M330.5 610H295.5C285.869 610 278 602.131 278 592.5V557.5C278 547.869 285.869 540 295.5 540H330.5C340.131 540 348 547.869 348 557.5V592.5C347.883 602.131 340.131 610 330.5 610Z" fill="#E5E5E5"/>
<path d="M408.5 610H373.5C363.869 610 356 602.131 356 592.5V557.5C356 547.869 363.869 540 373.5 540H408.5C418.131 540 426 547.869 426 557.5V592.5C425.883 602.131 418.131 610 408.5 610Z" fill="#E5E5E5"/>
<path d="M389 610H315C294.638 610 278 602.131 278 592.5V557.5C278 547.869 294.638 540 315 540H389C409.362 540 426 547.869 426 557.5V592.5C425.752 602.131 409.362 610 389 610Z" fill="#E5E5E5"/>
<path d="M417.241 577.636L418.205 579.335L419.176 577.636H420.105L418.744 579.818L420.116 582H419.188L418.205 580.369L417.224 582H416.293L417.651 579.818L416.31 577.636H417.241Z" fill="#222222"/>
<path d="M357.108 549.636C356.981 549.636 356.866 549.626 356.761 549.605C356.657 549.586 356.58 549.565 356.528 549.543L356.733 548.847C356.888 548.888 357.027 548.906 357.148 548.901C357.269 548.895 357.376 548.849 357.469 548.764C357.563 548.679 357.647 548.54 357.719 548.347L357.824 548.057L356.227 543.636H357.136L358.241 547.023H358.287L359.392 543.636H360.304L358.506 548.582C358.422 548.81 358.316 549.002 358.188 549.159C358.059 549.318 357.905 549.438 357.727 549.517C357.549 549.597 357.343 549.636 357.108 549.636Z" fill="#222222"/>
<path d="M352.003 545V605.121M416.1 574H288" stroke="#222222" stroke-width="1.3"/>
<path d="M288.5 555H415.5" stroke="black" stroke-opacity="0.4" stroke-width="0.8"/>
<path d="M289 595H416" stroke="black" stroke-opacity="0.4" stroke-width="0.8"/>
<path d="M313 545V605" stroke="black" stroke-opacity="0.4" stroke-width="0.8"/>
<path d="M332 545V605" stroke="black" stroke-opacity="0.4" stroke-width="0.8"/>
<path d="M373 545V605" stroke="black" stroke-opacity="0.4" stroke-width="0.8"/>
<path d="M393 545V605" stroke="black" stroke-opacity="0.4" stroke-width="0.8"/>
<path d="M252.5 610H217.5C207.869 610 200 602.131 200 592.5V557.5C200 547.869 207.869 540 217.5 540H252.5C262.131 540 270 547.869 270 557.5V592.5C269.883 602.131 262.131 610 252.5 610Z" fill="#FF6531"/>
<g style="mix-blend-mode:color-dodge">
<path d="M174.5 610H139.5C129.869 610 122 602.131 122 592.5V557.5C122 547.869 129.869 540 139.5 540H174.5C184.131 540 192 547.869 192 557.5V592.5C191.883 602.131 184.131 610 174.5 610Z" fill="#18202A"/>
</g>
<path d="M156.109 583.148C155.682 583.148 155.315 582.997 155.008 582.695C154.701 582.388 154.547 582.018 154.547 581.586C154.547 581.159 154.701 580.794 155.008 580.492C155.315 580.185 155.682 580.031 156.109 580.031C156.536 580.031 156.904 580.185 157.211 580.492C157.518 580.794 157.672 581.159 157.672 581.586C157.672 581.872 157.599 582.135 157.453 582.375C157.313 582.609 157.125 582.797 156.891 582.937C156.656 583.078 156.396 583.148 156.109 583.148Z" fill="white"/>
<g style="mix-blend-mode:color-dodge">
<path d="M96.5 610H61.5C51.8691 610 44 602.131 44 592.5V557.5C44 547.869 51.8691 540 61.5 540H96.5C106.131 540 114 547.869 114 557.5V592.5C113.883 602.131 106.131 610 96.5 610Z" fill="#18202A"/>
</g>
<path d="M78.1094 584.266C76.875 584.26 75.8203 583.935 74.9453 583.289C74.0703 582.643 73.401 581.703 72.9375 580.469C72.474 579.234 72.2422 577.747 72.2422 576.008C72.2422 574.273 72.474 572.792 72.9375 571.562C73.4063 570.333 74.0781 569.396 74.9531 568.75C75.8333 568.104 76.8854 567.781 78.1094 567.781C79.3333 567.781 80.3828 568.107 81.2578 568.758C82.1328 569.404 82.8021 570.341 83.2656 571.57C83.7344 572.794 83.9687 574.273 83.9687 576.008C83.9687 577.753 83.737 579.242 83.2734 580.477C82.8099 581.706 82.1406 582.646 81.2656 583.297C80.3906 583.943 79.3385 584.266 78.1094 584.266ZM78.1094 582.18C79.1927 582.18 80.0391 581.651 80.6484 580.594C81.263 579.536 81.5703 578.008 81.5703 576.008C81.5703 574.68 81.4297 573.557 81.1484 572.641C80.8724 571.719 80.474 571.021 79.9531 570.547C79.4375 570.068 78.8229 569.828 78.1094 569.828C77.0313 569.828 76.1849 570.359 75.5703 571.422C74.9557 572.484 74.6458 574.013 74.6406 576.008C74.6406 577.341 74.7786 578.469 75.0547 579.391C75.3359 580.307 75.7344 581.003 76.25 581.477C76.7656 581.945 77.3854 582.18 78.1094 582.18Z" fill="white"/>
<path d="M564.5 532H529.5C519.869 532 512 524.131 512 514.5V479.5C512 469.869 519.869 462 529.5 462H564.5C574.131 462 582 469.869 582 479.5V514.5C581.883 524.131 574.131 532 564.5 532Z" fill="#1A2532"/>
<path d="M486.5 532H451.5C441.869 532 434 524.131 434 514.5V479.5C434 469.869 441.869 462 451.5 462H486.5C496.131 462 504 469.869 504 479.5V514.5C503.883 524.131 496.131 532 486.5 532Z" fill="#E5E5E5"/>
<path d="M408.5 532H373.5C363.869 532 356 524.131 356 514.5V479.5C356 469.869 363.869 462 373.5 462H408.5C418.131 462 426 469.869 426 479.5V514.5C425.883 524.131 418.131 532 408.5 532Z" fill="#E5E5E5"/>
<path d="M330.5 532H295.5C285.869 532 278 524.131 278 514.5V479.5C278 469.869 285.869 462 295.5 462H330.5C340.131 462 348 469.869 348 479.5V514.5C347.883 524.131 340.131 532 330.5 532Z" fill="#E5E5E5"/>
<path d="M311.273 504.984V494.422H313.375V504.984H311.273ZM307.047 500.75V498.648H317.609V500.75H307.047Z" fill="#222222"/>
<g style="mix-blend-mode:color-dodge">
<path d="M252.5 532H217.5C207.869 532 200 524.131 200 514.5V479.5C200 469.869 207.869 462 217.5 462H252.5C262.131 462 270 469.869 270 479.5V514.5C269.883 524.131 262.131 532 252.5 532Z" fill="#18202A"/>
</g>
<path d="M234.109 506.219C233.036 506.219 232.078 506.034 231.234 505.664C230.396 505.294 229.732 504.781 229.242 504.125C228.758 503.464 228.497 502.698 228.461 501.828H230.914C230.945 502.302 231.104 502.714 231.391 503.062C231.682 503.406 232.063 503.672 232.531 503.859C233 504.047 233.521 504.141 234.094 504.141C234.724 504.141 235.281 504.031 235.766 503.812C236.255 503.594 236.638 503.289 236.914 502.898C237.19 502.503 237.328 502.047 237.328 501.531C237.328 500.995 237.19 500.523 236.914 500.117C236.643 499.706 236.245 499.383 235.719 499.148C235.198 498.914 234.568 498.797 233.828 498.797H232.477V496.828H233.828C234.422 496.828 234.943 496.721 235.391 496.508C235.844 496.294 236.198 495.997 236.453 495.617C236.708 495.232 236.836 494.781 236.836 494.266C236.836 493.771 236.724 493.341 236.5 492.977C236.281 492.607 235.969 492.318 235.563 492.109C235.161 491.901 234.688 491.797 234.141 491.797C233.62 491.797 233.133 491.893 232.68 492.086C232.232 492.273 231.867 492.544 231.586 492.898C231.305 493.247 231.154 493.667 231.133 494.156H228.797C228.823 493.292 229.078 492.531 229.563 491.875C230.052 491.219 230.698 490.706 231.5 490.336C232.302 489.966 233.193 489.781 234.172 489.781C235.198 489.781 236.083 489.982 236.828 490.383C237.578 490.779 238.156 491.307 238.563 491.969C238.974 492.63 239.177 493.354 239.172 494.141C239.177 495.036 238.927 495.797 238.422 496.422C237.922 497.047 237.255 497.466 236.422 497.68V497.805C237.484 497.966 238.307 498.388 238.891 499.07C239.479 499.753 239.771 500.599 239.766 501.609C239.771 502.49 239.526 503.279 239.031 503.977C238.542 504.674 237.872 505.224 237.023 505.625C236.174 506.021 235.203 506.219 234.109 506.219Z" fill="white"/>
<g style="mix-blend-mode:color-dodge">
<path d="M174.5 532H139.5C129.869 532 122 524.131 122 514.5V479.5C122 469.869 129.869 462 139.5 462H174.5C184.131 462 192 469.869 192 479.5V514.5C191.883 524.131 184.131 532 174.5 532Z" fill="#18202A"/>
</g>
<path d="M151.539 506V504.25L156.953 498.641C157.531 498.031 158.008 497.497 158.383 497.039C158.763 496.576 159.047 496.135 159.234 495.719C159.422 495.302 159.516 494.859 159.516 494.391C159.516 493.859 159.391 493.401 159.141 493.016C158.891 492.625 158.549 492.326 158.117 492.117C157.685 491.904 157.198 491.797 156.656 491.797C156.083 491.797 155.583 491.914 155.156 492.148C154.729 492.383 154.401 492.714 154.172 493.141C153.943 493.568 153.828 494.068 153.828 494.641H151.523C151.523 493.667 151.747 492.815 152.195 492.086C152.643 491.357 153.258 490.792 154.039 490.391C154.82 489.984 155.708 489.781 156.703 489.781C157.708 489.781 158.594 489.982 159.359 490.383C160.13 490.779 160.732 491.32 161.164 492.008C161.596 492.69 161.812 493.461 161.812 494.32C161.812 494.914 161.701 495.495 161.477 496.062C161.258 496.63 160.875 497.263 160.328 497.961C159.781 498.654 159.021 499.495 158.047 500.484L154.867 503.812V503.93H162.07V506H151.539Z" fill="white"/>
<g style="mix-blend-mode:color-dodge">
<path d="M96.5 532H61.5C51.8691 532 44 524.131 44 514.5V479.5C44 469.869 51.8691 462 61.5 462H96.5C106.131 462 114 469.869 114 479.5V514.5C113.883 524.131 106.131 532 96.5 532Z" fill="#18202A"/>
</g>
<path d="M80.6094 490V506H78.1875V492.422H78.0938L74.2656 494.922V492.609L78.2578 490H80.6094Z" fill="white"/>
<path d="M564.5 454H529.5C519.869 454 512 446.131 512 436.5V401.5C512 391.869 519.869 384 529.5 384H564.5C574.131 384 582 391.869 582 401.5V436.5C581.883 446.131 574.131 454 564.5 454Z" fill="#1A2532"/>
<g style="mix-blend-mode:overlay">
<path d="M27.75 63H15.25C11.8104 63 9 60.1896 9 56.75V44.25C9 40.8104 11.8104 38 15.25 38H27.75C31.1896 38 34 40.8104 34 44.25V56.75C33.9581 60.1896 31.1896 63 27.75 63Z" fill="#E5E5E5"/>
</g>
<path d="M351.75 63H339.25C335.81 63 333 60.1896 333 56.75V44.25C333 40.8104 335.81 38 339.25 38H351.75C355.19 38 358 40.8104 358 44.25V56.75C357.958 60.1896 355.19 63 351.75 63Z" fill="#2B394B"/>
<path d="M286.75 63H274.25C270.81 63 268 60.1896 268 56.75V44.25C268 40.8104 270.81 38 274.25 38H286.75C290.19 38 293 40.8104 293 44.25V56.75C292.958 60.1896 290.19 63 286.75 63Z" fill="#2B394B"/>
<path d="M335.5 63H290.5C278.117 63 268 60.1896 268 56.75V44.25C268 40.8104 278.117 38 290.5 38H335.5C347.883 38 358 40.8104 358 44.25V56.75C357.849 60.1896 347.883 63 335.5 63Z" fill="#2B394B"/>
<path d="M486.5 454H451.5C441.869 454 434 446.131 434 436.5V401.5C434 391.869 441.869 384 451.5 384H486.5C496.131 384 504 391.869 504 401.5V436.5C503.883 446.131 496.131 454 486.5 454Z" fill="#E5E5E5"/>
<path d="M408.5 454H373.5C363.869 454 356 446.131 356 436.5V401.5C356 391.869 363.869 384 373.5 384H408.5C418.131 384 426 391.869 426 401.5V436.5C425.883 446.131 418.131 454 408.5 454Z" fill="#E5E5E5"/>
<path d="M330.5 454H295.5C285.869 454 278 446.131 278 436.5V401.5C278 391.869 285.869 384 295.5 384H330.5C340.131 384 348 391.869 348 401.5V436.5C347.883 446.131 340.131 454 330.5 454Z" fill="#E5E5E5"/>
<g style="mix-blend-mode:color-dodge">
<path d="M252.5 454H217.5C207.869 454 200 446.131 200 436.5V401.5C200 391.869 207.869 384 217.5 384H252.5C262.131 384 270 391.869 270 401.5V436.5C269.883 446.131 262.131 454 252.5 454Z" fill="#18202A"/>
</g>
<path d="M235.125 428.219C234.411 428.208 233.708 428.078 233.016 427.828C232.328 427.578 231.703 427.161 231.141 426.578C230.578 425.995 230.128 425.211 229.789 424.227C229.456 423.242 229.289 422.013 229.289 420.539C229.289 419.143 229.427 417.904 229.703 416.82C229.984 415.737 230.388 414.823 230.914 414.078C231.44 413.328 232.076 412.758 232.82 412.367C233.565 411.977 234.401 411.781 235.328 411.781C236.281 411.781 237.128 411.969 237.867 412.344C238.607 412.719 239.206 413.237 239.664 413.898C240.128 414.56 240.422 415.312 240.547 416.156H238.164C238.003 415.49 237.682 414.945 237.203 414.523C236.724 414.102 236.099 413.891 235.328 413.891C234.156 413.891 233.242 414.401 232.586 415.422C231.935 416.443 231.607 417.862 231.602 419.68H231.719C231.995 419.227 232.333 418.841 232.734 418.523C233.141 418.201 233.594 417.953 234.094 417.781C234.599 417.604 235.13 417.516 235.688 417.516C236.615 417.516 237.453 417.742 238.203 418.195C238.958 418.643 239.56 419.263 240.008 420.055C240.456 420.846 240.68 421.753 240.68 422.773C240.68 423.794 240.448 424.719 239.984 425.547C239.526 426.375 238.88 427.031 238.047 427.516C237.214 427.995 236.24 428.229 235.125 428.219ZM235.117 426.187C235.732 426.187 236.281 426.036 236.766 425.734C237.25 425.432 237.633 425.026 237.914 424.516C238.195 424.005 238.336 423.435 238.336 422.805C238.336 422.19 238.198 421.63 237.922 421.125C237.651 420.62 237.276 420.219 236.797 419.922C236.323 419.625 235.781 419.477 235.172 419.477C234.708 419.477 234.279 419.565 233.883 419.742C233.492 419.919 233.148 420.164 232.852 420.477C232.555 420.789 232.32 421.148 232.148 421.555C231.982 421.956 231.898 422.38 231.898 422.828C231.898 423.427 232.036 423.982 232.313 424.492C232.594 425.003 232.977 425.414 233.461 425.727C233.951 426.034 234.503 426.187 235.117 426.187Z" fill="white"/>
<g style="mix-blend-mode:color-dodge">
<path d="M174.5 454H139.5C129.869 454 122 446.131 122 436.5V401.5C122 391.869 129.869 384 139.5 384H174.5C184.131 384 192 391.869 192 401.5V436.5C191.883 446.131 184.131 454 174.5 454Z" fill="#18202A"/>
</g>
<path d="M156.82 428.219C155.841 428.219 154.961 428.031 154.18 427.656C153.404 427.276 152.784 426.755 152.32 426.094C151.857 425.432 151.609 424.677 151.578 423.828H153.922C153.979 424.516 154.284 425.081 154.836 425.523C155.388 425.966 156.049 426.187 156.82 426.187C157.435 426.187 157.979 426.047 158.453 425.766C158.932 425.479 159.307 425.086 159.578 424.586C159.854 424.086 159.992 423.516 159.992 422.875C159.992 422.224 159.852 421.643 159.57 421.133C159.289 420.622 158.901 420.221 158.406 419.93C157.917 419.638 157.354 419.49 156.719 419.484C156.234 419.484 155.747 419.568 155.258 419.734C154.768 419.901 154.372 420.12 154.07 420.391L151.859 420.062L152.758 412H161.555V414.07H154.766L154.258 418.547H154.352C154.664 418.245 155.078 417.992 155.594 417.789C156.115 417.586 156.672 417.484 157.266 417.484C158.24 417.484 159.107 417.716 159.867 418.18C160.633 418.643 161.234 419.276 161.672 420.078C162.115 420.875 162.333 421.792 162.328 422.828C162.333 423.865 162.099 424.789 161.625 425.602C161.156 426.414 160.505 427.055 159.672 427.523C158.844 427.987 157.893 428.219 156.82 428.219Z" fill="white"/>
<g style="mix-blend-mode:color-dodge">
<path d="M96.5 454H61.5C51.8691 454 44 446.131 44 436.5V401.5C44 391.869 51.8691 384 61.5 384H96.5C106.131 384 114 391.869 114 401.5V436.5C113.883 446.131 106.131 454 96.5 454Z" fill="#18202A"/>
</g>
<path d="M72.2031 424.875V422.922L79.1172 412H80.6563V414.875H79.6797L74.7344 422.703V422.828H84.2109V424.875H72.2031ZM79.7891 428V424.281L79.8047 423.391V412H82.0938V428H79.7891Z" fill="white"/>
<path d="M564.5 376H529.5C519.869 376 512 368.131 512 358.5V323.5C512 313.869 519.869 306 529.5 306H564.5C574.131 306 582 313.869 582 323.5V358.5C581.883 368.131 574.131 376 564.5 376Z" fill="#E5E5E5"/>
<path d="M486.5 376H451.5C441.869 376 434 368.131 434 358.5V323.5C434 313.869 441.869 306 451.5 306H486.5C496.131 306 504 313.869 504 323.5V358.5C503.883 368.131 496.131 376 486.5 376Z" fill="#E5E5E5"/>
<path d="M462.414 336L465.063 340.672L467.734 336H470.289L466.547 342L470.32 348H467.766L465.063 343.516L462.367 348H459.805L463.539 342L459.852 336H462.414ZM475.633 332L475.43 343.398H473.266L473.063 332H475.633ZM474.352 348.148C473.919 348.148 473.549 347.997 473.242 347.695C472.935 347.388 472.784 347.018 472.789 346.586C472.784 346.159 472.935 345.794 473.242 345.492C473.549 345.185 473.919 345.031 474.352 345.031C474.773 345.031 475.138 345.185 475.445 345.492C475.753 345.794 475.909 346.159 475.914 346.586C475.909 346.872 475.833 347.135 475.688 347.375C475.547 347.609 475.359 347.797 475.125 347.937C474.891 348.078 474.633 348.148 474.352 348.148Z" fill="#222222"/>
<path d="M408.5 376H373.5C363.869 376 356 368.131 356 358.5V323.5C356 313.869 363.869 306 373.5 306H408.5C418.131 306 426 313.869 426 323.5V358.5C425.883 368.131 418.131 376 408.5 376Z" fill="#E5E5E5"/>
<path d="M386.414 338L389.063 342.672L391.734 338H394.289L390.547 344L394.32 350H391.766L389.063 345.516L386.367 350H383.805L387.539 344L383.852 338H386.414Z" fill="#222222"/>
<path d="M397.953 333.437V337H396.785V331H397.906V331.977H397.98C398.118 331.659 398.335 331.404 398.629 331.211C398.926 331.018 399.299 330.922 399.75 330.922C400.159 330.922 400.517 331.008 400.824 331.18C401.132 331.349 401.37 331.602 401.539 331.937C401.708 332.273 401.793 332.689 401.793 333.184V337H400.625V333.324C400.625 332.889 400.512 332.549 400.285 332.305C400.059 332.057 399.747 331.934 399.352 331.934C399.081 331.934 398.84 331.992 398.629 332.109C398.421 332.227 398.255 332.398 398.133 332.625C398.013 332.849 397.953 333.12 397.953 333.437Z" fill="#222222"/>
<path d="M330.5 376H295.5C285.869 376 278 368.131 278 358.5V323.5C278 313.869 285.869 306 295.5 306H330.5C340.131 306 348 313.869 348 323.5V358.5C347.883 368.131 340.131 376 330.5 376Z" fill="#E5E5E5"/>
<path d="M306.406 347.453L310.961 334H313.289L307.703 350H306.07L306.406 347.453ZM304.859 341.656L306.898 347.516L307.258 350H305.695L302.477 341.656H304.859ZM301.039 343.68V341.656H304.75V343.68H301.039Z" fill="#222222"/>
<path d="M312 334.5L312.5 333H327.5" stroke="#222222" stroke-width="2"/>
<path d="M295.953 337.437V341H294.785V335H295.906V335.977H295.98C296.118 335.659 296.335 335.404 296.629 335.211C296.926 335.018 297.299 334.922 297.75 334.922C298.159 334.922 298.517 335.008 298.824 335.18C299.132 335.349 299.37 335.602 299.539 335.937C299.708 336.273 299.793 336.689 299.793 337.184V341H298.625V337.324C298.625 336.889 298.512 336.549 298.285 336.305C298.059 336.057 297.747 335.934 297.352 335.934C297.081 335.934 296.84 335.992 296.629 336.109C296.421 336.227 296.255 336.398 296.133 336.625C296.013 336.849 295.953 337.12 295.953 337.437Z" fill="#222222"/>
<path d="M317.414 338L320.063 342.672L322.734 338H325.289L321.547 344L325.32 350H322.766L320.063 345.516L317.367 350H314.805L318.539 344L314.852 338H317.414Z" fill="#222222"/>
<g style="mix-blend-mode:color-dodge">
<path d="M252.5 376H217.5C207.869 376 200 368.131 200 358.5V323.5C200 313.869 207.869 306 217.5 306H252.5C262.131 306 270 313.869 270 323.5V358.5C269.883 368.131 262.131 376 252.5 376Z" fill="#18202A"/>
</g>
<path d="M234.859 333.781C235.573 333.786 236.276 333.917 236.969 334.172C237.661 334.427 238.286 334.844 238.844 335.422C239.406 336 239.854 336.781 240.188 337.766C240.526 338.745 240.698 339.964 240.703 341.422C240.703 342.823 240.563 344.07 240.281 345.164C240 346.253 239.596 347.172 239.07 347.922C238.549 348.672 237.917 349.242 237.172 349.633C236.427 350.023 235.589 350.219 234.656 350.219C233.703 350.219 232.857 350.031 232.117 349.656C231.378 349.281 230.776 348.763 230.313 348.102C229.849 347.435 229.56 346.669 229.445 345.805H231.828C231.984 346.492 232.302 347.049 232.781 347.477C233.266 347.898 233.891 348.109 234.656 348.109C235.828 348.109 236.742 347.599 237.398 346.578C238.055 345.552 238.385 344.12 238.391 342.281H238.266C237.995 342.729 237.656 343.115 237.25 343.437C236.849 343.76 236.398 344.01 235.898 344.187C235.398 344.365 234.865 344.453 234.297 344.453C233.375 344.453 232.536 344.227 231.781 343.773C231.026 343.32 230.424 342.698 229.977 341.906C229.529 341.115 229.305 340.211 229.305 339.195C229.305 338.185 229.534 337.268 229.992 336.445C230.456 335.622 231.102 334.971 231.93 334.492C232.763 334.008 233.74 333.771 234.859 333.781ZM234.867 335.812C234.258 335.812 233.708 335.964 233.219 336.266C232.734 336.562 232.352 336.966 232.07 337.477C231.789 337.982 231.648 338.544 231.648 339.164C231.648 339.784 231.784 340.346 232.055 340.852C232.331 341.352 232.706 341.75 233.18 342.047C233.659 342.339 234.206 342.484 234.82 342.484C235.279 342.484 235.706 342.396 236.102 342.219C236.497 342.042 236.844 341.797 237.141 341.484C237.438 341.167 237.669 340.807 237.836 340.406C238.003 340.005 238.086 339.583 238.086 339.141C238.086 338.552 237.945 338.005 237.664 337.5C237.388 336.995 237.008 336.589 236.523 336.281C236.039 335.969 235.487 335.812 234.867 335.812Z" fill="white"/>
<g style="mix-blend-mode:color-dodge">
<path d="M174.5 376H139.5C129.869 376 122 368.131 122 358.5V323.5C122 313.869 129.869 306 139.5 306H174.5C184.131 306 192 313.869 192 323.5V358.5C191.883 368.131 184.131 376 174.5 376Z" fill="#18202A"/>
</g>
<path d="M156.945 350.219C155.826 350.219 154.836 350.026 153.977 349.641C153.122 349.255 152.453 348.724 151.969 348.047C151.484 347.37 151.245 346.599 151.25 345.734C151.245 345.057 151.383 344.435 151.664 343.867C151.951 343.294 152.339 342.818 152.828 342.438C153.318 342.052 153.865 341.807 154.469 341.703V341.609C153.672 341.417 153.034 340.99 152.555 340.328C152.076 339.667 151.839 338.906 151.844 338.047C151.839 337.229 152.055 336.5 152.492 335.859C152.935 335.214 153.542 334.706 154.313 334.336C155.083 333.966 155.961 333.781 156.945 333.781C157.919 333.781 158.789 333.969 159.555 334.344C160.326 334.714 160.932 335.221 161.375 335.867C161.818 336.508 162.042 337.234 162.047 338.047C162.042 338.906 161.797 339.667 161.313 340.328C160.828 340.99 160.198 341.417 159.422 341.609V341.703C160.021 341.807 160.56 342.052 161.039 342.438C161.523 342.818 161.909 343.294 162.195 343.867C162.487 344.435 162.635 345.057 162.641 345.734C162.635 346.599 162.391 347.37 161.906 348.047C161.422 348.724 160.75 349.255 159.891 349.641C159.036 350.026 158.055 350.219 156.945 350.219ZM156.945 348.242C157.607 348.242 158.18 348.133 158.664 347.914C159.148 347.69 159.523 347.38 159.789 346.984C160.055 346.583 160.19 346.115 160.195 345.578C160.19 345.021 160.044 344.529 159.758 344.102C159.477 343.674 159.094 343.339 158.609 343.094C158.125 342.849 157.57 342.727 156.945 342.727C156.315 342.727 155.755 342.849 155.266 343.094C154.776 343.339 154.391 343.674 154.109 344.102C153.828 344.529 153.69 345.021 153.695 345.578C153.69 346.115 153.818 346.583 154.078 346.984C154.344 347.38 154.721 347.69 155.211 347.914C155.701 348.133 156.279 348.242 156.945 348.242ZM156.945 340.797C157.477 340.797 157.948 340.69 158.359 340.477C158.771 340.263 159.094 339.966 159.328 339.586C159.568 339.206 159.69 338.76 159.695 338.25C159.69 337.75 159.57 337.313 159.336 336.938C159.107 336.562 158.786 336.273 158.375 336.07C157.964 335.862 157.487 335.758 156.945 335.758C156.393 335.758 155.909 335.862 155.492 336.07C155.081 336.273 154.76 336.562 154.531 336.938C154.302 337.313 154.19 337.75 154.195 338.25C154.19 338.76 154.305 339.206 154.539 339.586C154.773 339.966 155.096 340.263 155.508 340.477C155.924 340.69 156.404 340.797 156.945 340.797Z" fill="white"/>
<g style="mix-blend-mode:color-dodge">
<path d="M96.5 376H61.5C51.8691 376 44 368.131 44 358.5V323.5C44 313.869 51.8691 306 61.5 306H96.5C106.131 306 114 313.869 114 323.5V358.5C113.883 368.131 106.131 376 96.5 376Z" fill="#18202A"/>
</g>
<path d="M74.0781 350L81.0625 336.187V336.07H72.9844V334H83.5625V336.141L76.6016 350H74.0781Z" fill="white"/>
<path d="M564.5 298H529.5C519.869 298 512 290.131 512 280.5V245.5C512 235.869 519.869 228 529.5 228H564.5C574.131 228 582 235.869 582 245.5V280.5C581.883 290.131 574.131 298 564.5 298Z" fill="#E5E5E5"/>
<path d="M544.143 492.077L555.571 503.359M531 497.718L538.429 487H563V509H539.571L531 497.718Z" stroke="white" stroke-width="3"/>
<path d="M544.714 503.72L555.686 492.28" stroke="white" stroke-width="3"/>
<path d="M330.5 298H295.5C285.869 298 278 290.131 278 280.5V245.5C278 235.869 285.869 228 295.5 228H330.5C340.131 228 348 235.869 348 245.5V280.5C347.883 290.131 340.131 298 330.5 298Z" fill="#E5E5E5"/>
<path d="M295.964 248.818V250.097H291.341V248.818H295.964ZM292.609 257V247.87C292.609 247.359 292.721 246.934 292.944 246.597C293.168 246.256 293.464 246.002 293.834 245.835C294.203 245.665 294.604 245.58 295.038 245.58C295.357 245.58 295.631 245.606 295.858 245.659C296.085 245.709 296.254 245.755 296.364 245.798L295.991 247.087C295.917 247.066 295.821 247.041 295.703 247.012C295.586 246.98 295.444 246.964 295.277 246.964C294.89 246.964 294.613 247.06 294.446 247.252C294.283 247.444 294.201 247.721 294.201 248.083V257H292.609ZM298.071 252.472C298.071 251.137 298.247 249.908 298.599 248.786C298.95 247.664 299.463 246.629 300.138 245.681H301.597C301.335 246.032 301.09 246.464 300.862 246.975C300.635 247.487 300.436 248.048 300.266 248.658C300.095 249.266 299.962 249.896 299.866 250.549C299.77 251.199 299.722 251.84 299.722 252.472C299.722 253.317 299.806 254.173 299.973 255.04C300.14 255.906 300.365 256.711 300.649 257.453C300.933 258.195 301.249 258.8 301.597 259.269H300.138C299.463 258.321 298.95 257.286 298.599 256.164C298.247 255.042 298.071 253.811 298.071 252.472ZM304.534 248.818L306.34 252.004L308.161 248.818H309.903L307.352 252.909L309.924 257H308.183L306.34 253.942L304.502 257H302.755L305.301 252.909L302.787 248.818H304.534ZM314.601 252.472C314.601 253.811 314.426 255.042 314.074 256.164C313.722 257.286 313.209 258.321 312.535 259.269H311.075C311.338 258.918 311.583 258.486 311.81 257.975C312.037 257.463 312.236 256.904 312.407 256.297C312.577 255.686 312.71 255.054 312.806 254.401C312.902 253.747 312.95 253.104 312.95 252.472C312.95 251.631 312.867 250.777 312.7 249.91C312.533 249.044 312.307 248.239 312.023 247.497C311.739 246.755 311.423 246.15 311.075 245.681H312.535C313.209 246.629 313.722 247.664 314.074 248.786C314.426 249.908 314.601 251.137 314.601 252.472Z" fill="#222222"/>
<path d="M326.597 257.165C325.791 257.165 325.097 256.993 324.514 256.648C323.935 256.3 323.488 255.812 323.172 255.184C322.859 254.551 322.703 253.811 322.703 252.962C322.703 252.124 322.859 251.386 323.172 250.746C323.488 250.107 323.928 249.608 324.493 249.25C325.061 248.891 325.725 248.712 326.485 248.712C326.947 248.712 327.394 248.788 327.827 248.941C328.261 249.093 328.65 249.333 328.994 249.66C329.338 249.987 329.61 250.411 329.809 250.933C330.008 251.451 330.107 252.082 330.107 252.824V253.388H323.603V252.195H328.547C328.547 251.776 328.461 251.405 328.291 251.082C328.12 250.755 327.881 250.498 327.572 250.31C327.266 250.121 326.908 250.027 326.496 250.027C326.048 250.027 325.658 250.137 325.324 250.358C324.994 250.574 324.738 250.858 324.557 251.21C324.379 251.558 324.29 251.936 324.29 252.344V253.277C324.29 253.824 324.386 254.289 324.578 254.672C324.773 255.056 325.045 255.349 325.393 255.551C325.741 255.75 326.148 255.849 326.613 255.849C326.915 255.849 327.19 255.807 327.439 255.722C327.687 255.633 327.902 255.501 328.083 255.327C328.264 255.153 328.403 254.939 328.499 254.683L330.006 254.955C329.885 255.398 329.669 255.787 329.356 256.121C329.047 256.451 328.658 256.709 328.19 256.893C327.724 257.075 327.194 257.165 326.597 257.165Z" fill="#222222"/>
<path d="M294.663 265.091V276H293.071V265.091H294.663ZM300.252 276.165C299.485 276.165 298.816 275.989 298.244 275.638C297.672 275.286 297.229 274.794 296.913 274.162C296.597 273.53 296.438 272.792 296.438 271.946C296.438 271.098 296.597 270.355 296.913 269.72C297.229 269.084 297.672 268.591 298.244 268.239C298.816 267.887 299.485 267.712 300.252 267.712C301.019 267.712 301.689 267.887 302.261 268.239C302.832 268.591 303.276 269.084 303.592 269.72C303.908 270.355 304.066 271.098 304.066 271.946C304.066 272.792 303.908 273.53 303.592 274.162C303.276 274.794 302.832 275.286 302.261 275.638C301.689 275.989 301.019 276.165 300.252 276.165ZM300.258 274.828C300.755 274.828 301.167 274.697 301.494 274.434C301.82 274.171 302.062 273.821 302.218 273.385C302.378 272.948 302.458 272.467 302.458 271.941C302.458 271.419 302.378 270.94 302.218 270.503C302.062 270.062 301.82 269.709 301.494 269.443C301.167 269.176 300.755 269.043 300.258 269.043C299.757 269.043 299.342 269.176 299.011 269.443C298.685 269.709 298.441 270.062 298.282 270.503C298.125 270.94 298.047 271.419 298.047 271.941C298.047 272.467 298.125 272.948 298.282 273.385C298.441 273.821 298.685 274.171 299.011 274.434C299.342 274.697 299.757 274.828 300.258 274.828ZM309.275 279.239C308.625 279.239 308.065 279.153 307.597 278.983C307.131 278.813 306.751 278.587 306.457 278.306C306.162 278.026 305.942 277.719 305.796 277.385L307.165 276.82C307.261 276.977 307.389 277.142 307.549 277.316C307.712 277.493 307.932 277.644 308.209 277.768C308.49 277.893 308.85 277.955 309.29 277.955C309.894 277.955 310.393 277.808 310.787 277.513C311.181 277.222 311.379 276.756 311.379 276.117V274.509H311.277C311.181 274.683 311.043 274.876 310.862 275.089C310.684 275.302 310.439 275.487 310.127 275.643C309.814 275.799 309.408 275.877 308.907 275.877C308.261 275.877 307.678 275.727 307.16 275.425C306.645 275.119 306.237 274.67 305.935 274.077C305.636 273.48 305.487 272.747 305.487 271.877C305.487 271.007 305.635 270.261 305.929 269.64C306.228 269.018 306.636 268.543 307.154 268.212C307.673 267.879 308.261 267.712 308.918 267.712C309.425 267.712 309.836 267.797 310.148 267.967C310.461 268.134 310.704 268.33 310.878 268.553C311.055 268.777 311.192 268.974 311.288 269.145H311.405V267.818H312.966V276.181C312.966 276.884 312.803 277.461 312.476 277.912C312.149 278.363 311.707 278.697 311.15 278.914C310.596 279.13 309.971 279.239 309.275 279.239ZM309.259 274.556C309.717 274.556 310.104 274.45 310.42 274.237C310.739 274.02 310.981 273.711 311.144 273.31C311.311 272.905 311.395 272.42 311.395 271.856C311.395 271.305 311.313 270.821 311.15 270.402C310.986 269.983 310.746 269.656 310.43 269.422C310.114 269.184 309.724 269.065 309.259 269.065C308.779 269.065 308.38 269.189 308.06 269.438C307.74 269.683 307.499 270.016 307.336 270.439C307.176 270.862 307.096 271.334 307.096 271.856C307.096 272.392 307.178 272.863 307.341 273.267C307.504 273.672 307.746 273.988 308.065 274.216C308.388 274.443 308.786 274.556 309.259 274.556Z" fill="#222222"/>
<path d="M323.663 266.091V277H322.071V266.091H323.663ZM327.399 272.142V277H325.806V268.818H327.335V270.15H327.436C327.624 269.717 327.919 269.369 328.32 269.106C328.725 268.843 329.235 268.712 329.849 268.712C330.407 268.712 330.895 268.829 331.314 269.063C331.733 269.294 332.058 269.638 332.289 270.097C332.519 270.555 332.635 271.121 332.635 271.796V277H331.042V271.988C331.042 271.395 330.888 270.931 330.579 270.597C330.27 270.26 329.845 270.091 329.306 270.091C328.936 270.091 328.608 270.171 328.32 270.331C328.036 270.491 327.811 270.725 327.644 271.034C327.48 271.339 327.399 271.709 327.399 272.142Z" fill="#222222"/>
<path d="M486.5 298H451.5C441.869 298 434 290.131 434 280.5V245.5C434 235.869 441.869 228 451.5 228H486.5C496.131 228 504 235.869 504 245.5V280.5C503.883 290.131 496.131 298 486.5 298Z" fill="#E5E5E5"/>
<path d="M449.663 248.091V259H448.071V248.091H449.663ZM451.806 259V250.818H453.399V259H451.806ZM452.61 249.556C452.333 249.556 452.095 249.463 451.897 249.279C451.701 249.091 451.604 248.867 451.604 248.608C451.604 248.345 451.701 248.121 451.897 247.936C452.095 247.748 452.333 247.654 452.61 247.654C452.887 247.654 453.123 247.748 453.319 247.936C453.518 248.121 453.617 248.345 453.617 248.608C453.617 248.867 453.518 249.091 453.319 249.279C453.123 249.463 452.887 249.556 452.61 249.556ZM455.541 259V250.818H457.07V252.15H457.171C457.342 251.699 457.621 251.347 458.008 251.095C458.395 250.839 458.858 250.712 459.398 250.712C459.945 250.712 460.403 250.839 460.772 251.095C461.145 251.351 461.42 251.702 461.598 252.15H461.683C461.878 251.713 462.189 251.365 462.615 251.106C463.041 250.843 463.549 250.712 464.139 250.712C464.881 250.712 465.486 250.944 465.955 251.409C466.427 251.875 466.664 252.576 466.664 253.513V259H465.071V253.663C465.071 253.109 464.92 252.707 464.618 252.459C464.316 252.21 463.956 252.086 463.537 252.086C463.018 252.086 462.615 252.246 462.328 252.565C462.04 252.881 461.896 253.288 461.896 253.785V259H460.309V253.561C460.309 253.118 460.17 252.761 459.893 252.491C459.616 252.221 459.256 252.086 458.812 252.086C458.51 252.086 458.231 252.166 457.976 252.326C457.724 252.482 457.519 252.7 457.363 252.981C457.21 253.261 457.134 253.586 457.134 253.956V259H455.541Z" fill="#222222"/>
<path d="M479.134 259.16C478.473 259.16 477.884 258.991 477.365 258.654C476.85 258.313 476.445 257.828 476.151 257.2C475.859 256.567 475.714 255.809 475.714 254.925C475.714 254.041 475.861 253.284 476.156 252.656C476.454 252.027 476.863 251.546 477.381 251.212C477.9 250.879 478.487 250.712 479.144 250.712C479.652 250.712 480.06 250.797 480.369 250.967C480.682 251.134 480.923 251.33 481.094 251.553C481.268 251.777 481.403 251.974 481.499 252.145H481.594V248.091H483.187V259H481.632V257.727H481.499C481.403 257.901 481.264 258.1 481.083 258.324C480.906 258.547 480.661 258.743 480.348 258.909C480.036 259.076 479.631 259.16 479.134 259.16ZM479.485 257.801C479.943 257.801 480.33 257.681 480.646 257.439C480.966 257.194 481.207 256.855 481.371 256.422C481.538 255.989 481.621 255.484 481.621 254.909C481.621 254.341 481.539 253.844 481.376 253.418C481.213 252.991 480.973 252.659 480.657 252.422C480.341 252.184 479.95 252.065 479.485 252.065C479.006 252.065 478.606 252.189 478.287 252.438C477.967 252.686 477.725 253.025 477.562 253.455C477.402 253.885 477.322 254.369 477.322 254.909C477.322 255.456 477.404 255.948 477.567 256.385C477.731 256.821 477.972 257.168 478.292 257.423C478.615 257.675 479.013 257.801 479.485 257.801ZM486.717 250.818L488.523 254.004L490.345 250.818H492.087L489.535 254.909L492.108 259H490.366L488.523 255.942L486.685 259H484.938L487.484 254.909L484.97 250.818H486.717Z" fill="#222222"/>
<path d="M455.935 275.591C455.935 276.433 455.722 277.077 455.296 277.525C454.87 277.972 454.255 278.196 453.453 278.196C453.282 278.196 453.121 278.185 452.968 278.164C452.815 278.146 452.664 278.116 452.515 278.074L452.638 276.737C452.719 276.758 452.837 276.777 452.989 276.795C453.142 276.813 453.266 276.822 453.362 276.822C453.71 276.822 453.966 276.724 454.129 276.529C454.293 276.337 454.374 276.039 454.374 275.634V266.392C454.374 265.49 454.598 264.798 455.045 264.315C455.496 263.832 456.145 263.59 456.99 263.59C457.171 263.59 457.352 263.604 457.533 263.633C457.718 263.661 457.908 263.699 458.103 263.745L457.927 265.039C457.835 265.018 457.698 265.002 457.517 264.991C457.336 264.98 457.171 264.975 457.022 264.975C456.649 264.975 456.374 265.083 456.196 265.3C456.022 265.513 455.935 265.849 455.935 266.307V275.591Z" fill="#222222"/>
<path d="M485.149 272.265C485.149 273.028 485.018 273.703 484.755 274.289C484.492 274.871 484.13 275.327 483.668 275.658C483.207 275.988 482.681 276.151 482.092 276.148C481.63 276.151 481.206 276.057 480.819 275.865C480.428 275.67 480.103 275.406 479.844 275.072C479.581 274.738 479.414 274.365 479.343 273.953H479.279C479.148 274.496 478.857 274.931 478.406 275.258C477.955 275.585 477.436 275.746 476.85 275.743C476.293 275.746 475.795 275.599 475.359 275.301C474.918 274.999 474.572 274.585 474.32 274.06C474.068 273.534 473.942 272.936 473.942 272.265C473.942 271.6 474.07 271.007 474.325 270.485C474.577 269.96 474.924 269.546 475.364 269.244C475.801 268.942 476.296 268.79 476.85 268.786C477.436 268.79 477.955 268.957 478.406 269.287C478.857 269.617 479.148 270.047 479.279 270.576H479.343C479.414 270.168 479.581 269.8 479.844 269.473C480.103 269.143 480.428 268.88 480.819 268.685C481.206 268.486 481.63 268.385 482.092 268.381C482.681 268.385 483.207 268.552 483.668 268.882C484.13 269.212 484.492 269.67 484.755 270.256C485.018 270.839 485.149 271.508 485.149 272.265ZM483.801 272.265C483.801 271.814 483.727 271.423 483.578 271.093C483.425 270.762 483.214 270.507 482.944 270.326C482.67 270.145 482.351 270.052 481.985 270.049C481.605 270.052 481.27 270.152 480.978 270.347C480.687 270.539 480.458 270.8 480.291 271.13C480.124 271.46 480.041 271.838 480.041 272.265C480.041 272.694 480.124 273.076 480.291 273.41C480.458 273.744 480.687 274.006 480.978 274.198C481.27 274.39 481.605 274.484 481.985 274.48C482.351 274.484 482.67 274.397 482.944 274.219C483.214 274.038 483.425 273.781 483.578 273.447C483.727 273.113 483.801 272.719 483.801 272.265ZM478.725 272.265C478.725 271.902 478.652 271.581 478.507 271.3C478.361 271.02 478.159 270.8 477.9 270.64C477.64 270.477 477.337 270.393 476.989 270.39C476.648 270.393 476.349 270.475 476.094 270.635C475.838 270.791 475.641 271.009 475.502 271.29C475.36 271.57 475.289 271.895 475.289 272.265C475.289 272.641 475.36 272.971 475.502 273.255C475.641 273.536 475.838 273.754 476.094 273.911C476.349 274.067 476.648 274.143 476.989 274.14C477.337 274.143 477.64 274.065 477.9 273.905C478.159 273.745 478.361 273.525 478.507 273.245C478.652 272.961 478.725 272.634 478.725 272.265Z" fill="#222222"/>
<path d="M408.5 298H373.5C363.869 298 356 290.131 356 280.5V245.5C356 235.869 363.869 228 373.5 228H408.5C418.131 228 426 235.869 426 245.5V280.5C425.883 290.131 418.131 298 408.5 298Z" fill="#E5E5E5"/>
<path d="M372.202 252.816L370.758 253.071C370.698 252.887 370.602 252.711 370.471 252.544C370.343 252.377 370.169 252.24 369.949 252.134C369.728 252.027 369.453 251.974 369.123 251.974C368.672 251.974 368.295 252.075 367.994 252.278C367.692 252.477 367.541 252.734 367.541 253.05C367.541 253.324 367.642 253.544 367.844 253.711C368.047 253.877 368.374 254.014 368.825 254.121L370.124 254.419C370.877 254.593 371.438 254.861 371.808 255.223C372.177 255.586 372.362 256.056 372.362 256.635C372.362 257.125 372.219 257.562 371.935 257.945C371.655 258.325 371.262 258.624 370.758 258.84C370.257 259.057 369.677 259.165 369.016 259.165C368.1 259.165 367.353 258.97 366.774 258.579C366.195 258.185 365.84 257.626 365.708 256.901L367.248 256.667C367.344 257.068 367.541 257.372 367.839 257.578C368.137 257.78 368.526 257.881 369.006 257.881C369.528 257.881 369.945 257.773 370.257 257.556C370.57 257.336 370.726 257.068 370.726 256.752C370.726 256.496 370.63 256.282 370.439 256.108C370.25 255.934 369.961 255.802 369.57 255.713L368.185 255.41C367.422 255.236 366.857 254.959 366.491 254.579C366.129 254.199 365.948 253.718 365.948 253.135C365.948 252.652 366.083 252.23 366.353 251.868C366.623 251.505 366.996 251.223 367.472 251.021C367.947 250.815 368.493 250.712 369.107 250.712C369.991 250.712 370.687 250.903 371.195 251.287C371.703 251.667 372.038 252.176 372.202 252.816ZM374.113 259V250.818H375.705V259H374.113ZM374.917 249.556C374.64 249.556 374.402 249.463 374.203 249.279C374.008 249.091 373.91 248.867 373.91 248.608C373.91 248.345 374.008 248.121 374.203 247.936C374.402 247.748 374.64 247.654 374.917 247.654C375.194 247.654 375.43 247.748 375.625 247.936C375.824 248.121 375.924 248.345 375.924 248.608C375.924 248.867 375.824 249.091 375.625 249.279C375.43 249.463 375.194 249.556 374.917 249.556ZM379.441 254.142V259H377.848V250.818H379.377V252.15H379.478C379.666 251.717 379.961 251.369 380.362 251.106C380.767 250.843 381.277 250.712 381.891 250.712C382.449 250.712 382.937 250.829 383.356 251.063C383.775 251.294 384.1 251.638 384.331 252.097C384.561 252.555 384.677 253.121 384.677 253.796V259H383.084V253.988C383.084 253.395 382.93 252.931 382.621 252.597C382.312 252.26 381.887 252.091 381.348 252.091C380.978 252.091 380.65 252.171 380.362 252.331C380.078 252.491 379.853 252.725 379.686 253.034C379.522 253.339 379.441 253.709 379.441 254.142Z" fill="#222222"/>
<path d="M396.517 259.165C395.725 259.165 395.043 258.986 394.472 258.627C393.903 258.265 393.467 257.766 393.161 257.13C392.856 256.495 392.703 255.767 392.703 254.946C392.703 254.115 392.859 253.382 393.172 252.746C393.484 252.107 393.925 251.608 394.493 251.25C395.061 250.891 395.73 250.712 396.501 250.712C397.123 250.712 397.676 250.827 398.163 251.058C398.65 251.285 399.042 251.605 399.34 252.017C399.642 252.429 399.821 252.91 399.878 253.46H398.328C398.243 253.077 398.048 252.746 397.742 252.469C397.44 252.192 397.036 252.054 396.528 252.054C396.084 252.054 395.695 252.171 395.361 252.406C395.031 252.636 394.773 252.967 394.589 253.396C394.404 253.822 394.312 254.327 394.312 254.909C394.312 255.506 394.402 256.021 394.583 256.454C394.765 256.887 395.02 257.223 395.35 257.461C395.684 257.699 396.077 257.817 396.528 257.817C396.83 257.817 397.103 257.762 397.348 257.652C397.597 257.539 397.804 257.377 397.971 257.168C398.142 256.958 398.261 256.706 398.328 256.411H399.878C399.821 256.94 399.649 257.413 399.362 257.828C399.074 258.244 398.689 258.57 398.206 258.808C397.726 259.046 397.163 259.165 396.517 259.165ZM405.028 259.165C404.261 259.165 403.591 258.989 403.02 258.638C402.448 258.286 402.004 257.794 401.688 257.162C401.372 256.53 401.214 255.792 401.214 254.946C401.214 254.098 401.372 253.355 401.688 252.72C402.004 252.084 402.448 251.591 403.02 251.239C403.591 250.887 404.261 250.712 405.028 250.712C405.795 250.712 406.464 250.887 407.036 251.239C407.608 251.591 408.052 252.084 408.368 252.72C408.684 253.355 408.842 254.098 408.842 254.946C408.842 255.792 408.684 256.53 408.368 257.162C408.052 257.794 407.608 258.286 407.036 258.638C406.464 258.989 405.795 259.165 405.028 259.165ZM405.033 257.828C405.53 257.828 405.942 257.697 406.269 257.434C406.596 257.171 406.837 256.821 406.993 256.385C407.153 255.948 407.233 255.467 407.233 254.941C407.233 254.419 407.153 253.94 406.993 253.503C406.837 253.062 406.596 252.709 406.269 252.443C405.942 252.176 405.53 252.043 405.033 252.043C404.532 252.043 404.117 252.176 403.787 252.443C403.46 252.709 403.217 253.062 403.057 253.503C402.901 253.94 402.823 254.419 402.823 254.941C402.823 255.467 402.901 255.948 403.057 256.385C403.217 256.821 403.46 257.171 403.787 257.434C404.117 257.697 404.532 257.828 405.033 257.828ZM416.751 252.816L415.307 253.071C415.247 252.887 415.151 252.711 415.019 252.544C414.892 252.377 414.718 252.24 414.497 252.134C414.277 252.027 414.002 251.974 413.672 251.974C413.221 251.974 412.844 252.075 412.542 252.278C412.241 252.477 412.09 252.734 412.09 253.05C412.09 253.324 412.191 253.544 412.393 253.711C412.596 253.877 412.922 254.014 413.373 254.121L414.673 254.419C415.426 254.593 415.987 254.861 416.356 255.223C416.726 255.586 416.91 256.056 416.91 256.635C416.91 257.125 416.768 257.562 416.484 257.945C416.204 258.325 415.811 258.624 415.307 258.84C414.806 259.057 414.226 259.165 413.565 259.165C412.649 259.165 411.901 258.97 411.323 258.579C410.744 258.185 410.389 257.626 410.257 256.901L411.797 256.667C411.893 257.068 412.09 257.372 412.388 257.578C412.686 257.78 413.075 257.881 413.555 257.881C414.077 257.881 414.494 257.773 414.806 257.556C415.119 257.336 415.275 257.068 415.275 256.752C415.275 256.496 415.179 256.282 414.987 256.108C414.799 255.934 414.51 255.802 414.119 255.713L412.734 255.41C411.971 255.236 411.406 254.959 411.04 254.579C410.678 254.199 410.497 253.718 410.497 253.135C410.497 252.652 410.632 252.23 410.902 251.868C411.172 251.505 411.545 251.223 412.02 251.021C412.496 250.815 413.041 250.712 413.656 250.712C414.54 250.712 415.236 250.903 415.744 251.287C416.252 251.667 416.587 252.176 416.751 252.816Z" fill="#222222"/>
<path d="M371.89 268.818V270.097H367.421V268.818H371.89ZM368.619 266.858H370.212V274.598C370.212 274.907 370.258 275.139 370.35 275.295C370.443 275.448 370.562 275.553 370.707 275.61C370.857 275.663 371.018 275.69 371.192 275.69C371.32 275.69 371.432 275.681 371.528 275.663C371.624 275.645 371.698 275.631 371.751 275.62L372.039 276.936C371.947 276.972 371.815 277.007 371.645 277.043C371.474 277.082 371.261 277.103 371.006 277.107C370.587 277.114 370.196 277.039 369.834 276.883C369.472 276.727 369.179 276.485 368.955 276.158C368.731 275.832 368.619 275.422 368.619 274.928V266.858ZM376.994 280.239C376.344 280.239 375.785 280.153 375.316 279.983C374.851 279.813 374.471 279.587 374.176 279.306C373.882 279.026 373.661 278.719 373.516 278.385L374.885 277.82C374.981 277.977 375.109 278.142 375.268 278.316C375.432 278.493 375.652 278.644 375.929 278.768C376.209 278.893 376.57 278.955 377.01 278.955C377.614 278.955 378.113 278.808 378.507 278.513C378.901 278.222 379.098 277.756 379.098 277.117V275.509H378.997C378.901 275.683 378.763 275.876 378.582 276.089C378.404 276.302 378.159 276.487 377.847 276.643C377.534 276.799 377.127 276.877 376.627 276.877C375.98 276.877 375.398 276.727 374.88 276.425C374.365 276.119 373.956 275.67 373.654 275.077C373.356 274.48 373.207 273.747 373.207 272.877C373.207 272.007 373.354 271.261 373.649 270.64C373.947 270.018 374.356 269.543 374.874 269.212C375.393 268.879 375.98 268.712 376.637 268.712C377.145 268.712 377.555 268.797 377.868 268.967C378.18 269.134 378.424 269.33 378.598 269.553C378.775 269.777 378.912 269.974 379.008 270.145H379.125V268.818H380.686V277.181C380.686 277.884 380.522 278.461 380.196 278.912C379.869 279.363 379.427 279.697 378.869 279.914C378.315 280.13 377.69 280.239 376.994 280.239ZM376.978 275.556C377.436 275.556 377.823 275.45 378.139 275.237C378.459 275.02 378.701 274.711 378.864 274.31C379.031 273.905 379.114 273.42 379.114 272.856C379.114 272.305 379.033 271.821 378.869 271.402C378.706 270.983 378.466 270.656 378.15 270.422C377.834 270.184 377.443 270.065 376.978 270.065C376.499 270.065 376.099 270.189 375.78 270.438C375.46 270.683 375.219 271.016 375.055 271.439C374.896 271.862 374.816 272.334 374.816 272.856C374.816 273.392 374.897 273.863 375.061 274.267C375.224 274.672 375.465 274.988 375.785 275.216C376.108 275.443 376.506 275.556 376.978 275.556Z" fill="#222222"/>
<path d="M390.517 277.165C389.725 277.165 389.043 276.986 388.472 276.627C387.903 276.265 387.467 275.766 387.161 275.13C386.856 274.495 386.703 273.767 386.703 272.946C386.703 272.115 386.859 271.382 387.172 270.746C387.484 270.107 387.925 269.608 388.493 269.25C389.061 268.891 389.73 268.712 390.501 268.712C391.123 268.712 391.676 268.827 392.163 269.058C392.65 269.285 393.042 269.605 393.34 270.017C393.642 270.429 393.821 270.91 393.878 271.46H392.328C392.243 271.077 392.048 270.746 391.742 270.469C391.44 270.192 391.036 270.054 390.528 270.054C390.084 270.054 389.695 270.171 389.361 270.406C389.031 270.636 388.773 270.967 388.589 271.396C388.404 271.822 388.312 272.327 388.312 272.909C388.312 273.506 388.402 274.021 388.583 274.454C388.765 274.887 389.02 275.223 389.35 275.461C389.684 275.699 390.077 275.817 390.528 275.817C390.83 275.817 391.103 275.762 391.348 275.652C391.597 275.539 391.804 275.377 391.971 275.168C392.142 274.958 392.261 274.706 392.328 274.411H393.878C393.821 274.94 393.649 275.413 393.362 275.828C393.074 276.244 392.689 276.57 392.206 276.808C391.726 277.046 391.163 277.165 390.517 277.165ZM399.028 277.165C398.261 277.165 397.591 276.989 397.02 276.638C396.448 276.286 396.004 275.794 395.688 275.162C395.372 274.53 395.214 273.792 395.214 272.946C395.214 272.098 395.372 271.355 395.688 270.72C396.004 270.084 396.448 269.591 397.02 269.239C397.591 268.887 398.261 268.712 399.028 268.712C399.795 268.712 400.464 268.887 401.036 269.239C401.608 269.591 402.052 270.084 402.368 270.72C402.684 271.355 402.842 272.098 402.842 272.946C402.842 273.792 402.684 274.53 402.368 275.162C402.052 275.794 401.608 276.286 401.036 276.638C400.464 276.989 399.795 277.165 399.028 277.165ZM399.033 275.828C399.53 275.828 399.942 275.697 400.269 275.434C400.596 275.171 400.837 274.821 400.993 274.385C401.153 273.948 401.233 273.467 401.233 272.941C401.233 272.419 401.153 271.94 400.993 271.503C400.837 271.062 400.596 270.709 400.269 270.443C399.942 270.176 399.53 270.043 399.033 270.043C398.532 270.043 398.117 270.176 397.787 270.443C397.46 270.709 397.217 271.062 397.057 271.503C396.901 271.94 396.823 272.419 396.823 272.941C396.823 273.467 396.901 273.948 397.057 274.385C397.217 274.821 397.46 275.171 397.787 275.434C398.117 275.697 398.532 275.828 399.033 275.828ZM408.439 268.818V270.097H403.97V268.818H408.439ZM405.168 266.858H406.761V274.598C406.761 274.907 406.807 275.139 406.899 275.295C406.992 275.448 407.111 275.553 407.256 275.61C407.405 275.663 407.567 275.69 407.741 275.69C407.869 275.69 407.981 275.681 408.077 275.663C408.172 275.645 408.247 275.631 408.3 275.62L408.588 276.936C408.496 276.972 408.364 277.007 408.194 277.043C408.023 277.082 407.81 277.103 407.555 277.107C407.135 277.114 406.745 277.039 406.383 276.883C406.02 276.727 405.727 276.485 405.504 276.158C405.28 275.832 405.168 275.422 405.168 274.928V266.858ZM413.543 280.239C412.893 280.239 412.334 280.153 411.865 279.983C411.4 279.813 411.02 279.587 410.725 279.306C410.43 279.026 410.21 278.719 410.065 278.385L411.434 277.82C411.53 277.977 411.657 278.142 411.817 278.316C411.981 278.493 412.201 278.644 412.478 278.768C412.758 278.893 413.119 278.955 413.559 278.955C414.163 278.955 414.662 278.808 415.056 278.513C415.45 278.222 415.647 277.756 415.647 277.117V275.509H415.546C415.45 275.683 415.312 275.876 415.13 276.089C414.953 276.302 414.708 276.487 414.395 276.643C414.083 276.799 413.676 276.877 413.176 276.877C412.529 276.877 411.947 276.727 411.428 276.425C410.913 276.119 410.505 275.67 410.203 275.077C409.905 274.48 409.756 273.747 409.756 272.877C409.756 272.007 409.903 271.261 410.198 270.64C410.496 270.018 410.905 269.543 411.423 269.212C411.941 268.879 412.529 268.712 413.186 268.712C413.694 268.712 414.104 268.797 414.417 268.967C414.729 269.134 414.972 269.33 415.146 269.553C415.324 269.777 415.461 269.974 415.557 270.145H415.674V268.818H417.234V277.181C417.234 277.884 417.071 278.461 416.744 278.912C416.418 279.363 415.976 279.697 415.418 279.914C414.864 280.13 414.239 280.239 413.543 280.239ZM413.527 275.556C413.985 275.556 414.372 275.45 414.688 275.237C415.008 275.02 415.249 274.711 415.413 274.31C415.58 273.905 415.663 273.42 415.663 272.856C415.663 272.305 415.581 271.821 415.418 271.402C415.255 270.983 415.015 270.656 414.699 270.422C414.383 270.184 413.992 270.065 413.527 270.065C413.048 270.065 412.648 270.189 412.329 270.438C412.009 270.683 411.767 271.016 411.604 271.439C411.444 271.862 411.364 272.334 411.364 272.856C411.364 273.392 411.446 273.863 411.609 274.267C411.773 274.672 412.014 274.988 412.334 275.216C412.657 275.443 413.055 275.556 413.527 275.556Z" fill="#222222"/>
<g style="mix-blend-mode:color-dodge">
<path d="M252.5 298H217.5C207.869 298 200 290.131 200 280.5V245.5C200 235.869 207.869 228 217.5 228H252.5C262.131 228 270 235.869 270 245.5V280.5C269.883 290.131 262.131 298 252.5 298Z" fill="#18202A"/>
</g>
<path d="M239.063 264.359C239.063 266.323 238.805 268.128 238.289 269.773C237.773 271.419 237.021 272.938 236.031 274.328H233.891C234.276 273.813 234.635 273.18 234.969 272.43C235.302 271.68 235.594 270.859 235.844 269.969C236.094 269.073 236.289 268.146 236.43 267.188C236.57 266.229 236.641 265.286 236.641 264.359C236.641 263.125 236.518 261.872 236.273 260.602C236.029 259.331 235.698 258.151 235.281 257.062C234.865 255.974 234.401 255.086 233.891 254.398H236.031C237.021 255.789 237.773 257.307 238.289 258.953C238.805 260.599 239.063 262.401 239.063 264.359Z" fill="white"/>
<g style="mix-blend-mode:color-dodge">
<path d="M174.5 298H139.5C129.869 298 122 290.131 122 280.5V245.5C122 235.869 129.869 228 139.5 228H174.5C184.131 228 192 235.869 192 245.5V280.5C191.883 290.131 184.131 298 174.5 298Z" fill="#18202A"/>
</g>
<path d="M153.25 264.359C153.25 262.401 153.508 260.599 154.023 258.953C154.539 257.307 155.292 255.789 156.281 254.398H158.422C158.036 254.914 157.677 255.547 157.344 256.297C157.01 257.047 156.719 257.87 156.469 258.766C156.219 259.656 156.023 260.581 155.883 261.539C155.742 262.492 155.672 263.432 155.672 264.359C155.672 265.599 155.794 266.854 156.039 268.125C156.284 269.396 156.615 270.576 157.031 271.664C157.448 272.753 157.911 273.641 158.422 274.328H156.281C155.292 272.938 154.539 271.419 154.023 269.773C153.508 268.128 153.25 266.323 153.25 264.359Z" fill="white"/>
<g style="mix-blend-mode:color-dodge">
<path d="M96.5 298H61.5C51.8691 298 44 290.131 44 280.5V245.5C44 235.869 51.8691 228 61.5 228H96.5C106.131 228 114 235.869 114 245.5V280.5C113.883 290.131 106.131 298 96.5 298Z" fill="#18202A"/>
</g>
<path d="M85.0469 260.203H82.6094C82.5156 259.682 82.3411 259.224 82.0859 258.828C81.8307 258.432 81.5182 258.096 81.1484 257.82C80.7786 257.544 80.3646 257.336 79.9063 257.195C79.4531 257.055 78.9714 256.984 78.4609 256.984C77.5391 256.984 76.7135 257.216 75.9844 257.68C75.2604 258.143 74.6875 258.823 74.2656 259.719C73.849 260.615 73.6406 261.708 73.6406 263C73.6406 264.302 73.849 265.401 74.2656 266.297C74.6875 267.193 75.263 267.87 75.9922 268.328C76.7214 268.786 77.5417 269.016 78.4531 269.016C78.9583 269.016 79.4375 268.948 79.8906 268.812C80.349 268.672 80.763 268.466 81.1328 268.195C81.5026 267.924 81.8151 267.594 82.0703 267.203C82.3307 266.807 82.5104 266.354 82.6094 265.844L85.0469 265.852C84.9167 266.638 84.6641 267.362 84.2891 268.023C83.9193 268.68 83.4427 269.247 82.8594 269.727C82.2813 270.201 81.6198 270.568 80.875 270.828C80.1302 271.089 79.3177 271.219 78.4375 271.219C77.0521 271.219 75.8177 270.891 74.7344 270.234C73.651 269.573 72.7969 268.628 72.1719 267.398C71.5521 266.169 71.2422 264.703 71.2422 263C71.2422 261.292 71.5547 259.826 72.1797 258.602C72.8047 257.372 73.6589 256.43 74.7422 255.773C75.8255 255.112 77.0573 254.781 78.4375 254.781C79.2865 254.781 80.0781 254.904 80.8125 255.148C81.5521 255.388 82.2161 255.742 82.8047 256.211C83.3932 256.674 83.8802 257.242 84.2656 257.914C84.651 258.581 84.9115 259.344 85.0469 260.203Z" fill="white"/>
<path d="M564.158 176.604C561.352 176.592 558.955 175.852 556.967 174.384C554.978 172.916 553.457 170.78 552.403 167.974C551.35 165.169 550.823 161.79 550.823 157.836C550.823 153.894 551.35 150.527 552.403 147.733C553.469 144.939 554.996 142.809 556.984 141.341C558.985 139.873 561.376 139.139 564.158 139.139C566.939 139.139 569.325 139.879 571.313 141.359C573.302 142.826 574.823 144.957 575.876 147.751C576.942 150.532 577.474 153.894 577.474 157.836C577.474 161.801 576.948 165.187 575.894 167.992C574.841 170.786 573.32 172.922 571.331 174.402C569.342 175.87 566.951 176.604 564.158 176.604ZM564.158 171.863C566.62 171.863 568.543 170.661 569.928 168.259C571.325 165.856 572.023 162.381 572.023 157.836C572.023 154.817 571.704 152.267 571.065 150.183C570.437 148.088 569.532 146.502 568.348 145.425C567.176 144.336 565.779 143.791 564.158 143.791C561.707 143.791 559.784 144.999 558.387 147.413C556.99 149.828 556.286 153.302 556.274 157.836C556.274 160.866 556.588 163.429 557.215 165.524C557.854 167.607 558.76 169.188 559.932 170.265C561.104 171.33 562.512 171.863 564.158 171.863Z" fill="white"/>
<path d="M316.078 424.93L307.094 415.953L308.57 414.469L317.555 423.453L316.078 424.93ZM308.57 424.93L307.094 423.453L316.078 414.469L317.555 415.953L308.57 424.93Z" fill="#222222"/>
<path d="M468.891 425V424.156C468.891 423.552 469.016 423 469.266 422.5C469.521 421.995 469.891 421.591 470.375 421.289C470.865 420.982 471.456 420.828 472.148 420.828C472.857 420.828 473.451 420.979 473.93 421.281C474.409 421.583 474.771 421.987 475.016 422.492C475.266 422.997 475.391 423.552 475.391 424.156V425C475.391 425.604 475.266 426.159 475.016 426.664C474.766 427.164 474.398 427.568 473.914 427.875C473.435 428.177 472.846 428.328 472.148 428.328C471.445 428.328 470.852 428.177 470.367 427.875C469.883 427.568 469.516 427.164 469.266 426.664C469.016 426.159 468.891 425.604 468.891 425ZM470.711 424.156V425C470.711 425.448 470.818 425.854 471.031 426.219C471.245 426.583 471.617 426.766 472.148 426.766C472.674 426.766 473.042 426.583 473.25 426.219C473.458 425.854 473.562 425.448 473.562 425V424.156C473.562 423.708 473.461 423.302 473.258 422.937C473.06 422.573 472.69 422.391 472.148 422.391C471.628 422.391 471.258 422.573 471.039 422.937C470.82 423.302 470.711 423.708 470.711 424.156ZM460.844 415.844V415C460.844 414.396 460.969 413.841 461.219 413.336C461.474 412.831 461.844 412.427 462.328 412.125C462.818 411.823 463.409 411.672 464.102 411.672C464.81 411.672 465.404 411.823 465.883 412.125C466.362 412.427 466.724 412.831 466.969 413.336C467.214 413.841 467.336 414.396 467.336 415V415.844C467.336 416.448 467.211 417.003 466.961 417.508C466.716 418.008 466.352 418.411 465.867 418.719C465.388 419.021 464.799 419.172 464.102 419.172C463.393 419.172 462.797 419.021 462.313 418.719C461.833 418.411 461.469 418.008 461.219 417.508C460.969 417.003 460.844 416.448 460.844 415.844ZM462.672 415V415.844C462.672 416.292 462.776 416.698 462.984 417.062C463.198 417.427 463.57 417.609 464.102 417.609C464.622 417.609 464.987 417.427 465.195 417.062C465.409 416.698 465.516 416.292 465.516 415.844V415C465.516 414.552 465.414 414.146 465.211 413.781C465.008 413.417 464.638 413.234 464.102 413.234C463.581 413.234 463.211 413.417 462.992 413.781C462.779 414.146 462.672 414.552 462.672 415ZM461.586 428L472.586 412H474.453L463.453 428H461.586Z" fill="#222222"/>
<path d="M396.484 418.672V420.727H386.172V418.672H396.484ZM391.328 425.398C390.891 425.398 390.518 425.247 390.211 424.945C389.909 424.638 389.758 424.266 389.758 423.828C389.758 423.411 389.909 423.052 390.211 422.75C390.518 422.448 390.891 422.297 391.328 422.297C391.745 422.297 392.104 422.448 392.406 422.75C392.708 423.052 392.859 423.411 392.859 423.828C392.859 424.266 392.708 424.638 392.406 424.945C392.104 425.247 391.745 425.398 391.328 425.398ZM391.328 417.109C391.036 417.109 390.771 417.039 390.531 416.898C390.297 416.758 390.109 416.568 389.969 416.328C389.828 416.089 389.758 415.826 389.758 415.539C389.758 415.117 389.909 414.755 390.211 414.453C390.518 414.151 390.891 414 391.328 414C391.75 414 392.109 414.151 392.406 414.453C392.708 414.755 392.859 415.117 392.859 415.539C392.859 415.971 392.708 416.341 392.406 416.648C392.109 416.956 391.75 417.109 391.328 417.109Z" fill="#222222"/>
<path d="M393.641 498.227V500.25H386.547V498.227H393.641Z" fill="#222222"/>
<path d="M229.32 575.32V573.266H239.328V575.32H229.32ZM229.32 580.133V578.078H239.328V580.133H229.32Z" fill="white"/>
<path d="M550.5 566H557V576H536M536 576L541 569M536 576L541 583.5" stroke="white" stroke-width="3"/>
<path d="M454.104 571.091L456.511 575.338L458.94 571.091H461.263L457.861 576.545L461.291 582H458.969L456.511 577.923L454.061 582H451.732L455.126 576.545L451.774 571.091H454.104Z" fill="#222222"/>
<path d="M467.77 586.091C467.453 586.091 467.164 586.065 466.903 586.013C466.643 585.965 466.449 585.913 466.321 585.857L466.832 584.116C467.221 584.221 467.566 584.266 467.869 584.251C468.172 584.237 468.44 584.124 468.672 583.911C468.909 583.697 469.117 583.349 469.297 582.866L469.56 582.142L465.568 571.091H467.841L470.604 579.557H470.717L473.48 571.091H475.76L471.264 583.456C471.056 584.024 470.791 584.505 470.469 584.898C470.147 585.295 469.763 585.594 469.318 585.793C468.873 585.991 468.357 586.091 467.77 586.091Z" fill="#222222"/>
<path d="M479.2 582V580.544L485.109 573.037V572.938H479.392V571.091H487.759V572.639L482.077 580.054V580.153H487.957V582H479.2Z" fill="#222222"/>
<path d="M293 594.593L301 582.593C305.333 575.093 317.7 563.393 332.5 576.593C351 593.093 353.5 594.593 376 565.093C394 541.493 415.333 566.927 413.5 565.093" stroke="#FF6531" stroke-width="2"/>
<path d="M301.827 48.4545L299.538 55H297.493L295.205 48.4545H297.122L298.482 53.1378H298.55L299.905 48.4545H301.827ZM305.528 55.1278C304.854 55.1278 304.275 54.9915 303.789 54.7188C303.306 54.4432 302.934 54.054 302.673 53.5511C302.411 53.0455 302.281 52.4474 302.281 51.7571C302.281 51.0838 302.411 50.4929 302.673 49.9844C302.934 49.4759 303.302 49.0795 303.776 48.7955C304.254 48.5114 304.813 48.3693 305.455 48.3693C305.887 48.3693 306.289 48.4389 306.661 48.5781C307.036 48.7145 307.363 48.9205 307.641 49.196C307.923 49.4716 308.141 49.8182 308.298 50.2358C308.454 50.6506 308.532 51.1364 308.532 51.6932V52.1918H303.005V51.0668H306.823C306.823 50.8054 306.766 50.5739 306.653 50.3722C306.539 50.1705 306.381 50.0128 306.18 49.8991C305.981 49.7827 305.749 49.7244 305.485 49.7244C305.21 49.7244 304.965 49.7884 304.752 49.9162C304.542 50.0412 304.377 50.2102 304.258 50.4233C304.138 50.6335 304.077 50.8679 304.075 51.1264V52.196C304.075 52.5199 304.134 52.7997 304.254 53.0355C304.376 53.2713 304.548 53.4531 304.769 53.581C304.991 53.7088 305.254 53.7727 305.558 53.7727C305.759 53.7727 305.944 53.7443 306.112 53.6875C306.279 53.6307 306.423 53.5455 306.542 53.4318C306.661 53.3182 306.752 53.179 306.815 53.0142L308.494 53.125C308.408 53.5284 308.234 53.8807 307.969 54.1818C307.708 54.4801 307.37 54.7131 306.955 54.8807C306.543 55.0455 306.067 55.1278 305.528 55.1278ZM304.556 45.7358L305.413 46.7756L306.269 45.7358H307.816V45.7955L306.086 47.6705H304.735L303.009 45.7955V45.7358H304.556ZM312.129 55.1065C311.631 55.1065 311.181 54.9787 310.778 54.723C310.377 54.4645 310.059 54.0852 309.823 53.5852C309.59 53.0824 309.474 52.4659 309.474 51.7358C309.474 50.9858 309.594 50.3622 309.836 49.8651C310.077 49.3651 310.398 48.9915 310.799 48.7443C311.202 48.4943 311.644 48.3693 312.124 48.3693C312.491 48.3693 312.796 48.4318 313.04 48.5568C313.288 48.679 313.487 48.8324 313.637 49.017C313.79 49.1989 313.907 49.3778 313.987 49.554H314.042V46.2727H315.853V55H314.063V53.9517H313.987C313.901 54.1335 313.781 54.3139 313.624 54.4929C313.471 54.669 313.271 54.8153 313.023 54.9318C312.779 55.0483 312.481 55.1065 312.129 55.1065ZM312.704 53.6619C312.996 53.6619 313.244 53.5824 313.445 53.4233C313.65 53.2614 313.806 53.0355 313.914 52.7457C314.025 52.456 314.08 52.1165 314.08 51.7273C314.08 51.3381 314.026 51 313.918 50.7131C313.81 50.4261 313.654 50.2045 313.45 50.0483C313.245 49.892 312.996 49.8139 312.704 49.8139C312.406 49.8139 312.154 49.8949 311.95 50.0568C311.745 50.2187 311.59 50.4432 311.485 50.7301C311.38 51.017 311.327 51.3494 311.327 51.7273C311.327 52.108 311.38 52.4446 311.485 52.7372C311.593 53.027 311.748 53.2543 311.95 53.419C312.154 53.581 312.406 53.6619 312.704 53.6619ZM320.328 55.1278C319.655 55.1278 319.076 54.9915 318.59 54.7188C318.107 54.4432 317.735 54.054 317.473 53.5511C317.212 53.0455 317.081 52.4474 317.081 51.7571C317.081 51.0838 317.212 50.4929 317.473 49.9844C317.735 49.4759 318.103 49.0795 318.577 48.7955C319.054 48.5114 319.614 48.3693 320.256 48.3693C320.688 48.3693 321.09 48.4389 321.462 48.5781C321.837 48.7145 322.164 48.9205 322.442 49.196C322.723 49.4716 322.942 49.8182 323.098 50.2358C323.255 50.6506 323.333 51.1364 323.333 51.6932V52.1918H317.806V51.0668H321.624C321.624 50.8054 321.567 50.5739 321.453 50.3722C321.34 50.1705 321.182 50.0128 320.98 49.8991C320.782 49.7827 320.55 49.7244 320.286 49.7244C320.01 49.7244 319.766 49.7884 319.553 49.9162C319.343 50.0412 319.178 50.2102 319.059 50.4233C318.939 50.6335 318.878 50.8679 318.875 51.1264V52.196C318.875 52.5199 318.935 52.7997 319.054 53.0355C319.176 53.2713 319.348 53.4531 319.57 53.581C319.792 53.7088 320.054 53.7727 320.358 53.7727C320.56 53.7727 320.745 53.7443 320.912 53.6875C321.08 53.6307 321.223 53.5455 321.343 53.4318C321.462 53.3182 321.553 53.179 321.615 53.0142L323.294 53.125C323.209 53.5284 323.034 53.8807 322.77 54.1818C322.509 54.4801 322.171 54.7131 321.756 54.8807C321.344 55.0455 320.868 55.1278 320.328 55.1278ZM327.475 55.1278C326.804 55.1278 326.228 54.9858 325.745 54.7017C325.265 54.4148 324.895 54.017 324.637 53.5085C324.381 53 324.253 52.4148 324.253 51.7528C324.253 51.0824 324.382 50.4943 324.641 49.9886C324.902 49.4801 325.273 49.0838 325.753 48.7997C326.233 48.5128 326.804 48.3693 327.466 48.3693C328.037 48.3693 328.537 48.473 328.966 48.6804C329.395 48.8878 329.735 49.179 329.985 49.554C330.235 49.929 330.373 50.3693 330.398 50.875H328.685C328.637 50.5483 328.509 50.2855 328.301 50.0866C328.097 49.8849 327.828 49.7841 327.496 49.7841C327.215 49.7841 326.969 49.8608 326.759 50.0142C326.551 50.1648 326.39 50.3849 326.273 50.6747C326.157 50.9645 326.098 51.3153 326.098 51.7273C326.098 52.1449 326.155 52.5 326.269 52.7926C326.385 53.0852 326.549 53.3082 326.759 53.4616C326.969 53.6151 327.215 53.6918 327.496 53.6918C327.703 53.6918 327.89 53.6491 328.054 53.5639C328.222 53.4787 328.36 53.3551 328.468 53.1932C328.578 53.0284 328.651 52.831 328.685 52.6009H330.398C330.37 53.1009 330.233 53.5412 329.989 53.9219C329.748 54.2997 329.414 54.5952 328.988 54.8082C328.561 55.0213 328.057 55.1278 327.475 55.1278ZM333.205 53.1165L333.21 50.9389H333.474L335.57 48.4545H337.654L334.837 51.7443H334.407L333.205 53.1165ZM331.56 55V46.2727H333.376V55H331.56ZM335.651 55L333.725 52.1491L334.935 50.8665L337.778 55H335.651ZM339.771 57.4545C339.541 57.4545 339.325 57.4361 339.123 57.3991C338.924 57.3651 338.76 57.321 338.629 57.267L339.038 55.9119C339.251 55.9773 339.443 56.0128 339.613 56.0185C339.787 56.0241 339.936 55.9844 340.061 55.8991C340.189 55.8139 340.292 55.669 340.372 55.4645L340.478 55.1875L338.13 48.4545H340.039L341.395 53.2614H341.463L342.831 48.4545H344.752L342.208 55.7074C342.086 56.0597 341.92 56.3665 341.71 56.6278C341.502 56.892 341.24 57.0952 340.922 57.2372C340.603 57.3821 340.22 57.4545 339.771 57.4545ZM340.777 47.6108L341.68 45.6719H343.359L342.059 47.6108H340.777Z" fill="black"/>
<path d="M284 50.3158L278 54V47L284 50.3158Z" fill="black"/>
<path d="M278.75 52.5263L278.818 51.7895M279.875 50.3158V51.7895L282.125 50.3158L279.125 48.4737L278.818 51.7895M279.875 50.3158V52.5263M279.875 50.3158L280.25 49.9474L281.375 50.3158L278.75 48.1053L278.818 51.7895M278 54L284 50.3158L278 47V54Z" stroke="black" stroke-width="2"/>
<path d="M20.25 51.4901V51.4091C20.2557 50.8807 20.3082 50.4602 20.4077 50.1477C20.5099 49.8352 20.6548 49.5824 20.8423 49.3892C21.0298 49.196 21.2557 49.0199 21.5199 48.8608C21.6903 48.7528 21.8438 48.6321 21.9801 48.4986C22.1165 48.3651 22.2244 48.2116 22.304 48.0384C22.3835 47.8651 22.4233 47.6733 22.4233 47.4631C22.4233 47.2102 22.3636 46.9915 22.2443 46.8068C22.125 46.6222 21.9659 46.4801 21.767 46.3807C21.571 46.2784 21.3523 46.2273 21.1108 46.2273C20.892 46.2273 20.6832 46.2727 20.4844 46.3636C20.2855 46.4545 20.1207 46.5966 19.9901 46.7898C19.8594 46.9801 19.7841 47.2259 19.7642 47.527H18.4688C18.4886 47.0156 18.6179 46.5838 18.8565 46.2315C19.0952 45.8764 19.4105 45.608 19.8026 45.4261C20.1974 45.2443 20.6335 45.1534 21.1108 45.1534C21.6335 45.1534 22.0909 45.2514 22.483 45.4474C22.875 45.6406 23.179 45.9119 23.3949 46.2614C23.6136 46.608 23.723 47.0128 23.723 47.4759C23.723 47.794 23.6733 48.081 23.5739 48.3366C23.4744 48.5895 23.3324 48.8153 23.1477 49.0142C22.9659 49.2131 22.7472 49.3892 22.4915 49.5426C22.25 49.6932 22.054 49.8494 21.9034 50.0114C21.7557 50.1733 21.6477 50.3651 21.5795 50.5866C21.5114 50.8082 21.4744 51.0824 21.4688 51.4091V51.4901H20.25ZM20.8935 54.081C20.6605 54.081 20.4602 53.9986 20.2926 53.8338C20.125 53.6662 20.0412 53.4645 20.0412 53.2287C20.0412 52.9957 20.125 52.7969 20.2926 52.6321C20.4602 52.4645 20.6605 52.3807 20.8935 52.3807C21.1236 52.3807 21.3224 52.4645 21.4901 52.6321C21.6605 52.7969 21.7457 52.9957 21.7457 53.2287C21.7457 53.3849 21.706 53.5284 21.6264 53.6591C21.5497 53.7869 21.4474 53.8892 21.3196 53.9659C21.1918 54.0426 21.0497 54.081 20.8935 54.081Z" fill="black"/>
<path d="M474.297 494V495.961H461.984V494H474.297ZM466.125 494V506H463.82V494H466.125ZM470.203 494H472.508V502.766C472.508 503.125 472.568 503.396 472.688 503.578C472.813 503.76 472.974 503.885 473.172 503.953C473.375 504.016 473.594 504.047 473.828 504.047C474 504.047 474.172 504.031 474.344 504C474.521 503.969 474.661 503.943 474.766 503.922V505.883C474.568 505.94 474.326 505.997 474.039 506.055C473.753 506.117 473.419 506.148 473.039 506.148C472.201 506.148 471.518 505.904 470.992 505.414C470.471 504.924 470.208 504.086 470.203 502.898V494Z" fill="#222222"/>
<path d="M537.812 328.844V355.156H535.719V328.844H537.812ZM543.955 338L546.604 342.672L549.275 338H551.83L548.088 344L551.861 350H549.307L546.604 345.516L543.908 350H541.346L545.08 344L541.393 338H543.955ZM557.471 328.844V355.156H555.377V328.844H557.471Z" fill="#222222"/>
<path d="M527.109 270H524.547L530.305 254H533.094L538.852 270H536.289L531.766 256.906H531.641L527.109 270ZM527.539 263.734H535.852V265.766H527.539V263.734ZM541.162 270V254H547.021C548.157 254 549.097 254.187 549.842 254.562C550.587 254.932 551.144 255.435 551.514 256.07C551.883 256.701 552.068 257.411 552.068 258.203C552.068 258.87 551.946 259.432 551.701 259.891C551.456 260.344 551.128 260.708 550.717 260.984C550.311 261.255 549.863 261.453 549.373 261.578V261.734C549.904 261.76 550.423 261.932 550.928 262.25C551.438 262.562 551.86 263.008 552.193 263.586C552.527 264.164 552.693 264.867 552.693 265.695C552.693 266.513 552.501 267.247 552.115 267.898C551.735 268.544 551.146 269.057 550.35 269.437C549.553 269.812 548.535 270 547.295 270H541.162ZM543.576 267.93H547.061C548.217 267.93 549.045 267.706 549.545 267.258C550.045 266.81 550.295 266.25 550.295 265.578C550.295 265.073 550.167 264.609 549.912 264.187C549.657 263.766 549.292 263.43 548.818 263.18C548.35 262.93 547.792 262.805 547.146 262.805H543.576V267.93ZM543.576 260.922H546.811C547.352 260.922 547.839 260.818 548.271 260.609C548.709 260.401 549.055 260.109 549.311 259.734C549.571 259.354 549.701 258.906 549.701 258.391C549.701 257.729 549.469 257.174 549.006 256.727C548.542 256.279 547.831 256.055 546.873 256.055H543.576V260.922ZM568.846 259.203H566.408C566.314 258.682 566.14 258.224 565.885 257.828C565.63 257.432 565.317 257.096 564.947 256.82C564.577 256.544 564.163 256.336 563.705 256.195C563.252 256.055 562.77 255.984 562.26 255.984C561.338 255.984 560.512 256.216 559.783 256.68C559.059 257.143 558.486 257.823 558.064 258.719C557.648 259.615 557.439 260.708 557.439 262C557.439 263.302 557.648 264.401 558.064 265.297C558.486 266.193 559.062 266.87 559.791 267.328C560.52 267.786 561.34 268.016 562.252 268.016C562.757 268.016 563.236 267.948 563.689 267.812C564.148 267.672 564.562 267.466 564.932 267.195C565.301 266.924 565.614 266.594 565.869 266.203C566.13 265.807 566.309 265.354 566.408 264.844L568.846 264.852C568.715 265.638 568.463 266.362 568.088 267.023C567.718 267.68 567.242 268.247 566.658 268.727C566.08 269.201 565.419 269.568 564.674 269.828C563.929 270.089 563.117 270.219 562.236 270.219C560.851 270.219 559.617 269.891 558.533 269.234C557.45 268.573 556.596 267.628 555.971 266.398C555.351 265.169 555.041 263.703 555.041 262C555.041 260.292 555.354 258.826 555.979 257.602C556.604 256.372 557.458 255.43 558.541 254.773C559.624 254.112 560.856 253.781 562.236 253.781C563.085 253.781 563.877 253.904 564.611 254.148C565.351 254.388 566.015 254.742 566.604 255.211C567.192 255.674 567.679 256.242 568.064 256.914C568.45 257.581 568.71 258.344 568.846 259.203Z" fill="#222222"/>
<path d="M536.519 415.491C534.5 421.402 538.362 431.5 548.255 431.5C558.148 431.5 560.874 422.715 561 418.323C560.874 414.423 558.148 406.599 548.255 406.501C543.838 406.457 539.674 409.005 539.674 410.318" stroke="white" stroke-width="3"/>
<path d="M539.5 410L540.5 403L539.5 410.5H546" stroke="white" stroke-width="3"/>
<path d="M548 412V420L552.5 424" stroke="white" stroke-width="3"/>
</g>
<rect x="0.5" y="0.5" width="624" height="634" stroke="#18202A"/>
<defs>
<filter id="filter0_d_2_19" x="-3" y="1" width="631" height="36" filterUnits="userSpaceOnUse" color-interpolation-filters="sRGB">
<feFlood flood-opacity="0" result="BackgroundImageFix"/>
<feColorMatrix in="SourceAlpha" type="matrix" values="0 0 0 0 0 0 0 0 0 0 0 0 0 0 0 0 0 0 127 0" result="hardAlpha"/>
<feOffset dy="4"/>
<feGaussianBlur stdDeviation="2"/>
<feComposite in2="hardAlpha" operator="out"/>
<feColorMatrix type="matrix" values="0 0 0 0 0 0 0 0 0 0 0 0 0 0 0 0 0 0 0.25 0"/>
<feBlend mode="normal" in2="BackgroundImageFix" result="effect1_dropShadow_2_19"/>
<feBlend mode="normal" in="SourceGraphic" in2="effect1_dropShadow_2_19" result="shape"/>
</filter>
<clipPath id="clip0_2_19">
<rect width="625" height="635" fill="white"/>
</clipPath>
</defs>
</svg>
